<?xml version="1.0" encoding="UTF-8" standalone="no"?><svg xmlns="http://www.w3.org/2000/svg" xmlns:xlink="http://www.w3.org/1999/xlink" contentStyleType="text/css" height="214px" preserveAspectRatio="none" style="width:677px;height:214px;background:#FFFFFF;" version="1.1" viewBox="0 0 677 214" width="677px" zoomAndPan="magnify"><defs/><g><!--MD5=[dd82451e1dd92fe3da01853750f49ff6]
entity server--><g id="elem_server"><rect fill="#F1F1F1" height="47.6094" rx="2.5" ry="2.5" style="stroke:#181818;stroke-width:0.5;" width="82" x="298" y="19.3564"/><rect fill="#F1F1F1" height="10" style="stroke:#181818;stroke-width:0.5;" width="15" x="360" y="24.3564"/><rect fill="#F1F1F1" height="2" style="stroke:#181818;stroke-width:0.5;" width="4" x="358" y="26.3564"/><rect fill="#F1F1F1" height="2" style="stroke:#181818;stroke-width:0.5;" width="4" x="358" y="30.3564"/><text fill="#000000" font-family="sans-serif" font-size="14" lengthAdjust="spacing" textLength="42" x="313" y="53.8896">サーバ</text></g><!--MD5=[5ff5fa45ad236cb7c8993bec112332ca]
entity console--><g id="elem_console"><rect fill="#F1F1F1" height="47.6094" rx="2.5" ry="2.5" style="stroke:#181818;stroke-width:0.5;" width="110" x="284" y="161.3564"/><rect fill="#F1F1F1" height="10" style="stroke:#181818;stroke-width:0.5;" width="15" x="374" y="166.3564"/><rect fill="#F1F1F1" height="2" style="stroke:#181818;stroke-width:0.5;" width="4" x="372" y="168.3564"/><rect fill="#F1F1F1" height="2" style="stroke:#181818;stroke-width:0.5;" width="4" x="372" y="172.3564"/><text fill="#000000" font-family="sans-serif" font-size="14" lengthAdjust="spacing" textLength="70" x="299" y="195.8896">コンソール</text></g><!--MD5=[c05fcadc036a699206cfdfa4a4fdb889]
entity controller--><g id="elem_controller"><rect fill="#F1F1F1" height="47.6094" rx="2.5" ry="2.5" style="stroke:#181818;stroke-width:0.5;" width="124" x="547" y="19.3564"/><rect fill="#F1F1F1" height="10" style="stroke:#181818;stroke-width:0.5;" width="15" x="651" y="24.3564"/><rect fill="#F1F1F1" height="2" style="stroke:#181818;stroke-width:0.5;" width="4" x="649" y="26.3564"/><rect fill="#F1F1F1" height="2" style="stroke:#181818;stroke-width:0.5;" width="4" x="649" y="30.3564"/><text fill="#000000" font-family="sans-serif" font-size="14" lengthAdjust="spacing" textLength="84" x="562" y="53.8896">コントローラ</text></g><!--MD5=[4a65e84059005d12693a083370a06717]
entity client--><g id="elem_client"><rect fill="#F1F1F1" height="47.6094" rx="2.5" ry="2.5" style="stroke:#181818;stroke-width:0.5;" width="124" x="7" y="19.3564"/><rect fill="#F1F1F1" height="10" style="stroke:#181818;stroke-width:0.5;" width="15" x="111" y="24.3564"/><rect fill="#F1F1F1" height="2" style="stroke:#181818;stroke-width:0.5;" width="4" x="109" y="26.3564"/><rect fill="#F1F1F1" height="2" style="stroke:#181818;stroke-width:0.5;" width="4" x="109" y="30.3564"/><text fill="#000000" font-family="sans-serif" font-size="14" lengthAdjust="spacing" textLength="84" x="22" y="53.8896">クライアント</text></g><!--MD5=[6e668341980b2b6f3174a2b130bbe9df]
link client to server--><g id="link_client_server"><path d="M131.23,57.7964 C164.01,63.6664 204.9,68.2564 241.5,64.3564 C258.35,62.5664 276.57,59.0664 292.65,55.4364 " fill="none" id="client-to-server" style="stroke:#181818;stroke-width:1.0;"/><polygon fill="#181818" points="297.56,54.3164,287.8947,52.424,292.6859,55.4313,289.6785,60.2226,297.56,54.3164" style="stroke:#181818;stroke-width:1.0;"/><text fill="#000000" font-family="sans-serif" font-size="13" lengthAdjust="spacing" textLength="52" x="188.5" y="60.8516">状態確認</text></g><!--MD5=[f871cee9216c95f6226147c412210b94]
reverse link client to server--><g id="link_client_server"><path d="M136.45,43.3564 C187.22,43.3564 255.15,43.3564 298,43.3564 " fill="none" id="client-backto-server" style="stroke:#181818;stroke-width:1.0;"/><polygon fill="#181818" points="131.28,43.3564,140.28,47.3564,136.28,43.3564,140.28,39.3564,131.28,43.3564" style="stroke:#181818;stroke-width:1.0;"/><text fill="#000000" font-family="sans-serif" font-size="13" lengthAdjust="spacing" textLength="117" x="156" y="20.8516">ライブ画面遷移指示</text><text fill="#000000" font-family="sans-serif" font-size="13" lengthAdjust="spacing" textLength="130" x="149.5" y="37.2031">タイトル画面遷移指示</text></g><!--MD5=[73c92b3cd67006b81fc31691cb946df0]
reverse link server to controller--><g id="link_server_controller"><path d="M385.35,55.4364 C401.43,59.0664 419.65,62.5664 436.5,64.3564 C473.1,68.2564 513.99,63.6664 546.77,57.7964 " fill="none" id="server-backto-controller" style="stroke:#181818;stroke-width:1.0;"/><polygon fill="#181818" points="380.44,54.3164,388.3215,60.2226,385.3141,55.4313,390.1053,52.424,380.44,54.3164" style="stroke:#181818;stroke-width:1.0;"/><text fill="#000000" font-family="sans-serif" font-size="13" lengthAdjust="spacing" textLength="52" x="437.5" y="60.8516">状態確認</text></g><!--MD5=[3a6c54db57b5fd22c5a9a68818288086]
link server to controller--><g id="link_server_controller"><path d="M380.01,43.3564 C422.87,43.3564 490.82,43.3564 541.58,43.3564 " fill="none" id="server-to-controller" style="stroke:#181818;stroke-width:1.0;"/><polygon fill="#181818" points="546.75,43.3564,537.75,39.3564,541.75,43.3564,537.75,47.3564,546.75,43.3564" style="stroke:#181818;stroke-width:1.0;"/><text fill="#000000" font-family="sans-serif" font-size="13" lengthAdjust="spacing" textLength="130" x="398.5" y="36.8516">タイトル画面遷移指示</text></g><!--MD5=[0a11d7c1ea68b753aa7833d3ef802406]
reverse link server to console--><g id="link_server_console"><path d="M339,72.5164 C339,98.5864 339,136.8764 339,161.2064 " fill="none" id="server-backto-console" style="stroke:#181818;stroke-width:1.0;"/><polygon fill="#181818" points="339,67.4764,335,76.4764,339,72.4764,343,76.4764,339,67.4764" style="stroke:#181818;stroke-width:1.0;"/><text fill="#000000" font-family="sans-serif" font-size="13" lengthAdjust="spacing" textLength="91" x="340" y="111.8516">ライブ開始命令</text><text fill="#000000" font-family="sans-serif" font-size="13" lengthAdjust="spacing" textLength="91" x="340" y="128.2031">ライブ終了命令</text></g><!--MD5=[e974f96f3251bf31cb0c8c89e54cd7ea]
@startuml 1_joinLive

component サーバ as server
component コンソール as console
component コントローラ as controller
component クライアント as client

server <-l- client : 状態確認
server -l-> client : ライブ画面遷移指示\nタイトル画面遷移指示
server <-r- controller : 状態確認
server -r-> controller : タイトル画面遷移指示
server <-d- console : ライブ開始命令\nライブ終了命令

@enduml

PlantUML version 1.2022.7(Tue Aug 23 02:01:30 JST 2022)
(GPL source distribution)
Java Runtime: Java(TM) SE Runtime Environment
JVM: Java HotSpot(TM) 64-Bit Server VM
Default Encoding: MS932
Language: ja
Country: JP
--></g></svg>