<?xml version="1.0" encoding="UTF-8" standalone="no"?><svg xmlns="http://www.w3.org/2000/svg" xmlns:xlink="http://www.w3.org/1999/xlink" contentStyleType="text/css" height="186px" preserveAspectRatio="none" style="width:642px;height:186px;background:#FFFFFF;" version="1.1" viewBox="0 0 642 186" width="642px" zoomAndPan="magnify"><defs/><g><!--MD5=[dd82451e1dd92fe3da01853750f49ff6]
entity server--><g id="elem_server"><rect fill="#F1F1F1" height="47.6094" rx="2.5" ry="2.5" style="stroke:#181818;stroke-width:0.5;" width="82" x="289" y="133"/><rect fill="#F1F1F1" height="10" style="stroke:#181818;stroke-width:0.5;" width="15" x="351" y="138"/><rect fill="#F1F1F1" height="2" style="stroke:#181818;stroke-width:0.5;" width="4" x="349" y="140"/><rect fill="#F1F1F1" height="2" style="stroke:#181818;stroke-width:0.5;" width="4" x="349" y="144"/><text fill="#000000" font-family="sans-serif" font-size="14" lengthAdjust="spacing" textLength="42" x="304" y="167.5332">サーバ</text></g><!--MD5=[c05fcadc036a699206cfdfa4a4fdb889]
entity controller--><g id="elem_controller"><rect fill="#F1F1F1" height="47.6094" rx="2.5" ry="2.5" style="stroke:#181818;stroke-width:0.5;" width="124" x="512" y="133"/><rect fill="#F1F1F1" height="10" style="stroke:#181818;stroke-width:0.5;" width="15" x="616" y="138"/><rect fill="#F1F1F1" height="2" style="stroke:#181818;stroke-width:0.5;" width="4" x="614" y="140"/><rect fill="#F1F1F1" height="2" style="stroke:#181818;stroke-width:0.5;" width="4" x="614" y="144"/><text fill="#000000" font-family="sans-serif" font-size="14" lengthAdjust="spacing" textLength="84" x="527" y="167.5332">コントローラ</text></g><!--MD5=[27a2461315c63752a192d73a4229a9a1]
entity poseAi--><g id="elem_poseAi"><rect fill="#F1F1F1" height="47.6094" rx="2.5" ry="2.5" style="stroke:#181818;stroke-width:0.5;" width="105" x="277.5" y="7"/><rect fill="#F1F1F1" height="10" style="stroke:#181818;stroke-width:0.5;" width="15" x="362.5" y="12"/><rect fill="#F1F1F1" height="2" style="stroke:#181818;stroke-width:0.5;" width="4" x="360.5" y="14"/><rect fill="#F1F1F1" height="2" style="stroke:#181818;stroke-width:0.5;" width="4" x="360.5" y="18"/><text fill="#000000" font-family="sans-serif" font-size="14" lengthAdjust="spacing" textLength="65" x="292.5" y="41.5332">Pose Cam</text></g><!--MD5=[4a65e84059005d12693a083370a06717]
entity client--><g id="elem_client"><rect fill="#F1F1F1" height="47.6094" rx="2.5" ry="2.5" style="stroke:#181818;stroke-width:0.5;" width="124" x="7" y="133"/><rect fill="#F1F1F1" height="10" style="stroke:#181818;stroke-width:0.5;" width="15" x="111" y="138"/><rect fill="#F1F1F1" height="2" style="stroke:#181818;stroke-width:0.5;" width="4" x="109" y="140"/><rect fill="#F1F1F1" height="2" style="stroke:#181818;stroke-width:0.5;" width="4" x="109" y="144"/><text fill="#000000" font-family="sans-serif" font-size="14" lengthAdjust="spacing" textLength="84" x="22" y="167.5332">クライアント</text></g><!--MD5=[82d4be779d8332d07c95e212fe80b8e4]
link poseAi to server--><g id="link_poseAi_server"><path d="M330,55.03 C330,75.52 330,105.56 330,127.55 " fill="none" id="poseAi-to-server" style="stroke:#181818;stroke-width:1.0;"/><polygon fill="#181818" points="330,132.67,334,123.67,330,127.67,326,123.67,330,132.67" style="stroke:#181818;stroke-width:1.0;"/><text fill="#000000" font-family="sans-serif" font-size="13" lengthAdjust="spacing" textLength="104" x="331" y="99.4951">プレゼンタの姿勢</text></g><!--MD5=[f871cee9216c95f6226147c412210b94]
reverse link client to server--><g id="link_client_server"><path d="M136.38,157 C184.52,157 247.75,157 288.64,157 " fill="none" id="client-backto-server" style="stroke:#181818;stroke-width:1.0;"/><polygon fill="#181818" points="131.18,157,140.18,161,136.18,157,140.18,153,131.18,157" style="stroke:#181818;stroke-width:1.0;"/><text fill="#000000" font-family="sans-serif" font-size="13" lengthAdjust="spacing" textLength="121" x="149.5" y="150.4951">アバターの位置/姿勢</text></g><!--MD5=[73c92b3cd67006b81fc31691cb946df0]
reverse link server to controller--><g id="link_server_controller"><path d="M376.18,157 C414.5,157 469.38,157 511.61,157 " fill="none" id="server-backto-controller" style="stroke:#181818;stroke-width:1.0;"/><polygon fill="#181818" points="371.12,157,380.12,161,376.12,157,380.12,153,371.12,157" style="stroke:#181818;stroke-width:1.0;"/><text fill="#000000" font-family="sans-serif" font-size="13" lengthAdjust="spacing" textLength="104" x="389.5" y="150.4951">プレゼンタの位置</text></g><!--MD5=[cecba511033bf11296333d3dc5cbb66b]
@startuml 2_controlAvatar

component サーバ as server
component コントローラ as controller
component "Pose Cam" as poseAi
component クライアント as client

server <-u- poseAi : プレゼンタの姿勢
server -l-> client : アバターの位置/姿勢
server <-r- controller : プレゼンタの位置

@enduml

PlantUML version 1.2022.7(Tue Aug 23 02:01:30 JST 2022)
(GPL source distribution)
Java Runtime: Java(TM) SE Runtime Environment
JVM: Java HotSpot(TM) 64-Bit Server VM
Default Encoding: MS932
Language: ja
Country: JP
--></g></svg>