<?xml version="1.0" encoding="UTF-8" standalone="no"?><svg xmlns="http://www.w3.org/2000/svg" xmlns:xlink="http://www.w3.org/1999/xlink" contentStyleType="text/css" height="60px" preserveAspectRatio="none" style="width:589px;height:60px;background:#FFFFFF;" version="1.1" viewBox="0 0 589 60" width="589px" zoomAndPan="magnify"><defs/><g><!--MD5=[c05fcadc036a699206cfdfa4a4fdb889]
entity controller--><g id="elem_controller"><rect fill="#F1F1F1" height="47.6094" rx="2.5" ry="2.5" style="stroke:#181818;stroke-width:0.5;" width="124" x="459" y="7"/><rect fill="#F1F1F1" height="10" style="stroke:#181818;stroke-width:0.5;" width="15" x="563" y="12"/><rect fill="#F1F1F1" height="2" style="stroke:#181818;stroke-width:0.5;" width="4" x="561" y="14"/><rect fill="#F1F1F1" height="2" style="stroke:#181818;stroke-width:0.5;" width="4" x="561" y="18"/><text fill="#000000" font-family="sans-serif" font-size="14" lengthAdjust="spacing" textLength="84" x="474" y="41.5332">コントローラ</text></g><!--MD5=[8a29610e51e6f6b85b1738fa1e753653]
entity vivox--><g id="elem_vivox"><rect fill="#F1F1F1" height="47.6094" rx="2.5" ry="2.5" style="stroke:#181818;stroke-width:0.5;" width="73" x="258.5" y="7"/><rect fill="#F1F1F1" height="10" style="stroke:#181818;stroke-width:0.5;" width="15" x="311.5" y="12"/><rect fill="#F1F1F1" height="2" style="stroke:#181818;stroke-width:0.5;" width="4" x="309.5" y="14"/><rect fill="#F1F1F1" height="2" style="stroke:#181818;stroke-width:0.5;" width="4" x="309.5" y="18"/><text fill="#000000" font-family="sans-serif" font-size="14" lengthAdjust="spacing" textLength="33" x="273.5" y="41.5332">Vivox</text></g><!--MD5=[4a65e84059005d12693a083370a06717]
entity client--><g id="elem_client"><rect fill="#F1F1F1" height="47.6094" rx="2.5" ry="2.5" style="stroke:#181818;stroke-width:0.5;" width="124" x="7" y="7"/><rect fill="#F1F1F1" height="10" style="stroke:#181818;stroke-width:0.5;" width="15" x="111" y="12"/><rect fill="#F1F1F1" height="2" style="stroke:#181818;stroke-width:0.5;" width="4" x="109" y="14"/><rect fill="#F1F1F1" height="2" style="stroke:#181818;stroke-width:0.5;" width="4" x="109" y="18"/><text fill="#000000" font-family="sans-serif" font-size="14" lengthAdjust="spacing" textLength="84" x="22" y="41.5332">クライアント</text></g><!--MD5=[1d38fb4cac93bf210aa2c95906d49c01]
reverse link client to vivox--><g id="link_client_vivox"><path d="M136.39,31 C176.41,31 225.6,31 258.49,31 " fill="none" id="client-backto-vivox" style="stroke:#181818;stroke-width:1.0;"/><polygon fill="#181818" points="131.05,31,140.05,35,136.05,31,140.05,27,131.05,31" style="stroke:#181818;stroke-width:1.0;"/><text fill="#000000" font-family="sans-serif" font-size="13" lengthAdjust="spacing" textLength="91" x="149.25" y="24.4951">プレゼンタの声</text></g><!--MD5=[59fccf4d8fb72c896f8f5e33d24fe1c6]
reverse link vivox to controller--><g id="link_vivox_controller"><path d="M336.93,31 C371.18,31 420.09,31 458.89,31 " fill="none" id="vivox-backto-controller" style="stroke:#181818;stroke-width:1.0;"/><polygon fill="#181818" points="331.56,31,340.56,35,336.56,31,340.56,27,331.56,31" style="stroke:#181818;stroke-width:1.0;"/><text fill="#000000" font-family="sans-serif" font-size="13" lengthAdjust="spacing" textLength="91" x="349.75" y="24.4951">プレゼンタの声</text></g><!--MD5=[8269e35bc928244736ea941552b70de9]
@startuml 3_deliverVoice

component コントローラ as controller
component Vivox as vivox
component クライアント as client

vivox -l-> client : プレゼンタの声
vivox <-r- controller : プレゼンタの声

@enduml

PlantUML version 1.2022.7(Tue Aug 23 02:01:30 JST 2022)
(GPL source distribution)
Java Runtime: Java(TM) SE Runtime Environment
JVM: Java HotSpot(TM) 64-Bit Server VM
Default Encoding: MS932
Language: ja
Country: JP
--></g></svg>