<?xml version="1.0" encoding="UTF-8" standalone="no"?><svg xmlns="http://www.w3.org/2000/svg" xmlns:xlink="http://www.w3.org/1999/xlink" contentStyleType="text/css" height="60px" preserveAspectRatio="none" style="width:573px;height:60px;background:#FFFFFF;" version="1.1" viewBox="0 0 573 60" width="573px" zoomAndPan="magnify"><defs/><g><!--MD5=[dd82451e1dd92fe3da01853750f49ff6]
entity server--><g id="elem_server"><rect fill="#F1F1F1" height="47.6094" rx="2.5" ry="2.5" style="stroke:#181818;stroke-width:0.5;" width="82" x="246" y="7"/><rect fill="#F1F1F1" height="10" style="stroke:#181818;stroke-width:0.5;" width="15" x="308" y="12"/><rect fill="#F1F1F1" height="2" style="stroke:#181818;stroke-width:0.5;" width="4" x="306" y="14"/><rect fill="#F1F1F1" height="2" style="stroke:#181818;stroke-width:0.5;" width="4" x="306" y="18"/><text fill="#000000" font-family="sans-serif" font-size="14" lengthAdjust="spacing" textLength="42" x="261" y="41.5332">サーバ</text></g><!--MD5=[c05fcadc036a699206cfdfa4a4fdb889]
entity controller--><g id="elem_controller"><rect fill="#F1F1F1" height="47.6094" rx="2.5" ry="2.5" style="stroke:#181818;stroke-width:0.5;" width="124" x="443" y="7"/><rect fill="#F1F1F1" height="10" style="stroke:#181818;stroke-width:0.5;" width="15" x="547" y="12"/><rect fill="#F1F1F1" height="2" style="stroke:#181818;stroke-width:0.5;" width="4" x="545" y="14"/><rect fill="#F1F1F1" height="2" style="stroke:#181818;stroke-width:0.5;" width="4" x="545" y="18"/><text fill="#000000" font-family="sans-serif" font-size="14" lengthAdjust="spacing" textLength="84" x="458" y="41.5332">コントローラ</text></g><!--MD5=[4a65e84059005d12693a083370a06717]
entity client--><g id="elem_client"><rect fill="#F1F1F1" height="47.6094" rx="2.5" ry="2.5" style="stroke:#181818;stroke-width:0.5;" width="124" x="7" y="7"/><rect fill="#F1F1F1" height="10" style="stroke:#181818;stroke-width:0.5;" width="15" x="111" y="12"/><rect fill="#F1F1F1" height="2" style="stroke:#181818;stroke-width:0.5;" width="4" x="109" y="14"/><rect fill="#F1F1F1" height="2" style="stroke:#181818;stroke-width:0.5;" width="4" x="109" y="18"/><text fill="#000000" font-family="sans-serif" font-size="14" lengthAdjust="spacing" textLength="84" x="22" y="41.5332">クライアント</text></g><!--MD5=[6e668341980b2b6f3174a2b130bbe9df]
link client to server--><g id="link_client_server"><path d="M136.4,31 C170.21,31 210.3,31 240.61,31 " fill="none" id="client-server" style="stroke:#181818;stroke-width:1.0;"/><polygon fill="#181818" points="245.77,31,236.77,27,240.77,31,236.77,35,245.77,31" style="stroke:#181818;stroke-width:1.0;"/><polygon fill="#181818" points="131.18,31,140.18,35,136.18,31,140.18,27,131.18,31" style="stroke:#181818;stroke-width:1.0;"/><text fill="#000000" font-family="sans-serif" font-size="13" lengthAdjust="spacing" textLength="78" x="149.5" y="24.4951">コメント情報</text></g><!--MD5=[3a6c54db57b5fd22c5a9a68818288086]
link server to controller--><g id="link_server_controller"><path d="M328,31 C358.8,31 401.66,31 437.49,31 " fill="none" id="server-to-controller" style="stroke:#181818;stroke-width:1.0;"/><polygon fill="#181818" points="442.73,31,433.73,27,437.73,31,433.73,35,442.73,31" style="stroke:#181818;stroke-width:1.0;"/><text fill="#000000" font-family="sans-serif" font-size="13" lengthAdjust="spacing" textLength="78" x="346.5" y="24.4951">コメント情報</text></g><!--MD5=[f9c2c704f20f17d4f33a4372c82ae092]
@startuml 4_sendComment

component サーバ as server
component コントローラ as controller
component クライアント as client

server <-l-> client : コメント情報
server -r-> controller : コメント情報

@enduml

PlantUML version 1.2022.7(Tue Aug 23 02:01:30 JST 2022)
(GPL source distribution)
Java Runtime: Java(TM) SE Runtime Environment
JVM: Java HotSpot(TM) 64-Bit Server VM
Default Encoding: MS932
Language: ja
Country: JP
--></g></svg>