<?xml version="1.0" encoding="UTF-8" standalone="no"?><svg xmlns="http://www.w3.org/2000/svg" xmlns:xlink="http://www.w3.org/1999/xlink" contentStyleType="text/css" height="79px" preserveAspectRatio="none" style="width:599px;height:79px;background:#FFFFFF;" version="1.1" viewBox="0 0 599 79" width="599px" zoomAndPan="magnify"><defs/><g><!--MD5=[dd82451e1dd92fe3da01853750f49ff6]
entity server--><g id="elem_server"><rect fill="#F1F1F1" height="47.6094" rx="2.5" ry="2.5" style="stroke:#181818;stroke-width:0.5;" width="82" x="259" y="7"/><rect fill="#F1F1F1" height="10" style="stroke:#181818;stroke-width:0.5;" width="15" x="321" y="12"/><rect fill="#F1F1F1" height="2" style="stroke:#181818;stroke-width:0.5;" width="4" x="319" y="14"/><rect fill="#F1F1F1" height="2" style="stroke:#181818;stroke-width:0.5;" width="4" x="319" y="18"/><text fill="#000000" font-family="sans-serif" font-size="14" lengthAdjust="spacing" textLength="42" x="274" y="41.5332">サーバ</text></g><!--MD5=[c05fcadc036a699206cfdfa4a4fdb889]
entity controller--><g id="elem_controller"><rect fill="#F1F1F1" height="47.6094" rx="2.5" ry="2.5" style="stroke:#181818;stroke-width:0.5;" width="124" x="469" y="7"/><rect fill="#F1F1F1" height="10" style="stroke:#181818;stroke-width:0.5;" width="15" x="573" y="12"/><rect fill="#F1F1F1" height="2" style="stroke:#181818;stroke-width:0.5;" width="4" x="571" y="14"/><rect fill="#F1F1F1" height="2" style="stroke:#181818;stroke-width:0.5;" width="4" x="571" y="18"/><text fill="#000000" font-family="sans-serif" font-size="14" lengthAdjust="spacing" textLength="84" x="484" y="41.5332">コントローラ</text></g><!--MD5=[4a65e84059005d12693a083370a06717]
entity client--><g id="elem_client"><rect fill="#F1F1F1" height="47.6094" rx="2.5" ry="2.5" style="stroke:#181818;stroke-width:0.5;" width="124" x="7" y="7"/><rect fill="#F1F1F1" height="10" style="stroke:#181818;stroke-width:0.5;" width="15" x="111" y="12"/><rect fill="#F1F1F1" height="2" style="stroke:#181818;stroke-width:0.5;" width="4" x="109" y="14"/><rect fill="#F1F1F1" height="2" style="stroke:#181818;stroke-width:0.5;" width="4" x="109" y="18"/><text fill="#000000" font-family="sans-serif" font-size="14" lengthAdjust="spacing" textLength="84" x="22" y="41.5332">クライアント</text></g><!--MD5=[6e668341980b2b6f3174a2b130bbe9df]
link client to server--><g id="link_client_server"><path d="M115.64,55.12 C128.1,60.43 141.79,65.28 155,68 C172.41,71.59 217.81,72.55 235,68 C243.79,65.67 252.64,61.85 260.85,57.52 " fill="none" id="client-to-server" style="stroke:#181818;stroke-width:1.0;"/><polygon fill="#181818" points="265.34,55.07,255.5246,55.8815,260.9538,57.4703,259.3651,62.8994,265.34,55.07" style="stroke:#181818;stroke-width:1.0;"/><text fill="#000000" font-family="sans-serif" font-size="13" lengthAdjust="spacing" textLength="52" x="169" y="48.4951">ユーザ名</text><text fill="#000000" font-family="sans-serif" font-size="13" lengthAdjust="spacing" textLength="78" x="156" y="64.8467">エールの種類</text></g><!--MD5=[f871cee9216c95f6226147c412210b94]
reverse link client to server--><g id="link_client_server"><path d="M136.49,31 C176.11,31 224.9,31 258.83,31 " fill="none" id="client-backto-server" style="stroke:#181818;stroke-width:1.0;"/><polygon fill="#181818" points="131.21,31,140.21,35,136.21,31,140.21,27,131.21,31" style="stroke:#181818;stroke-width:1.0;"/><text fill="#000000" font-family="sans-serif" font-size="13" lengthAdjust="spacing" textLength="91" x="149.5" y="24.4951">エール出現情報</text></g><!--MD5=[3a6c54db57b5fd22c5a9a68818288086]
link server to controller--><g id="link_server_controller"><path d="M341.03,31 C374.91,31 423.68,31 463.32,31 " fill="none" id="server-to-controller" style="stroke:#181818;stroke-width:1.0;"/><polygon fill="#181818" points="468.6,31,459.6,27,463.6,31,459.6,35,468.6,31" style="stroke:#181818;stroke-width:1.0;"/><text fill="#000000" font-family="sans-serif" font-size="13" lengthAdjust="spacing" textLength="91" x="359.5" y="24.4951">エール出現情報</text></g><!--MD5=[681b534b829b2298677049cb823a65c5]
@startuml 5_giveYell

component サーバ as server
component コントローラ as controller
component クライアント as client

server <-l- client : ユーザ名\nエールの種類
server -l-> client : エール出現情報
server -r-> controller : エール出現情報

@enduml

PlantUML version 1.2022.7(Tue Aug 23 02:01:30 JST 2022)
(GPL source distribution)
Java Runtime: Java(TM) SE Runtime Environment
JVM: Java HotSpot(TM) 64-Bit Server VM
Default Encoding: MS932
Language: ja
Country: JP
--></g></svg>