<?xml version="1.0" encoding="UTF-8" standalone="no"?><svg xmlns="http://www.w3.org/2000/svg" xmlns:xlink="http://www.w3.org/1999/xlink" contentStyleType="text/css" height="60px" preserveAspectRatio="none" style="width:787px;height:60px;background:#FFFFFF;" version="1.1" viewBox="0 0 787 60" width="787px" zoomAndPan="magnify"><defs/><g><!--MD5=[dd82451e1dd92fe3da01853750f49ff6]
entity server--><g id="elem_server"><rect fill="#F1F1F1" height="47.6094" rx="2.5" ry="2.5" style="stroke:#181818;stroke-width:0.5;" width="82" x="353" y="7"/><rect fill="#F1F1F1" height="10" style="stroke:#181818;stroke-width:0.5;" width="15" x="415" y="12"/><rect fill="#F1F1F1" height="2" style="stroke:#181818;stroke-width:0.5;" width="4" x="413" y="14"/><rect fill="#F1F1F1" height="2" style="stroke:#181818;stroke-width:0.5;" width="4" x="413" y="18"/><text fill="#000000" font-family="sans-serif" font-size="14" lengthAdjust="spacing" textLength="42" x="368" y="41.5332">サーバ</text></g><!--MD5=[c05fcadc036a699206cfdfa4a4fdb889]
entity controller--><g id="elem_controller"><rect fill="#F1F1F1" height="47.6094" rx="2.5" ry="2.5" style="stroke:#181818;stroke-width:0.5;" width="124" x="657" y="7"/><rect fill="#F1F1F1" height="10" style="stroke:#181818;stroke-width:0.5;" width="15" x="761" y="12"/><rect fill="#F1F1F1" height="2" style="stroke:#181818;stroke-width:0.5;" width="4" x="759" y="14"/><rect fill="#F1F1F1" height="2" style="stroke:#181818;stroke-width:0.5;" width="4" x="759" y="18"/><text fill="#000000" font-family="sans-serif" font-size="14" lengthAdjust="spacing" textLength="84" x="672" y="41.5332">コントローラ</text></g><!--MD5=[4a65e84059005d12693a083370a06717]
entity client--><g id="elem_client"><rect fill="#F1F1F1" height="47.6094" rx="2.5" ry="2.5" style="stroke:#181818;stroke-width:0.5;" width="124" x="7" y="7"/><rect fill="#F1F1F1" height="10" style="stroke:#181818;stroke-width:0.5;" width="15" x="111" y="12"/><rect fill="#F1F1F1" height="2" style="stroke:#181818;stroke-width:0.5;" width="4" x="109" y="14"/><rect fill="#F1F1F1" height="2" style="stroke:#181818;stroke-width:0.5;" width="4" x="109" y="18"/><text fill="#000000" font-family="sans-serif" font-size="14" lengthAdjust="spacing" textLength="84" x="22" y="41.5332">クライアント</text></g><!--MD5=[f871cee9216c95f6226147c412210b94]
reverse link client to server--><g id="link_client_server"><path d="M136.3,31 C201.4,31 297.99,31 352.55,31 " fill="none" id="client-backto-server" style="stroke:#181818;stroke-width:1.0;"/><polygon fill="#181818" points="131.28,31,140.28,35,136.28,31,140.28,27,131.28,31" style="stroke:#181818;stroke-width:1.0;"/><text fill="#000000" font-family="sans-serif" font-size="13" lengthAdjust="spacing" textLength="185" x="149.5" y="24.4951">掴まれたオブジェクトのID/位置</text></g><!--MD5=[73c92b3cd67006b81fc31691cb946df0]
reverse link server to controller--><g id="link_server_controller"><path d="M440.19,31 C496.96,31 593.52,31 656.78,31 " fill="none" id="server-backto-controller" style="stroke:#181818;stroke-width:1.0;"/><polygon fill="#181818" points="435.16,31,444.16,35,440.16,31,444.16,27,435.16,31" style="stroke:#181818;stroke-width:1.0;"/><text fill="#000000" font-family="sans-serif" font-size="13" lengthAdjust="spacing" textLength="185" x="453.5" y="24.4951">掴まれたオブジェクトのID/位置</text></g><!--MD5=[a639fd85fdd8619a1e780575a7fbe7d0]
@startuml 6_grabObject

component サーバ as server
component コントローラ as controller
component クライアント as client

server -l-> client : 掴まれたオブジェクトのID/位置
server <-r- controller : 掴まれたオブジェクトのID/位置

@enduml

PlantUML version 1.2022.7(Tue Aug 23 02:01:30 JST 2022)
(GPL source distribution)
Java Runtime: Java(TM) SE Runtime Environment
JVM: Java HotSpot(TM) 64-Bit Server VM
Default Encoding: MS932
Language: ja
Country: JP
--></g></svg>