<?xml version="1.0" encoding="UTF-8" standalone="no"?>
<!-- Created with Inkscape (http://www.inkscape.org/) -->

<svg
   width="1024"
   height="610.242"
   viewBox="0 0 270.93332 161.45986"
   version="1.1"
   id="svg5"
   inkscape:version="1.2 (dc2aedaf03, 2022-05-15)"
   sodipodi:docname="2.svg"
   xml:space="preserve"
   xmlns:inkscape="http://www.inkscape.org/namespaces/inkscape"
   xmlns:sodipodi="http://sodipodi.sourceforge.net/DTD/sodipodi-0.dtd"
   xmlns:xlink="http://www.w3.org/1999/xlink"
   xmlns="http://www.w3.org/2000/svg"
   xmlns:svg="http://www.w3.org/2000/svg"><sodipodi:namedview
     id="namedview7"
     pagecolor="#eeeeee"
     bordercolor="#eeeeee"
     borderopacity="1"
     inkscape:showpageshadow="0"
     inkscape:pageopacity="1"
     inkscape:pagecheckerboard="true"
     inkscape:deskcolor="#505050"
     inkscape:document-units="px"
     showgrid="false"
     inkscape:zoom="0.52724989"
     inkscape:cx="494.07312"
     inkscape:cy="421.05272"
     inkscape:window-width="1920"
     inkscape:window-height="1017"
     inkscape:window-x="-8"
     inkscape:window-y="-8"
     inkscape:window-maximized="1"
     inkscape:current-layer="svg5" /><defs
     id="defs2"><linearGradient
       inkscape:collect="always"
       id="linearGradient1743"><stop
         style="stop-color:#0054ff;stop-opacity:1;"
         offset="0"
         id="stop1739" /><stop
         style="stop-color:#5fd39f;stop-opacity:1;"
         offset="1"
         id="stop1770" /></linearGradient><linearGradient
       inkscape:collect="always"
       xlink:href="#linearGradient1743"
       id="linearGradient1745"
       x1="32.290321"
       y1="103.96774"
       x2="309.41934"
       y2="103.96774"
       gradientUnits="userSpaceOnUse"
       gradientTransform="matrix(0.97764328,0,0,1.0436321,-31.568415,-27.77408)" /></defs><path
     id="rect1685"
     style="fill:url(#linearGradient1745);stroke-width:4.27609;stroke-opacity:0.114815"
     d="M 30.931349,0 C 30.750266,0.37110651 30.569433,0.74209513 30.388351,1.1132039 20.253268,21.908345 10.127198,42.714047 0,63.515352 H 5.094596 C 8.7110351,56.123767 12.330955,48.733333 15.948635,41.342355 h 29.583319 c 3.669367,7.390848 7.338954,14.782197 11.008416,22.172997 h 5.405727 C 51.606031,42.344536 41.269206,21.171896 30.931349,0 Z m -0.223587,10.869418 c 4.233459,8.600311 8.467243,17.200361 12.700704,25.800671 H 18.14192 c 4.188748,-8.600311 8.377091,-17.20036 12.565842,-25.800671 z m 60.958299,1.300711 v 0.606287 c 0.01992,12.709335 -0.05217,25.42066 0.04672,38.128731 0.244652,5.302407 3.893896,10.201294 8.848269,12.0607 2.15036,0.847256 4.48716,1.107204 6.7851,1.020931 v -4.595961 c -3.11735,0.256885 -6.41366,-0.790405 -8.476803,-3.218947 -1.922979,-2.123408 -2.481956,-5.108286 -2.298564,-7.89062 V 30.875748 H 107.27043 V 26.281562 H 96.570786 V 12.170129 Z m -16.73297,13.091685 c -0.08871,1.61e-4 -0.177875,0.0017 -0.266766,0.0047 -3.467673,-0.0338 -7.256332,1.90643 -8.479168,5.342435 -1.195342,3.403405 0.262382,7.32531 3.026122,9.523755 3.638016,3.416784 8.961261,4.621462 12.06484,8.669034 1.67439,2.235418 1.84645,5.61969 -0.06388,7.776461 -1.878877,2.350636 -4.990743,3.517924 -7.958055,3.140277 -2.409868,-0.157544 -4.641919,-1.477736 -6.015559,-3.451998 -1.022767,-1.280613 -1.484749,-2.905355 -2.44645,-4.21326 -0.56826,-0.478398 -1.259579,0.161285 -1.110835,0.809764 -0.125737,1.88633 -0.07285,3.779481 -0.08281,5.668943 2.08444,3.952666 6.709579,5.915287 11.029126,5.83279 5.702928,0.113729 11.378511,-3.965425 12.59187,-9.626675 0.786482,-3.397202 -0.09012,-7.152872 -2.452952,-9.747341 -3.289111,-4.099711 -8.697608,-5.428073 -12.525619,-8.866005 -1.067282,-0.91999 -1.932274,-2.330628 -1.421978,-3.776141 0.73961,-2.267847 3.661103,-2.987676 5.706213,-2.134726 2.495406,0.850901 3.602887,3.43168 5.102882,5.373193 0.602679,1.188053 0.426327,-0.0825 0.443027,-0.744109 v -6.120258 c -1.736738,-2.116307 -4.38993,-3.465829 -7.140003,-3.460871 z m 89.109579,0.07927 c -0.0972,5.58e-4 -0.1954,0.0027 -0.29279,0.006 -3.42761,0.07308 -6.84388,1.373826 -9.34216,3.742425 V 26.203525 H 149.503 v 37.311868 h 4.90472 c 0.0253,-8.499807 -0.0705,-17.004438 0.0627,-25.501372 0.53431,-4.755512 5.32377,-8.638324 10.10282,-8.010103 2.03481,0.183049 4.01551,1.413738 5.46606,2.783601 0.49848,0.437663 0.94813,0.926605 1.4196,1.392394 0.77421,-0.120127 0.97437,-0.905815 0.86832,-1.57635 -0.0374,-1.389509 0.006,-2.782375 -0.0103,-4.173629 -2.33482,-1.87356 -5.25507,-3.10611 -8.27451,-3.088818 z m -34.49395,0.09405 c -0.31104,-2.79e-4 -0.6221,0.0052 -0.9328,0.01479 -5.45914,0.136144 -10.75851,2.713911 -14.30248,6.857269 -3.60213,3.966387 -5.29183,9.523716 -4.60365,14.828332 1.03365,8.97353 8.94579,16.730115 18.0171,17.268272 4.83124,0.394698 9.88463,-0.8471 13.67077,-3.955956 1.06395,-0.829758 2.01597,-1.789022 2.9297,-2.778871 v -8.289302 c -1.87433,2.736542 -3.69797,5.642839 -6.45859,7.58304 -0.73256,0.495923 -1.55446,1.051363 -2.40209,1.434981 -3.67857,1.714474 -8.19725,2.074415 -11.87615,0.162663 -0.95769,-0.470046 -1.87082,-1.028765 -2.73687,-1.65147 8.06102,-7.956971 16.12012,-15.915423 24.18233,-23.871196 -3.20715,-3.823849 -7.66007,-6.821417 -12.69657,-7.422744 -0.92447,-0.128632 -1.85759,-0.17898 -2.7907,-0.179816 z m -1.05287,4.586497 c 0.14242,-0.0027 0.28511,-0.0025 0.42824,0 3.29553,-0.03235 6.5839,1.078083 9.20612,3.066931 -6.88784,6.840156 -13.77564,13.680779 -20.66348,20.520937 -3.83592,-4.949609 -4.09595,-12.545004 -0.0739,-17.468793 2.63629,-3.440099 6.68808,-6.034808 11.10307,-6.119075 z M 33.672955,98.690715 c -0.374089,-0.0034 -0.748368,9.1e-5 -1.122668,0.0103 -7.370504,0.08631 -14.652156,2.984315 -20.057791,7.997685 -5.3911706,4.78623 -9.320836,11.37597 -10.2678623,18.58081 -1.2993129,8.53871 1.1186272,17.58763 6.6372308,24.25213 5.6465165,7.00173 14.3474625,11.63346 23.4086415,11.74483 6.075904,0.21919 12.243935,-1.25187 17.409642,-4.5031 0.775813,-0.17305 0.613115,-0.88302 0.605106,-1.50418 v -4.67581 c -3.340825,2.36799 -6.957193,4.43799 -10.951637,5.31581 -6.221354,1.46007 -13.013345,0.64658 -18.645878,-2.49909 -6.655296,-3.85919 -11.9205166,-10.5388 -13.319414,-18.13955 -0.7078331,-3.74235 -0.6740564,-7.57074 0.1496492,-11.31423 0.8065684,-3.68892 2.5243388,-7.33457 4.9721558,-10.29507 4.241388,-5.37574 10.488449,-9.3434 17.371786,-10.08391 6.088229,-0.78895 12.430632,0.58812 17.590641,3.93053 0.844406,0.51605 1.656252,1.08136 2.478979,1.63077 0.623115,-1.39978 0.24855,-2.95034 0.353718,-4.42739 7.4e-5,-0.62071 0.184186,-1.3485 -0.601556,-1.51602 C 44.849031,100.35828 39.28428,98.742017 33.672955,98.69036 Z M 255.25327,109.08103 v 0.60569 c 0.0204,12.71005 -0.0531,25.4224 0.0473,38.13109 0.23625,5.20121 3.75509,10.01037 8.56493,11.94774 2.22691,0.92932 4.66932,1.22257 7.06785,1.13212 v -4.60306 c -3.27504,0.30116 -6.73949,-0.92234 -8.77787,-3.57325 -1.76296,-2.15884 -2.15944,-5.05862 -1.99751,-7.7593 2e-5,-5.72519 0,-11.45081 0,-17.17601 h 10.6973 v -4.59359 h -10.6973 v -14.11143 z m -192.55005,1.34565 c -1.80379,3.12426 -3.248523,6.39347 -4.336293,9.74912 -3.355518,1.0877 -6.624433,2.53201 -9.748523,4.33571 l 2.422788,4.19551 c 1.893091,-1.09297 3.844706,-2.0397 5.838708,-2.84217 -1.322193,6.59953 -1.322519,13.40205 -0.0011,20.00161 -1.993268,-0.80236 -3.944496,-1.74839 -5.836925,-2.84098 l -2.422196,4.19669 c 3.123421,1.80331 6.391516,3.24756 9.74616,4.33512 1.087507,3.35546 2.531415,6.62443 4.335102,9.74852 l 4.19729,-2.42338 c -1.092841,-1.89286 -2.038518,-3.8444 -2.840979,-5.83812 6.599992,1.32203 13.402801,1.32203 20.002782,0 -0.802461,1.99405 -1.748561,3.94616 -2.841563,5.8393 l 4.195516,2.4222 c 1.803618,-3.12398 3.248088,-6.39267 4.335698,-9.74794 3.354961,-1.08752 6.623629,-2.53169 9.747342,-4.3351 v 13.20348 h 4.905303 c 0.037,-7.60505 -0.0771,-15.2139 0.0645,-22.81656 0.67513,-6.47735 7.31509,-11.64274 13.76717,-10.647 4.5505,0.53465 8.30876,4.20976 9.61663,8.49926 0.81414,2.60029 0.37594,5.3559 0.48799,8.03081 v 16.93349 h 4.90295 c -0.0364,-7.73702 0.0766,-15.47722 -0.0674,-23.21227 -0.53521,-7.26203 -6.49362,-13.77298 -13.74707,-14.74493 -1.3066,-0.19564 -2.63299,-0.238 -3.95181,-0.17567 -4.15052,0.1542 -8.36967,1.83027 -11.0729,5.06384 v -4.24343 h -4.9053 v 1.39594 c -3.123965,-1.80351 -6.392587,-3.24766 -9.747937,-4.33511 -1.087565,-3.35482 -2.531702,-6.62316 -4.335103,-9.74675 l -4.196706,2.4222 c 1.092646,1.89251 2.038609,3.84416 2.840979,5.83751 -6.599546,-1.32135 -13.402092,-1.32085 -20.001592,0.001 0.802438,-1.99381 1.748081,-3.94576 2.840979,-5.83871 z m 94.38696,11.84067 c -0.33023,0.002 -0.66047,0.0103 -0.99018,0.026 -4.15042,0.15439 -8.36969,1.82992 -11.07289,5.06384 v -4.24343 h -4.90473 v 37.31246 h 4.90473 c 0.037,-7.60504 -0.0766,-15.21389 0.065,-22.81655 0.67618,-6.49018 7.34233,-11.66312 13.80503,-10.6411 4.42122,0.53266 8.08323,4.03359 9.47407,8.16508 0.95667,2.72507 0.47463,5.64994 0.59268,8.47325 v 16.81932 h 4.90236 c -0.0364,-7.73702 0.0773,-15.47722 -0.0669,-23.21226 -0.53522,-7.26203 -6.49422,-13.77299 -13.74766,-14.74493 -0.97995,-0.14673 -1.97094,-0.20694 -2.96164,-0.20171 z m 42.05274,0.0799 c -0.30214,-2.6e-4 -0.60424,0.005 -0.90618,0.0136 -5.41861,0.13909 -10.68568,2.67327 -14.22499,6.77033 -3.62276,3.94571 -5.35397,9.49015 -4.69534,14.79934 0.9785,9.02358 8.92131,16.83923 18.03072,17.38598 4.75431,0.37883 9.72828,-0.79937 13.48976,-3.81576 1.13502,-0.86415 2.14446,-1.87717 3.11366,-2.92084 v -8.27627 c -2.13337,3.17369 -4.34859,6.51816 -7.77764,8.42474 -3.20761,1.86452 -7.18922,2.55698 -10.79548,1.59114 -1.80113,-0.5268 -3.42432,-1.44572 -4.90531,-2.49732 8.06065,-7.95809 16.12291,-15.9154 24.18291,-23.87415 -3.22396,-3.85721 -7.72728,-6.85345 -12.80007,-7.43812 -0.89936,-0.11607 -1.80563,-0.16189 -2.71204,-0.16266 z m 37.81051,0.0757 c -0.26637,0.001 -0.53265,0.007 -0.79912,0.0159 -5.47853,0.13875 -10.77491,2.77351 -14.30486,6.94541 -3.61956,4.031 -5.23656,9.673 -4.509,15.02176 0.83899,6.60507 5.36983,12.51685 11.35622,15.3382 3.92541,1.84542 8.46176,2.09122 12.67645,1.26344 4.05856,-0.77754 7.68521,-3.10614 10.40154,-6.17822 0.21426,-0.80141 0.0213,-1.76378 0.087,-2.6239 v -5.88602 c -2.00448,2.96555 -3.9498,6.18152 -7.11634,8.08936 -4.52936,3.0792 -10.86136,3.26835 -15.48432,0.28096 -4.5184,-2.76606 -7.49196,-8.01449 -7.15953,-13.35135 0.0769,-3.09365 1.20537,-6.18126 3.22191,-8.6093 2.9174,-3.67937 7.58551,-6.06335 12.3322,-5.69141 4.83997,0.28246 9.40779,3.2824 12.09265,7.33047 0.49751,0.49271 0.69192,1.46159 1.45864,1.55505 0.9509,-0.0497 0.58692,-1.25481 0.65479,-1.89458 v -4.91655 c -3.53634,-4.01796 -8.71404,-6.64308 -14.10849,-6.68219 -0.26652,-0.006 -0.53333,-0.008 -0.7997,-0.007 z m -162.895759,0.11594 c 3.965114,1.6e-4 7.929966,0.51275 11.792751,1.53672 2.0474,7.7248 2.047686,15.85897 5.95e-4,23.58372 -7.725318,2.04724 -15.860218,2.04725 -23.585501,-5.9e-4 -2.047755,-7.72526 -2.048122,-15.85964 -5.96e-4,-23.58491 3.862556,-1.02359 7.827877,-1.53511 11.792751,-1.53494 z m 25.439265,1.97324 v 22.7089 l -2.4216,-4.19433 c -1.893059,1.09295 -3.845341,2.03912 -5.839299,2.84157 1.321938,-6.59957 1.322361,-13.402 5.84e-4,-20.0016 1.99358,0.80244 3.94482,1.74882 5.837524,2.84157 z m 99.059214,2.4222 c 3.22164,-0.0408 6.57608,1.0669 9.19489,3.06516 l -20.66349,20.52034 c -3.87,-4.98807 -4.08813,-12.66435 0.0166,-17.5865 2.72798,-3.49618 6.91445,-6.08019 11.45204,-5.999 z"
     inkscape:label="text" /></svg>
