<?xml version="1.0" encoding="UTF-8" standalone="no"?>
<!-- Created with Inkscape (http://www.inkscape.org/) -->

<svg
   width="1280"
   height="720"
   viewBox="0 0 338.66665 190.5"
   version="1.1"
   id="svg5"
   inkscape:version="1.2.1 (9c6d41e410, 2022-07-14)"
   sodipodi:docname="2_1.svg"
   xml:space="preserve"
   xmlns:inkscape="http://www.inkscape.org/namespaces/inkscape"
   xmlns:sodipodi="http://sodipodi.sourceforge.net/DTD/sodipodi-0.dtd"
   xmlns:xlink="http://www.w3.org/1999/xlink"
   xmlns="http://www.w3.org/2000/svg"
   xmlns:svg="http://www.w3.org/2000/svg"><sodipodi:namedview
     id="namedview7"
     pagecolor="#eeeeee"
     bordercolor="#eeeeee"
     borderopacity="1"
     inkscape:showpageshadow="0"
     inkscape:pageopacity="1"
     inkscape:pagecheckerboard="true"
     inkscape:deskcolor="#505050"
     inkscape:document-units="px"
     showgrid="false"
     inkscape:zoom="0.37282197"
     inkscape:cx="355.39751"
     inkscape:cy="262.86005"
     inkscape:window-width="1360"
     inkscape:window-height="705"
     inkscape:window-x="-8"
     inkscape:window-y="-8"
     inkscape:window-maximized="1"
     inkscape:current-layer="svg5" /><defs
     id="defs2"><linearGradient
       inkscape:collect="always"
       id="linearGradient1219"><stop
         style="stop-color:#0054ff;stop-opacity:1;"
         offset="0"
         id="stop1215" /><stop
         style="stop-color:#80ff80;stop-opacity:1;"
         offset="1"
         id="stop1217" /></linearGradient><linearGradient
       inkscape:collect="always"
       xlink:href="#linearGradient1219"
       id="linearGradient1221"
       x1="-908.38702"
       y1="323.61289"
       x2="-36.903137"
       y2="323.61289"
       gradientUnits="userSpaceOnUse" /></defs><rect
     style="fill:url(#linearGradient1221);fill-opacity:1;stroke-width:67.7333;stroke-linecap:round;paint-order:stroke fill markers;stop-color:#000000"
     id="rect1213"
     width="871.48389"
     height="584.77417"
     x="-908.38702"
     y="31.225805"
     transform="matrix(0.25,0,0,0.25,261.87096,16.32258)" /><g
     aria-label="Aster
Connect"
     id="text367"
     style="font-size:67.7333px;line-height:1;font-family:'Poiret One';-inkscape-font-specification:'Poiret One';letter-spacing:2.11667px;stroke-width:0.264583"><path
       id="path454"
       d="m 70.863281,34.701172 c -8.566575,17.593984 -17.137014,35.186091 -25.701172,52.78125 1.091797,0 2.183594,0 3.275391,0 3.159531,-6.458306 6.321827,-12.915261 9.482422,-19.373047 8.834635,0 17.669271,0 26.503906,0 3.205751,6.457672 6.41133,12.915428 9.617188,19.373047 1.182291,0 2.364583,0 3.546875,0 -8.7508,-17.91791 -17.500462,-35.83638 -26.248047,-53.75586 -0.158854,0.32487 -0.317709,0.64974 -0.476563,0.97461 z m 12.226563,30.386719 c -7.923828,0 -15.847657,0 -23.771485,0 3.940756,-8.091797 7.881511,-16.183594 11.822266,-24.275391 3.983073,8.091797 7.966146,16.183594 11.949219,24.275391 z" /><path
       id="path456"
       d="m 111.09961,55.15625 c -2.80095,0.131709 -5.71176,1.874836 -6.47461,4.691406 -0.66964,2.559884 0.34823,5.375981 2.34252,7.074221 2.91915,2.909259 7.17479,3.961613 10.03812,6.936469 1.40921,1.324186 2.22478,3.228816 2.10892,5.169672 -0.0785,2.239128 -1.7449,4.051757 -3.53295,5.159124 -1.92062,1.115078 -4.09464,1.300519 -6.26849,0.872663 -2.70346,-0.527555 -4.73109,-2.729395 -5.77992,-5.178946 -0.30208,-0.546224 -0.60416,-1.092448 -0.90625,-1.638671 -0.13606,1.75312 -0.0954,3.510946 -0.0996,5.267578 1.70874,3.177739 5.43123,4.718136 8.91035,4.714911 3.42875,0.0995 6.83824,-1.50919 8.91066,-4.248555 2.55334,-3.181829 2.74216,-8.154435 0.0962,-11.341774 -1.87068,-2.607623 -4.82275,-4.047354 -7.54426,-5.582199 -1.67451,-0.98657 -3.41664,-2.027705 -4.62255,-3.584444 -1.07122,-1.392579 -0.71857,-3.583152 0.77093,-4.535487 2.0496,-1.567166 5.12296,-0.814279 6.71852,1.056728 0.69852,0.763923 1.22515,1.663115 1.83826,2.493476 0,-1.554037 0,-3.108073 0,-4.66211 -1.59597,-1.890456 -4.03486,-2.918677 -6.50586,-2.664062 z" /><path
       id="path458"
       d="m 129.16406,44.212891 c 0.0137,10.817592 -0.0273,21.636531 0.0204,32.453287 0.10247,3.538833 1.93361,6.959359 4.84741,8.978134 2.22831,1.642015 5.03229,2.324504 7.77279,2.256079 0,-0.984375 0,-1.96875 0,-2.953125 -2.5013,0.107412 -5.05882,-0.742199 -6.8349,-2.542985 -2.02561,-1.936973 -2.74113,-4.696727 -2.58112,-7.40389 0,-5.344532 0,-10.689063 0,-16.033594 3.11589,0 6.23177,0 9.34766,0 0,-0.985026 0,-1.970052 0,-2.955078 -3.11589,0 -6.23177,0 -9.34766,0 0,-4.109375 0,-8.21875 0,-12.328125 -1.07487,0 -2.14974,0 -3.22461,0 0,0.176432 0,0.352864 0,0.529297 z" /><path
       id="path460"
       d="m 163.03906,55.285156 c -4.21937,0.124551 -8.35987,1.905068 -11.29046,4.954466 -3.00543,2.902676 -4.83637,7.000006 -4.81799,11.194182 -0.11848,4.341622 1.68878,8.619012 4.71442,11.706648 2.95299,3.138259 7.14463,5.141191 11.48373,5.14716 3.80591,0.191458 7.70197,-0.908112 10.68026,-3.325302 0.88258,-0.6705 1.66772,-1.457208 2.4195,-2.268951 0,-1.774088 0,-3.548177 0,-5.322265 -1.41516,2.105942 -2.9901,4.172062 -5.14596,5.572417 -2.6819,1.906333 -6.15159,2.694247 -9.44389,2.277192 -2.29133,-0.377628 -4.3707,-1.534693 -6.20312,-2.919922 7.06985,-6.978973 14.13817,-13.959501 21.20898,-20.9375 -2.5453,-2.934312 -5.97237,-5.230116 -9.85744,-5.850042 -1.23447,-0.222228 -2.49599,-0.277375 -3.74803,-0.228083 z m 0.26758,2.935547 c 3.19911,-0.02946 6.37556,1.117492 8.83203,3.164063 -6.29752,6.253255 -12.59505,12.50651 -18.89258,18.759765 -3.62378,-4.256729 -4.21086,-10.958713 -0.99412,-15.60898 1.50252,-2.173991 3.42433,-3.943608 5.80582,-5.120981 1.6264,-0.801055 3.43898,-1.191341 5.24885,-1.193867 z" /><path
       id="path462"
       d="m 195.37305,55.220703 c -3.13201,0.16836 -6.21946,1.61605 -8.22071,4.050781 0,-1.109375 0,-2.21875 0,-3.328125 -1.07552,0 -2.15104,0 -3.22656,0 0,10.513021 0,21.026042 0,31.539063 1.07552,0 2.15104,0 3.22656,0 0.0161,-7.160693 -0.032,-14.323027 0.0239,-21.482705 0.30279,-4.504478 4.74533,-8.300165 9.25377,-7.810925 2.47599,0.181021 4.54472,1.751994 6.19623,3.48951 0.37851,0.294009 0.0782,-1.002932 0.17261,-1.374786 0,-0.89349 0,-1.78698 0,-2.680469 -2.1014,-1.640468 -4.73652,-2.625829 -7.42578,-2.402344 z" /><path
       id="path464"
       d="m 72.759766,102.34766 c -5.794232,0.0776 -11.541681,2.13767 -16.004184,5.84754 -4.753409,3.84601 -8.446577,9.17724 -9.673644,15.22514 -1.353802,6.32889 -0.372717,13.14128 2.849181,18.77024 4.23241,7.43788 12.086287,12.88876 20.676409,13.65592 5.056808,0.45599 10.28658,-0.28039 14.827662,-2.6264 0.784849,-0.38355 1.534738,-0.83213 2.28356,-1.28065 0,-1.26172 0,-2.52343 0,-3.78515 -2.009066,1.38053 -4.180529,2.63475 -6.382663,3.40899 -7.105163,2.56202 -15.527733,1.55454 -21.589017,-3.0488 -3.250895,-2.40665 -6.040497,-5.68693 -7.754882,-9.25668 -2.551871,-5.40092 -2.857841,-11.77449 -1.09785,-17.45815 1.754156,-5.53056 5.771135,-10.19266 10.661218,-13.22858 6.089675,-3.70527 13.940514,-4.18075 20.528428,-1.5496 1.857401,0.73107 3.824171,1.87954 5.566588,3.08411 0.158791,-0.32633 0.02267,-1.19935 0.06818,-1.73567 0,-0.67213 0,-1.34427 0,-2.0164 -4.489532,-2.69327 -9.713936,-4.15897 -14.958984,-4.00586 z" /><path
       id="path466"
       d="m 111.02734,122.94922 c -4.2036,0.13469 -8.25984,2.04461 -11.13309,5.09972 -2.954726,2.90871 -4.717501,6.99327 -4.680933,11.15085 -0.08536,4.2954 1.677055,8.52697 4.651293,11.60561 2.8756,3.14508 7.02456,5.1195 11.30676,5.14571 3.78328,0.19944 7.67386,-0.83247 10.65663,-3.22016 3.79892,-2.94479 6.45272,-7.47713 6.65119,-12.33145 0.30009,-4.21619 -1.13231,-8.52755 -3.99659,-11.65185 -2.61803,-3.03863 -6.297,-5.21875 -10.31606,-5.66892 -1.04023,-0.13667 -2.09126,-0.16838 -3.1392,-0.12951 z m 0.9043,2.9375 c 3.55894,-0.0633 7.04828,1.50921 9.44941,4.11969 2.65116,2.63131 4.10755,6.38636 3.89036,10.11882 -0.14324,6.22649 -5.22507,11.98614 -11.42931,12.75371 -3.84502,0.55639 -7.9093,-0.61129 -10.78083,-3.25094 -3.00207,-2.59444 -4.809141,-6.54194 -4.614603,-10.52594 0.02793,-4.01153 2.150453,-7.79889 5.250713,-10.27012 2.29148,-1.91996 5.24464,-2.97097 8.23426,-2.94522 z" /><path
       id="path468"
       d="m 149.45117,122.95898 c -3.49936,0.13191 -7.04417,1.52906 -9.31407,4.26737 -0.32772,0.37546 -0.62458,0.77707 -0.90663,1.18771 0,-1.57942 0,-3.15885 0,-4.73828 -1.07552,0 -2.15104,0 -3.22656,0 0,10.51302 0,21.02604 0,31.53906 1.07552,0 2.15104,0 3.22656,0 0.0187,-6.34686 -0.0374,-12.69555 0.028,-19.04128 0.25685,-4.60881 3.88972,-8.61093 8.23508,-9.88127 3.45864,-0.99086 7.45381,-0.18746 10.0373,2.38661 1.81554,1.717 3.10364,3.83693 3.50742,6.30948 0.32383,2.3039 0.0932,4.64392 0.16293,6.96279 0,4.42123 0,8.84245 0,13.26367 1.07552,0 2.15104,0 3.22656,0 -0.0207,-6.40154 0.0413,-12.80517 -0.0307,-19.20543 -0.19501,-5.50688 -4.09562,-10.62871 -9.31008,-12.36169 -1.80741,-0.61173 -3.73747,-0.78753 -5.63579,-0.68874 z" /><path
       id="path470"
       d="m 187.05859,122.95898 c -3.49862,0.13211 -7.04277,1.52946 -9.31212,4.26737 -0.32592,0.37578 -0.62538,0.7737 -0.90663,1.18381 0,-1.57813 0,-3.15625 0,-4.73438 -1.07552,0 -2.15104,0 -3.22656,0 0,10.51302 0,21.02604 0,31.53906 1.07552,0 2.15104,0 3.22656,0 0.0187,-6.34686 -0.0374,-12.69555 0.028,-19.04128 0.25216,-4.57677 3.83867,-8.5483 8.13685,-9.8542 3.482,-1.03055 7.52801,-0.23954 10.13484,2.36028 2.35081,2.14144 3.78427,5.27413 3.67104,8.47153 0,6.02123 0,12.04245 0,18.06367 1.07487,0 2.14974,0 3.22461,0 -0.0198,-6.40218 0.0395,-12.8064 -0.0293,-19.20734 -0.18968,-5.28135 -3.7788,-10.20247 -8.67511,-12.12963 -1.98428,-0.79084 -4.14953,-1.0317 -6.27215,-0.91889 z" /><path
       id="path472"
       d="m 225.98047,123.01758 c -4.25264,0.12639 -8.4242,1.93539 -11.35998,5.02635 -2.99378,2.91655 -4.78971,7.02972 -4.75088,11.22227 -0.0911,4.30938 1.71494,8.5439 4.71752,11.60798 2.97591,3.16346 7.2119,5.16997 11.58499,5.14882 3.84077,0.17991 7.75932,-0.98114 10.73522,-3.45033 0.81769,-0.64488 1.55739,-1.38201 2.26258,-2.14689 0,-1.77148 0,-3.54297 0,-5.31445 -1.43196,2.11983 -3.02216,4.20418 -5.20404,5.60494 -1.53134,1.06984 -3.24549,1.76899 -5.10455,2.1099 -1.52771,0.26334 -3.36413,0.37489 -4.87259,0.0136 -2.06395,-0.46695 -3.93708,-1.53972 -5.61179,-2.80659 7.06921,-6.97896 14.13684,-13.95953 21.20703,-20.9375 -2.5647,-2.96152 -6.03331,-5.26672 -9.95604,-5.86675 -1.20278,-0.20853 -2.42886,-0.2552 -3.64747,-0.21137 z m 0.26562,2.9375 c 3.20028,-0.0325 6.3764,1.11536 8.83399,3.16211 -6.29753,6.2539 -12.59505,12.50781 -18.89258,18.76172 -3.63928,-4.27556 -4.21635,-11.01978 -0.95251,-15.67083 2.4745,-3.60358 6.51985,-6.32725 11.0111,-6.253 z" /><path
       id="path474"
       d="m 261.22656,123.08594 c -4.23618,0.1257 -8.37933,1.95088 -11.30138,5.02635 -3.00982,2.93164 -4.78821,7.07536 -4.74906,11.28481 -0.0954,4.31615 1.70148,8.56851 4.7251,11.62658 2.8738,3.0954 6.98641,5.03797 11.23108,5.06217 3.86002,0.20061 7.83664,-0.83957 10.87855,-3.28091 0.87332,-0.66372 1.65381,-1.43841 2.39735,-2.24244 0,-1.80404 0,-3.60807 0,-5.41211 -1.40789,2.12164 -2.96118,4.22904 -5.14473,5.61347 -3.17982,2.23056 -7.34784,2.97268 -11.08472,1.88014 -3.70752,-1.03977 -6.89621,-3.93414 -8.51859,-7.29244 -2.2155,-4.68723 -1.51282,-10.70048 2.03504,-14.55285 2.46033,-2.87983 6.11532,-4.79879 9.94525,-4.77288 4.84262,-0.0887 9.38581,2.80901 11.98354,6.79222 0.28792,0.28052 0.92465,1.6464 0.78421,0.59406 0,-1.60482 0,-3.20964 0,-4.81445 -2.80075,-3.1189 -6.76487,-5.237 -10.98099,-5.47603 -0.73167,-0.0631 -1.46713,-0.0606 -2.20065,-0.0357 z" /><path
       id="path476"
       d="m 280.54688,111.94531 c 0.0148,10.81759 -0.0295,21.63665 0.0221,32.45331 0.0996,3.67171 2.07958,7.20745 5.16847,9.1982 2.16771,1.49727 4.84135,2.09656 7.45009,2.03404 0,-0.98503 0,-1.97005 0,-2.95508 -2.62021,0.12877 -5.29901,-0.83663 -7.08022,-2.79315 -1.33304,-1.40123 -2.11805,-3.2642 -2.27698,-5.11831 -0.1314,-3.27233 -0.02,-6.55375 -0.0569,-9.82955 0,-2.74519 0,-5.49037 0,-8.23555 3.11588,0 6.23177,0 9.34765,0 0,-0.98503 0,-1.97005 0,-2.95508 -3.11588,0 -6.23177,0 -9.34765,0 0,-4.10937 0,-8.21875 0,-12.32812 -1.07552,0 -2.15104,0 -3.22656,0 -10e-6,0.17643 0,0.35286 0,0.52929 z" /></g></svg>
