<?xml version="1.0" encoding="UTF-8" standalone="no"?>
<!-- Created with Inkscape (http://www.inkscape.org/) -->

<svg
   width="1024"
   height="505.27399"
   viewBox="0 0 270.93332 133.68708"
   version="1.1"
   id="svg5"
   inkscape:version="1.2.1 (9c6d41e410, 2022-07-14)"
   sodipodi:docname="2_2.svg"
   xml:space="preserve"
   xmlns:inkscape="http://www.inkscape.org/namespaces/inkscape"
   xmlns:sodipodi="http://sodipodi.sourceforge.net/DTD/sodipodi-0.dtd"
   xmlns:xlink="http://www.w3.org/1999/xlink"
   xmlns="http://www.w3.org/2000/svg"
   xmlns:svg="http://www.w3.org/2000/svg"><sodipodi:namedview
     id="namedview7"
     pagecolor="#eeeeee"
     bordercolor="#eeeeee"
     borderopacity="1"
     inkscape:showpageshadow="0"
     inkscape:pageopacity="1"
     inkscape:pagecheckerboard="true"
     inkscape:deskcolor="#505050"
     inkscape:document-units="px"
     showgrid="false"
     inkscape:zoom="0.26362494"
     inkscape:cx="312.94459"
     inkscape:cy="500.71135"
     inkscape:window-width="1360"
     inkscape:window-height="705"
     inkscape:window-x="-8"
     inkscape:window-y="-8"
     inkscape:window-maximized="1"
     inkscape:current-layer="svg5" /><defs
     id="defs2"><linearGradient
       inkscape:collect="always"
       id="linearGradient1219"><stop
         style="stop-color:#0054ff;stop-opacity:1;"
         offset="0"
         id="stop1215" /><stop
         style="stop-color:#66dc99;stop-opacity:1;"
         offset="1"
         id="stop2779" /></linearGradient><linearGradient
       inkscape:collect="always"
       xlink:href="#linearGradient1219"
       id="linearGradient1221"
       x1="-908.38702"
       y1="323.61288"
       x2="-36.903137"
       y2="323.61288"
       gradientUnits="userSpaceOnUse"
       gradientTransform="matrix(0.31088735,0,0,0.22861315,282.40604,-7.1386305)" /></defs><path
     id="rect1213"
     style="fill:url(#linearGradient1221);fill-opacity:1;stroke-width:18.0573;stroke-linecap:round;paint-order:stroke fill markers;stop-color:#000000"
     d="M 28.59567 0 C 28.422144 0.3548741 28.248298 0.7096604 28.074772 1.0645345 C 18.716993 20.283491 9.355139 39.500723 0 58.720963 L 3.5780761 58.720963 C 7.029419 51.666171 10.483594 44.612655 13.9361 37.558431 L 42.887821 37.558431 C 46.389654 44.612531 49.891691 51.666921 53.39364 58.720963 L 57.267822 58.720963 C 47.708802 39.148164 38.151178 19.574514 28.59567 0 z M 28.378113 7.7406127 L 41.431062 34.257857 L 15.463655 34.257857 C 19.768378 25.418705 24.073391 16.579764 28.378113 7.7406127 z M 91.76029 10.876855 L 91.76029 11.455115 C 91.775255 23.271814 91.730922 35.089878 91.783027 46.905664 C 91.894962 50.771342 93.894874 54.507589 97.077795 56.712817 C 99.511913 58.506487 102.57513 59.252011 105.56875 59.177266 L 105.56875 55.951623 C 102.83643 56.068956 100.04266 55.140604 98.102538 53.173498 C 95.889842 51.057627 95.108283 48.043333 95.283072 45.086137 L 95.283072 27.571443 L 105.49382 27.571443 L 105.49382 24.343217 L 95.283072 24.343217 L 95.283072 10.876855 L 91.76029 10.876855 z M 72.785221 23.367566 C 72.533519 23.369387 72.28069 23.382832 72.027644 23.408907 C 68.967997 23.552781 65.788515 25.456951 64.955208 28.533659 C 64.223719 31.329972 65.335224 34.406264 67.513708 36.261352 C 70.702461 39.439309 75.351152 40.589055 78.47893 43.838667 C 80.018295 45.285154 80.909226 47.365239 80.782665 49.485351 C 80.696915 51.931284 78.876665 53.91154 76.923469 55.121183 C 74.82546 56.339249 72.45097 56.541985 70.076342 56.074613 C 67.1232 55.498333 64.908205 53.092867 63.762516 50.417077 C 63.432535 49.820404 63.102387 49.223677 62.772395 48.627006 C 62.623769 50.542043 62.667946 52.462303 62.663358 54.381176 C 64.529918 57.85241 68.596688 59.535289 72.397131 59.531766 C 76.142562 59.640456 79.866557 57.883077 82.130387 54.890706 C 84.919555 51.415005 85.126138 45.983001 82.235807 42.501281 C 80.192349 39.652819 76.96732 38.080066 73.994449 36.403462 C 72.165291 35.325773 70.262434 34.188457 68.945145 32.487939 C 67.774987 30.966742 68.1604 28.574012 69.787471 27.53372 C 72.026362 25.82181 75.383125 26.644359 77.126041 28.688171 C 77.889077 29.522649 78.46445 30.504983 79.134187 31.412036 L 79.134187 26.319324 C 77.554251 24.447865 75.218378 23.349965 72.785221 23.367566 z M 164.9088 23.44508 C 164.63486 23.445254 164.35995 23.4563 164.08456 23.479187 C 160.66327 23.663097 157.29082 25.244639 155.10474 27.90424 L 155.10474 24.268803 L 151.57989 24.268803 L 151.57989 58.720963 L 155.10474 58.720963 C 155.12233 50.898912 155.06952 43.075121 155.13058 35.254179 C 155.46134 30.33367 160.31417 26.18694 165.23901 26.721366 C 167.94367 26.919105 170.20354 28.635545 172.00759 30.533537 C 172.42106 30.8547 172.09308 29.438017 172.19621 29.031819 L 172.19621 26.103833 C 170.11593 24.47985 167.55681 23.443405 164.9088 23.44508 z M 129.79156 23.531897 C 129.44897 23.530029 129.10615 23.536522 128.76423 23.549984 C 124.15516 23.686038 119.6324 25.631017 116.43114 28.962056 C 113.14812 32.132822 111.14781 36.608185 111.16789 41.189734 C 111.03847 45.932346 113.01287 50.605291 116.31796 53.9781 C 119.54369 57.406207 124.12256 59.593976 128.86242 59.600496 C 133.01984 59.809637 137.27553 58.6086 140.52889 55.96816 C 141.49298 55.235733 142.35092 54.375956 143.17214 53.489241 L 143.17214 47.675643 C 141.62627 49.976087 139.90575 52.232919 137.55078 53.762609 C 134.62117 55.84501 130.83098 56.705886 127.23461 56.250313 C 124.73165 55.837807 122.45994 54.574012 120.45828 53.060843 C 128.18109 45.437296 135.90251 37.811855 143.62637 30.189371 C 140.84599 26.984048 137.10244 24.476246 132.85856 23.799064 C 131.84718 23.616999 130.81933 23.537503 129.79156 23.531897 z M 129.05672 26.756506 C 132.5513 26.724325 136.02084 27.977035 138.70419 30.212626 C 131.82504 37.043429 124.94586 43.874629 118.06669 50.705432 C 114.10822 46.055553 113.46713 38.734557 116.98097 33.654793 C 118.62227 31.280013 120.72126 29.346934 123.3227 28.060819 C 125.09932 27.185779 127.0797 26.759265 129.05672 26.756506 z M 30.683915 74.948396 C 30.504937 74.950177 30.325526 74.954027 30.14648 74.959248 C 23.817095 75.044015 17.539 77.293939 12.664343 81.346455 C 7.4719119 85.547674 3.4374282 91.371521 2.0970296 97.977998 C 0.61819072 104.89143 1.6900299 112.33333 5.2095011 118.48217 C 9.8328147 126.60701 18.412218 132.56108 27.795719 133.39909 C 33.319572 133.8972 39.03217 133.0927 43.992663 130.53002 C 44.85 130.11104 45.669102 129.62108 46.487085 129.13113 L 46.487085 124.9965 C 44.292462 126.50454 41.920423 127.87456 39.5149 128.72031 C 31.753509 131.51896 22.552945 130.41826 15.931844 125.38976 C 12.380698 122.76083 9.3337677 119.17769 7.4610432 115.27823 C 4.6734821 109.37849 4.3390906 102.41617 6.2616332 96.207563 C 8.177802 90.166209 12.565705 85.073591 17.907434 81.757283 C 24.559548 77.709792 33.135535 77.190198 40.331905 80.064363 C 42.360854 80.862955 44.509325 82.117841 46.412671 83.433666 C 46.586128 83.077196 46.437371 82.123513 46.487085 81.537658 L 46.487085 79.334692 C 41.736158 76.484614 36.232244 74.893035 30.683915 74.948396 z M 257.12539 84.865103 C 257.12538 85.057829 257.12539 85.250638 257.12539 85.443363 C 257.14156 97.260061 257.09331 109.07823 257.14968 120.89391 C 257.25848 124.90474 259.42116 128.76726 262.79533 130.94188 C 265.16325 132.57744 268.08365 133.23174 270.93333 133.16345 L 270.93333 129.93574 C 268.07112 130.0764 265.14516 129.02147 263.19944 126.88424 C 261.74329 125.3536 260.88586 123.31873 260.71225 121.29337 C 260.56872 117.71881 260.69003 114.1344 260.64972 110.55604 L 260.64972 101.55969 L 270.86098 101.55969 L 270.86098 98.331982 L 260.64972 98.331982 L 260.64972 84.865103 L 257.12539 84.865103 z M 115.09013 97.446248 C 114.7 97.444238 114.31001 97.453922 113.92121 97.474153 C 110.09865 97.618246 106.2267 99.144145 103.74715 102.13537 C 103.38917 102.5455 103.06462 102.9844 102.75652 103.43296 L 102.75652 98.257051 L 99.232185 98.257051 L 99.232185 132.70921 L 102.75652 132.70921 C 102.77694 125.77616 102.71557 118.84076 102.78701 111.90893 C 103.06758 106.87446 107.03614 102.50293 111.78284 101.11527 C 115.56092 100.0329 119.92545 100.91054 122.74755 103.72235 C 124.73077 105.59793 126.13776 107.91352 126.57884 110.61444 C 126.93258 113.13113 126.68043 115.68713 126.7566 118.22017 L 126.7566 132.70921 L 130.28145 132.70921 C 130.25884 125.71643 130.32651 118.72099 130.24786 111.72961 C 130.03484 105.71411 125.77401 100.1196 120.07794 98.226562 C 118.47379 97.683626 116.78072 97.454997 115.09013 97.446248 z M 155.87369 97.446248 C 155.58287 97.449164 155.29226 97.458751 155.00242 97.474153 C 151.18067 97.618465 147.30887 99.144582 144.82992 102.13537 C 144.4739 102.54585 144.14702 102.98084 143.8398 103.42883 L 143.8398 98.257051 L 140.31495 98.257051 L 140.31495 132.70921 L 143.8398 132.70921 C 143.86022 125.77616 143.79885 118.84076 143.87029 111.90893 C 144.14574 106.90946 148.06347 102.57124 152.75863 101.14473 C 156.56222 100.019 160.98219 100.88293 163.82979 103.72287 C 166.39772 106.06209 167.96357 109.48437 167.83988 112.97708 L 167.83988 132.70921 L 171.36215 132.70921 C 171.34052 125.71573 171.40526 118.71967 171.33011 111.72755 C 171.12291 105.95841 167.20222 100.58286 161.85369 98.477709 C 159.95708 97.721817 157.90936 97.425864 155.87369 97.446248 z M 72.807442 97.446764 C 72.521079 97.447147 72.234756 97.452694 71.948579 97.463301 C 67.356732 97.610431 62.925671 99.696738 59.787048 103.03402 C 56.559425 106.21137 54.634236 110.6731 54.674182 115.21467 C 54.580938 119.90679 56.506071 124.52947 59.755008 127.89245 C 62.896198 131.32801 67.428497 133.48467 72.106192 133.5133 C 76.238898 133.73116 80.488565 132.6039 83.746825 129.99568 C 87.896605 126.77891 90.795731 121.82785 91.012532 116.52519 C 91.340338 111.9196 89.775733 107.21014 86.646907 103.79728 C 83.787074 100.47801 79.768079 98.096642 75.377827 97.604894 C 74.525589 97.492916 73.66654 97.445585 72.807442 97.446764 z M 198.51863 97.521695 C 198.18534 97.520089 197.852 97.526259 197.51921 97.538232 C 192.8738 97.676295 188.31656 99.65241 185.10963 103.02885 C 181.83934 106.21477 179.87787 110.70776 179.92028 115.28754 C 179.82077 119.99492 181.79356 124.6203 185.07346 127.96738 C 188.32421 131.42301 192.95152 133.61495 197.7285 133.59184 C 201.924 133.78837 206.20417 132.52033 209.45491 129.82308 C 210.34813 129.11864 211.15628 128.31353 211.9266 127.47801 L 211.9266 121.67268 C 210.36238 123.98829 208.62559 126.26516 206.24219 127.7953 C 204.56943 128.96395 202.69655 129.72767 200.66579 130.10007 C 198.99698 130.38773 196.9909 130.5092 195.34311 130.11454 C 193.08854 129.60446 191.04263 128.43297 189.21326 127.04909 C 196.93537 119.42556 204.65558 111.80008 212.37877 104.17762 C 209.57719 100.94258 205.78849 98.424158 201.50346 97.768708 C 200.51805 97.597863 199.51848 97.526512 198.51863 97.521695 z M 237.22324 97.596109 C 236.82234 97.591576 236.42137 97.599046 236.02073 97.612646 C 231.39331 97.749955 226.86717 99.743744 223.67523 103.10327 C 220.38744 106.30567 218.44467 110.83244 218.48744 115.43068 C 218.38323 120.14547 220.34651 124.79016 223.6494 128.13068 C 226.78862 131.51196 231.28067 133.63414 235.91738 133.66057 C 240.13391 133.8797 244.47804 132.74364 247.80089 130.07681 C 248.75487 129.35179 249.60764 128.50564 250.41985 127.62735 L 250.41985 121.71505 C 248.88193 124.03265 247.18475 126.33468 244.79953 127.84698 C 241.32602 130.28355 236.77324 131.09455 232.69122 129.90111 C 228.64127 128.76531 225.15807 125.60314 223.38585 121.93468 C 220.96573 116.81453 221.73342 110.24614 225.60897 106.03797 C 228.29652 102.89216 232.28924 100.79603 236.4729 100.82434 C 241.76279 100.72744 246.72541 103.89243 249.56306 108.24352 C 249.87757 108.54995 250.57327 110.04211 250.41985 108.89258 L 250.41985 103.63347 C 247.36043 100.2265 243.02972 97.913027 238.4242 97.65192 C 238.02458 97.617456 237.62415 97.600642 237.22324 97.596109 z M 73.300435 100.67086 C 77.06093 100.71145 80.717554 102.40992 83.258483 105.17239 C 86.154506 108.04673 87.745603 112.14879 87.508353 116.22598 C 87.351883 123.02754 81.800583 129.31897 75.023327 130.15743 C 70.823179 130.76521 66.383531 129.48966 63.246785 126.60622 C 59.967442 123.77216 57.99376 119.46018 58.206266 115.10822 C 58.236775 110.72619 60.555231 106.58874 63.941833 103.88927 C 66.444955 101.79198 69.67089 100.64428 72.936633 100.67241 C 73.058125 100.67026 73.179128 100.66956 73.300435 100.67086 z M 197.80911 100.74682 C 201.30497 100.71132 204.7746 101.96508 207.45917 104.20087 C 200.58 111.03238 193.70084 117.86423 186.82167 124.69575 C 182.84627 120.0253 182.21562 112.65804 185.78091 107.57741 C 188.48395 103.64101 192.90306 100.66571 197.80911 100.74682 z " /></svg>
