<?xml version="1.0" encoding="UTF-8" standalone="no"?>
<!-- Created with Inkscape (http://www.inkscape.org/) -->

<svg
   width="958.20599"
   height="488.82501"
   viewBox="0 0 253.52532 129.33496"
   version="1.1"
   id="svg5"
   inkscape:version="1.2.1 (9c6d41e410, 2022-07-14)"
   sodipodi:docname="withFrame.svg"
   xml:space="preserve"
   inkscape:export-filename="withFrame.png"
   inkscape:export-xdpi="96"
   inkscape:export-ydpi="96"
   xmlns:inkscape="http://www.inkscape.org/namespaces/inkscape"
   xmlns:sodipodi="http://sodipodi.sourceforge.net/DTD/sodipodi-0.dtd"
   xmlns:xlink="http://www.w3.org/1999/xlink"
   xmlns="http://www.w3.org/2000/svg"
   xmlns:svg="http://www.w3.org/2000/svg"><sodipodi:namedview
     id="namedview7"
     pagecolor="#eeeeee"
     bordercolor="#eeeeee"
     borderopacity="1"
     inkscape:showpageshadow="0"
     inkscape:pageopacity="0"
     inkscape:pagecheckerboard="true"
     inkscape:deskcolor="#505050"
     inkscape:document-units="px"
     showgrid="false"
     inkscape:zoom="0.52724988"
     inkscape:cx="363.20539"
     inkscape:cy="339.49747"
     inkscape:window-width="1360"
     inkscape:window-height="705"
     inkscape:window-x="-8"
     inkscape:window-y="-8"
     inkscape:window-maximized="1"
     inkscape:current-layer="svg5" /><defs
     id="defs2"><linearGradient
       inkscape:collect="always"
       id="linearGradient1219"><stop
         style="stop-color:#0054ff;stop-opacity:1;"
         offset="0"
         id="stop1215" /><stop
         style="stop-color:#66dc99;stop-opacity:1;"
         offset="1"
         id="stop2779" /></linearGradient><linearGradient
       inkscape:collect="always"
       xlink:href="#linearGradient1219"
       id="linearGradient1221"
       x1="-908.38702"
       y1="323.61288"
       x2="-36.903137"
       y2="323.61288"
       gradientUnits="userSpaceOnUse"
       gradientTransform="matrix(0.28460128,0,0,0.20928351,258.52812,-6.5350468)" /></defs><g
     id="g876"
     transform="translate(3.3828125,4.8242188)"><path
       id="path314"
       style="fill:#ffffff;fill-opacity:1;stroke-width:16.5305;stroke-linecap:round;paint-order:stroke fill markers;stop-color:#000000"
       d="M 25.703125,-3.8515625 C 16.00294,16.051833 6.3104925,35.964268 -3.3828125,55.873047 c 2.65950521,0 5.3190104,0 7.9785156,0 C 7.7552339,49.414741 10.917531,42.957786 14.078125,36.5 c 7.957031,0 15.914063,0 23.871094,0 3.20575,6.457672 6.41133,12.915428 9.617187,19.373047 2.75,0 5.5,0 8.25,0 C 45.935151,35.641455 36.057057,15.408317 26.177734,-4.8242188 26.019531,-4.5 25.861328,-4.1757813 25.703125,-3.8515625 Z M 81.884766,8.3691406 c 0.0293,11.8785354 -0.08202,23.7599904 0.09674,35.6365234 0.55517,6.131064 5.802894,11.420463 11.908479,12.10983 1.611172,0.245163 3.246573,0.174587 4.869778,0.140365 0,-2.442708 0,-4.885416 0,-7.328125 -2.711697,0.542707 -5.890613,0.09986 -7.78754,-2.087481 -1.765467,-1.918075 -1.719165,-4.688755 -1.631934,-7.12628 0.0081,-4.118755 0.0011,-8.237717 0.0035,-12.356551 3.115885,0 6.231771,0 9.347656,0 0,-2.396485 0,-4.792969 0,-7.189453 -3.115885,0 -6.231771,0 -9.347656,0 0,-4.109375 0,-8.21875 0,-12.3281252 -2.486328,0 -4.972656,-10e-8 -7.458984,0 0,0.1764322 0,0.3528645 0,0.5292968 z M 34.529297,29.244141 c -5.660807,0 -11.321615,0 -16.982422,0 2.815755,-5.779297 5.63151,-11.558594 8.447266,-17.337891 2.845052,5.779297 5.690104,11.558594 8.535156,17.337891 z m 31.703125,-9.958985 c -3.837294,0.03627 -7.823515,2.505767 -8.81836,6.345703 -1.002226,3.764492 0.901053,7.845857 4.004769,10.038306 3.031974,2.563808 7.205392,3.629573 9.688591,6.860132 1.193902,1.648361 0.877354,4.195725 -0.803243,5.400698 -2.539895,2.277496 -7.082664,1.993798 -9.016205,-0.93743 -1.193259,-1.788088 -2.033077,-3.780205 -3.142003,-5.621529 -0.788122,-1.423223 -1.57613,-2.84651 -2.364721,-4.269474 -0.248825,4.408381 -0.622577,8.816564 -0.529297,13.236329 1.993018,4.095899 6.665189,6.342755 11.099609,6.27539 6.021345,0.207766 11.985466,-4.415228 12.822447,-10.468176 0.647506,-3.87048 -1.010431,-7.912242 -3.944221,-10.458472 -3.049344,-2.860743 -7.279591,-4.056317 -10.264944,-6.991321 -0.52497,-0.585343 -0.412643,-1.568323 0.350461,-1.893454 1.518891,-0.856417 3.37541,0.138354 4.208133,1.504783 1.384105,1.856184 2.647958,3.807307 4.023437,5.662109 0.425758,0.494672 1.151656,-0.03066 1.013672,-0.613672 0,-3.346224 0,-6.692448 0,-10.038672 -1.922237,-2.576579 -5.091226,-4.202377 -8.328125,-4.03125 z m 84.320308,0.06836 c -2.2319,0.06584 -4.46408,0.670797 -6.41406,1.728515 0.10591,-0.679741 -0.56551,-1.158286 -1.19414,-0.982422 -2.09935,0 -4.1987,0 -6.29805,0 0,11.92448 0,23.848959 0,35.773438 2.48698,0 4.97396,0 7.46094,0 0.0378,-8.004364 -0.0962,-16.013463 0.0988,-24.0146 0.60291,-3.625834 4.80557,-6.328655 8.31717,-4.952432 1.70883,0.58097 2.7969,2.15145 4.267,3.082957 1.48693,0.613168 3.24264,-0.868259 2.96538,-2.434675 0.005,-1.563041 -0.0164,-3.126076 0.002,-4.689063 -2.5375,-2.177515 -5.81536,-3.64672 -9.20508,-3.511718 z m -32.71093,0.08789 c -8.36472,0.152538 -16.23528,6.577435 -17.82373,14.833722 -1.17713,5.472768 0.41779,11.400837 4.0531,15.636806 3.62896,4.366867 9.28062,7.059868 14.9886,6.79705 4.89233,-0.07624 9.75259,-2.141784 13.05769,-5.77865 0.55223,-0.554304 1.27487,-1.154896 1.06613,-2.028381 0,-4.038281 0,-8.076562 0,-12.114844 -2.15161,2.911188 -3.87656,6.141809 -6.32311,8.82804 -1.83228,2.055056 -4.40672,3.426577 -7.13978,3.775476 -1.19949,0.146372 -2.69092,0.138462 -3.95291,-0.238675 -0.74696,-0.217979 -1.46213,-0.536685 -2.14084,-0.915622 6.91464,-6.826902 13.8299,-13.65317 20.74414,-20.480469 -3.17878,-4.158361 -7.78438,-7.509708 -13.07812,-8.166015 -1.14443,-0.140463 -2.2987,-0.182072 -3.45117,-0.148438 z m 0.30859,7.169922 c 1.91513,-0.007 3.82368,0.46902 5.51367,1.369141 -5.09894,5.032576 -10.17126,10.093305 -15.26172,15.136719 -1.56215,-3.016142 -1.73927,-6.666011 -0.34375,-9.751954 0.929,-1.940151 2.53668,-3.709644 4.36261,-4.948097 1.67934,-1.139209 3.68773,-1.836706 5.72919,-1.805809 z M 27.570312,66.503906 C 19.638357,66.56856 11.907027,70.283892 6.6744016,76.205964 2.0109828,81.2835 -0.80529155,88.084088 -0.78822402,95.003827 -0.92278845,103.45353 2.8997068,111.85744 9.3530232,117.31375 c 5.5667478,4.84935 13.0342058,7.50709 20.4235538,7.02156 5.006596,-0.24216 9.98618,-1.76005 14.192173,-4.49547 1.118568,-1.13189 0.596352,-2.8584 0.705078,-4.27148 0,-1.72201 0,-3.44401 0,-5.16602 -3.769663,2.66398 -7.573717,5.41978 -12.201727,6.27651 -6.258236,1.25941 -13.119043,-0.34857 -17.920152,-4.62722 -4.09071,-3.45999 -7.0322819,-8.44301 -7.6248559,-13.761355 -0.713723,-5.252937 0.5600534,-11.052456 3.8424249,-15.434154 2.150314,-2.951559 4.946311,-5.329313 8.220765,-7.004389 2.787326,-1.381435 5.87062,-2.058616 8.897209,-2.091826 4.318108,-0.07209 8.545385,1.17092 12.158973,3.547822 1.1334,0.728421 2.244502,1.490271 3.357832,2.248913 1.153268,-1.659898 1.419428,-3.742667 1.253906,-5.714844 0.175977,-1.209698 -0.06345,-2.819516 -1.392578,-3.265625 -4.747281,-2.713407 -10.214442,-4.217615 -15.695313,-4.072266 z m 205.697268,9.597656 c 0.0292,11.87789 -0.0819,23.758678 0.0967,35.634578 0.55967,6.19206 5.90688,11.51146 12.07741,12.13744 1.55776,0.21009 3.1339,0.14306 4.70093,0.11861 0,-2.43099 0,-4.86198 0,-7.29297 -2.64346,0.41182 -5.738,0.13759 -7.63805,-1.96461 -1.50846,-1.58909 -1.92922,-3.86659 -1.76234,-5.94555 -0.005,-4.5664 -0.009,-9.13281 -0.0137,-13.699216 3.11588,0 6.23177,0 9.34765,0 0,-2.396485 0,-4.792969 0,-7.189453 -3.11588,0 -6.23177,0 -9.34765,0 0,-4.109375 0,-8.21875 0,-12.328125 -2.48698,0 -4.97396,0 -7.46094,0 0,0.176432 0,0.352864 0,0.529296 z M 65.974609,87.103516 c -8.753267,0.152993 -16.778045,7.335868 -17.886297,16.022394 -0.897782,6.332 1.808031,12.97089 6.749192,16.99995 3.569528,3.00527 8.306098,4.54924 12.962019,4.22247 4.676946,-0.20538 9.268874,-2.24365 12.427456,-5.72406 4.29614,-4.46135 6.27097,-11.12299 4.766421,-17.17203 -1.805274,-7.734767 -8.989476,-13.908258 -16.952994,-14.329003 -0.687086,-0.05167 -1.377529,-0.04272 -2.065797,-0.01972 z m 38.212891,0.0098 c -2.82073,0.132782 -5.640832,0.943715 -8.001953,2.513672 0,-0.598307 0,-1.196614 0,-1.794922 -2.486979,0 -4.973958,0 -7.460938,0 0,11.924479 0,23.848964 0,35.773434 2.48698,0 4.973959,0 7.460938,0 0.05341,-7.26855 -0.119024,-14.54297 0.119413,-21.80737 0.52912,-3.26662 3.186536,-6.089843 6.37273,-7.112385 3.18161,-1.103582 6.92906,-2.49e-4 9.04106,2.613118 1.57079,1.844471 2.34876,4.175247 2.21202,6.598817 -0.0296,6.56924 -0.007,13.13855 -0.009,19.70782 2.48697,0 4.97395,0 7.46093,0 -0.0585,-7.5551 0.13283,-15.11671 -0.13801,-22.66722 -0.8417,-7.354599 -7.48713,-13.652779 -14.93926,-13.811025 -0.70502,-0.04098 -1.41245,-0.0387 -2.11804,-0.01394 z m 37.65234,0.002 c -2.83582,0.118879 -5.67132,0.931428 -8.04492,2.509766 0,-0.597656 0,-1.195312 0,-1.792969 -2.48698,0 -4.97396,0 -7.46094,0 0,11.924479 0,23.848957 0,35.773437 2.48698,0 4.97396,0 7.46094,0 0.0534,-7.2679 -0.11892,-14.54165 0.11934,-21.80544 0.8204,-5.033206 6.48649,-8.740796 11.40831,-7.172749 3.94562,1.173173 6.53889,5.373329 6.22807,9.415289 -0.049,6.52088 -0.004,13.04193 -0.0194,19.5629 2.48633,0 4.97266,0 7.45898,0 -0.0528,-7.54599 0.1286,-15.09841 -0.13403,-22.63988 -0.8232,-7.338568 -7.42762,-13.631779 -14.85681,-13.833609 -0.71876,-0.05755 -1.43956,-0.02655 -2.15955,-0.01675 z m 38.94141,0.05859 c -8.32609,0.158883 -16.16566,6.516474 -17.79923,14.725214 -1.19478,5.41561 0.31287,11.29693 3.86226,15.54217 3.6025,4.44462 9.27312,7.24028 15.0315,6.99779 4.96355,-0.0303 9.89709,-2.1386 13.24079,-5.82916 0.70927,-0.59375 1.19708,-1.48186 1.00843,-2.42546 0,-3.86094 0,-7.72188 0,-11.58282 -2.19305,2.92294 -3.95919,6.16931 -6.43621,8.87314 -2.30845,2.52921 -5.7821,3.97388 -9.24147,3.70927 -1.31646,-0.0956 -2.68997,-0.51134 -3.87896,-1.21522 6.91463,-6.8269 13.8299,-13.65317 20.74414,-20.480471 -3.19855,-4.176584 -7.83487,-7.548726 -13.16356,-8.174962 -1.11678,-0.13581 -2.24345,-0.170332 -3.36769,-0.139491 z m 35.9043,0.05859 c -8.53887,-0.144406 -16.72708,6.329513 -18.38915,14.736274 -1.22962,5.57225 0.35746,11.65266 4.11844,15.93823 3.46987,4.10884 8.75739,6.72239 14.17364,6.59954 4.682,0.0689 9.42711,-1.58072 12.84121,-4.83264 0.71922,-0.69215 1.55988,-1.41758 1.85443,-2.39022 0.20025,-1.77465 0.002,-3.56553 0.0792,-5.34728 0,-2.45274 0,-4.90547 0,-7.35821 -2.13663,2.83441 -3.82876,5.98904 -6.14844,8.68555 -2.87487,3.39255 -7.82331,4.93169 -12.06836,3.47656 -4.89215,-1.62728 -8.36825,-6.83762 -7.74357,-11.99791 0.43384,-5.16039 4.80532,-9.650701 9.94721,-10.239001 3.87531,-0.566856 7.71944,1.397116 10.21664,4.277314 0.82566,0.865025 1.38664,1.888807 2.09144,2.795537 1.08306,1.12195 3.36652,0.62538 3.59783,-1.0121 0.27153,-1.411928 0.0107,-2.857362 0.10725,-4.283988 -0.0505,-0.759082 0.0975,-1.594048 -0.0667,-2.30963 -3.57625,-4.225997 -9.03078,-6.924567 -14.611,-6.738026 z M 67.160156,94.265625 c 2.755544,0.05574 5.594959,1.409892 7.540024,3.458437 3.073598,3.044308 4.167681,7.893578 2.630623,11.945768 -1.378344,3.88332 -4.977557,6.93564 -9.108147,7.40048 -3.512085,0.4859 -7.097057,-0.79101 -9.566185,-3.35321 -2.298628,-2.36313 -3.525529,-5.60505 -3.239625,-8.89749 0.468638,-5.793895 5.870785,-10.827895 11.74331,-10.553985 z m 113.933594,0.08008 c 1.90935,-0.0059 3.81772,0.468096 5.50391,1.363281 -5.083,5.044644 -10.15642,10.098974 -15.25977,15.123044 -2.07775,-3.90158 -1.65278,-9.11903 1.43775,-12.379226 2.07108,-2.391021 5.08527,-4.15745 8.31811,-4.107099 z"
       inkscape:label="back" /><path
       id="rect1213"
       style="fill:url(#linearGradient1221);fill-opacity:1;stroke-width:16.5305;stroke-linecap:round;paint-order:stroke fill markers;stop-color:#000000"
       d="M 26.177856,0 C 26.019002,0.32486887 25.859855,0.64965737 25.701001,0.97452624 17.134438,18.568486 8.5641456,36.160868 0,53.756003 H 3.2755435 C 6.4350693,47.297706 9.5971877,40.840577 12.757778,34.3828 H 39.26158 c 3.205747,6.457663 6.411681,12.915592 9.617534,19.373203 h 3.546613 C 43.674939,35.838118 34.925429,17.919455 26.177856,0 Z M 25.978694,7.0861303 37.927993,31.361295 H 14.156176 C 18.096927,23.269509 22.037944,15.177916 25.978694,7.0861303 Z m 58.023103,2.8710675 v 0.5293672 c 0.0137,10.817576 -0.02688,21.636402 0.02081,32.453143 0.102471,3.538828 1.933287,6.959169 4.847086,8.977941 2.228309,1.642012 5.032526,2.324501 7.77303,2.256075 v -2.952909 c -2.501298,0.107412 -5.058849,-0.742446 -6.834931,-2.54323 -2.025608,-1.93697 -2.741085,-4.6964 -2.581075,-7.40356 V 25.240229 h 9.347411 V 22.284955 H 87.226721 V 9.9571978 Z M 66.631103,21.391797 c -0.23042,0.0017 -0.461872,0.01398 -0.693523,0.03785 -2.800948,0.131709 -5.711599,1.874878 -6.474449,4.691445 -0.66964,2.55988 0.347885,5.376066 2.342175,7.074303 2.919138,2.909255 7.174774,3.961788 10.038093,6.93664 1.409209,1.324184 2.22481,3.228394 2.10895,5.169247 -0.0785,2.239125 -1.744844,4.051947 -3.532894,5.159312 -1.920619,1.115077 -4.094342,1.300671 -6.268191,0.872816 -2.703448,-0.527554 -4.731162,-2.729634 -5.779981,-5.179181 -0.30208,-0.546224 -0.604314,-1.092496 -0.906404,-1.638718 -0.13606,1.753118 -0.09562,3.511016 -0.09982,5.267645 1.708739,3.177735 5.431657,4.718324 8.910766,4.715099 3.428748,0.0995 6.837872,-1.50929 8.910292,-4.24865 2.553339,-3.181825 2.742455,-8.154543 0.09651,-11.341878 -1.87068,-2.607619 -4.823027,-4.047393 -7.544536,-5.582238 -1.6745,-0.986568 -3.416467,-2.027722 -4.622377,-3.584458 -1.071219,-1.392577 -0.718393,-3.582998 0.771106,-4.535331 2.049589,-1.567165 5.122532,-0.814164 6.718081,1.05684 0.69852,0.763921 1.225244,1.663197 1.838354,2.493557 v -4.662114 c -1.44635,-1.713224 -3.584721,-2.718295 -5.81215,-2.702182 z m 84.334367,0.07096 c -0.25078,1.6e-4 -0.50244,0.01027 -0.75455,0.03122 -3.13201,0.16836 -6.21931,1.616179 -8.22056,4.050907 v -3.328055 h -3.22682 v 31.53917 h 3.22682 c 0.0161,-7.160683 -0.0322,-14.322959 0.0237,-21.482627 0.30279,-4.504471 4.74531,-8.300588 9.25374,-7.811348 2.47598,0.181019 4.54477,1.752331 6.19629,3.489845 0.37851,0.294008 0.0783,-1.002892 0.17267,-1.374745 v -2.68042 c -1.90439,-1.486672 -4.24713,-2.435484 -6.67125,-2.433951 z m -32.14801,0.07948 c -0.31363,-0.0017 -0.62746,0.0042 -0.94047,0.01656 -4.21937,0.12455 -8.35972,1.905078 -11.29031,4.954471 -3.00543,2.902673 -4.83661,6.999636 -4.81823,11.193807 -0.11848,4.341616 1.68898,8.619455 4.71462,11.707087 2.95299,3.138254 7.14471,5.141044 11.48381,5.147013 3.8059,0.191457 7.70176,-0.90803 10.68005,-3.325216 0.88257,-0.670499 1.66797,-1.45758 2.41975,-2.269322 v -5.322048 c -1.41516,2.105937 -2.99021,4.17195 -5.14606,5.572302 -2.68191,1.90633 -6.15163,2.694418 -9.44392,2.277364 -2.29133,-0.377628 -4.37096,-1.534566 -6.20338,-2.919794 7.06983,-6.978963 14.13839,-13.95966 21.20919,-20.937649 -2.5453,-2.934308 -5.97232,-5.230071 -9.85737,-5.849996 -0.92587,-0.166671 -1.86681,-0.239445 -2.80768,-0.244577 z m -0.67271,2.951962 c 3.19911,-0.02946 6.37529,1.117332 8.83176,3.163899 -6.29751,6.253247 -12.59504,12.506857 -18.89257,18.760104 -3.62377,-4.256724 -4.21065,-10.958717 -0.99392,-15.608978 1.50253,-2.173988 3.42405,-3.943622 5.80553,-5.120993 1.6264,-0.801054 3.43934,-1.191506 5.2492,-1.194032 z M 28.089536,68.611378 c -0.163845,0.0016 -0.328086,0.0052 -0.491994,0.0099 -5.794224,0.0776 -11.541495,2.137289 -16.003991,5.847158 -4.7534024,3.845998 -8.4467634,9.177429 -9.6738289,15.225316 -1.35380049,6.32889 -0.3725872,13.141568 2.8493065,18.770508 4.2324044,7.43788 12.0864044,12.88852 20.6765134,13.65567 5.056802,0.456 10.28639,-0.28048 14.827464,-2.62648 0.784848,-0.38356 1.534693,-0.83209 2.283514,-1.28061 v -3.78504 c -2.009063,1.38053 -4.180542,2.63471 -6.382674,3.40895 -7.105152,2.56202 -15.527792,1.55439 -21.589067,-3.04894 -3.250891,-2.40665 -6.0401977,-5.68683 -7.7545801,-9.25659 C 4.278331,100.13035 3.9722129,93.756703 5.7322011,88.073045 7.4863545,82.542498 11.503253,77.88047 16.393329,74.844561 c 6.089666,-3.705268 13.940538,-4.18093 20.528443,-1.54978 1.857397,0.731069 3.824211,1.879852 5.566626,3.084422 0.158791,-0.32633 0.02261,-1.199377 0.06812,-1.735697 V 72.626805 C 38.207293,70.017706 33.168744,68.560698 28.089536,68.611378 Z M 235.38499,77.68961 c -10e-6,0.17643 0,0.352937 0,0.529367 0.0148,10.817575 -0.0294,21.636497 0.0222,32.453143 0.0996,3.67171 2.07943,7.20764 5.1683,9.19839 2.16771,1.49727 4.84119,2.09625 7.44992,2.03374 v -2.9548 c -2.6202,0.12876 -5.29877,-0.83697 -7.07997,-2.7935 -1.33303,-1.40122 -2.11797,-3.26403 -2.2769,-5.11815 -0.13139,-3.27232 -0.0203,-6.55366 -0.0572,-9.82947 v -8.23569 h 9.34788 v -2.9548 h -9.34788 V 77.68961 Z M 105.35906,89.206997 c -0.35715,-0.0018 -0.71416,0.007 -1.07009,0.02554 -3.49935,0.13191 -7.043924,1.528792 -9.313824,4.267103 -0.327712,0.375453 -0.62482,0.777243 -0.90687,1.187877 V 89.949245 H 90.84193 v 31.539165 h 3.226346 c 0.01869,-6.34684 -0.03749,-12.69584 0.02791,-19.04158 0.256847,-4.608793 3.889859,-8.610703 8.235214,-9.881033 3.45864,-0.990854 7.45414,-0.18742 10.03763,2.386646 1.81553,1.716997 3.10356,3.8368 3.50735,6.309357 0.32383,2.30389 0.093,4.64378 0.16273,6.96265 v 13.26396 h 3.22681 c -0.0207,-6.40152 0.0413,-12.80549 -0.0307,-19.20573 -0.195,-5.506883 -4.09557,-10.628368 -9.31003,-12.361346 -1.46852,-0.49703 -3.01843,-0.706328 -4.56608,-0.714337 z m 37.33524,0 c -0.26623,0.0027 -0.53227,0.01145 -0.79761,0.02554 -3.49861,0.132111 -7.04304,1.529192 -9.31239,4.267103 -0.32592,0.375773 -0.62516,0.773984 -0.90641,1.184096 V 89.94924 h -3.22682 v 31.53917 h 3.22682 c 0.0187,-6.34684 -0.0375,-12.69585 0.0279,-19.04158 0.25216,-4.576757 3.83864,-8.548173 8.13682,-9.854069 3.48199,-1.030548 7.52824,-0.239665 10.13507,2.360153 2.35081,2.141435 3.78427,5.274356 3.67103,8.471756 v 18.06374 h 3.22446 c -0.0198,-6.40217 0.0395,-12.80671 -0.0293,-19.20762 -0.18968,-5.281354 -3.77887,-10.202392 -8.67517,-12.129549 -1.73625,-0.69198 -3.61083,-0.96291 -5.47438,-0.944249 z m -76.042855,4.72e-4 c -0.26215,3.51e-4 -0.524264,0.0054 -0.786245,0.01514 -4.203598,0.13469 -8.260005,2.044596 -11.133252,5.099705 -2.954722,2.908699 -4.717132,6.993186 -4.680564,11.150756 -0.08536,4.29539 1.677,8.52721 4.651233,11.60585 2.875597,3.14508 7.024682,5.11939 11.30687,5.1456 3.783278,0.19944 7.673629,-0.83251 10.656397,-3.2202 3.798909,-2.94479 6.452909,-7.47723 6.651379,-12.33154 C 83.617352,102.4566 82.185037,98.145336 79.320759,95.021039 76.70273,91.982419 73.023548,89.8024 69.004499,89.35223 68.22432,89.24972 67.437905,89.206391 66.651445,89.207469 Z m 115.082085,0.0686 c -0.30511,-0.0015 -0.61026,0.0042 -0.91492,0.01514 -4.25263,0.12639 -8.42455,1.935421 -11.36032,5.026377 -2.99379,2.916545 -4.78941,7.029644 -4.75059,11.222204 -0.0911,4.30936 1.7149,8.54366 4.71747,11.60773 2.9759,3.16345 7.21196,5.17006 11.58504,5.14891 3.84076,0.17991 7.75904,-0.98092 10.73492,-3.45011 0.8177,-0.64488 1.55752,-1.38191 2.2627,-2.14679 v -5.31448 c -1.43196,2.11982 -3.0219,4.20418 -5.20378,5.60494 -1.53132,1.06984 -3.24585,1.76899 -5.1049,2.1099 -1.52771,0.26334 -3.36418,0.37454 -4.87264,0.0132 -2.06394,-0.46695 -3.93687,-1.53939 -5.61156,-2.80626 7.06919,-6.97895 14.13664,-13.95968 21.20682,-20.937655 -2.5647,-2.961511 -6.03306,-5.266996 -9.95578,-5.867027 -0.90209,-0.1564 -1.81715,-0.221718 -2.73246,-0.226127 z m 35.43207,0.06812 c -0.367,-0.0042 -0.73407,0.0027 -1.10084,0.01514 -4.23616,0.125699 -8.37961,1.950909 -11.30166,5.026382 -3.0098,2.931631 -4.78831,7.075649 -4.74916,11.285099 -0.0954,4.31615 1.70189,8.56812 4.72551,11.6262 2.87379,3.09538 6.98603,5.03813 11.2307,5.06232 3.86002,0.20061 7.83684,-0.8394 10.87874,-3.28074 0.87332,-0.66372 1.65399,-1.43833 2.39752,-2.24236 v -5.4124 c -1.40788,2.12164 -2.96156,4.22903 -5.14511,5.61346 -3.17982,2.23056 -7.34765,2.97299 -11.08453,1.88045 -3.70752,-1.03976 -6.89621,-3.93457 -8.51859,-7.29285 -2.21549,-4.68723 -1.51271,-10.70025 2.03516,-14.552613 2.46031,-2.879827 6.11544,-4.798725 9.94536,-4.772809 4.84262,-0.08871 9.38564,2.808678 11.98337,6.791875 0.28791,0.280521 0.92479,1.646517 0.78434,0.594181 v -4.814443 c -2.80074,-3.118904 -6.76528,-5.236769 -10.98139,-5.475799 -0.36584,-0.03155 -0.73241,-0.04694 -1.09942,-0.05109 z M 67.102755,92.158962 c 3.442538,0.03716 6.789988,1.59202 9.116077,4.120918 2.651159,2.631309 4.107726,6.38653 3.890536,10.11899 -0.14324,6.22648 -5.225168,11.98595 -11.429395,12.75352 -3.845018,0.55639 -7.909286,-0.61131 -10.780815,-3.25095 -3.002068,-2.59443 -4.808872,-6.54183 -4.614334,-10.52582 0.02793,-4.01152 2.150356,-7.799145 5.250615,-10.27037 2.291478,-1.91996 5.244655,-2.97062 8.234274,-2.944869 0.111219,-0.002 0.221991,-0.0026 0.333042,-0.0014 z M 181.084,92.2285 c 3.20028,-0.0325 6.37655,1.115254 8.83413,3.162004 -6.29752,6.253896 -12.59504,12.508096 -18.89256,18.762006 -3.63927,-4.27556 -4.2166,-11.0199 -0.95276,-15.670959 2.47449,-3.60357 6.51996,-6.327303 11.01119,-6.253051 z"
       inkscape:label="front" /></g></svg>
