<?xml version="1.0" encoding="UTF-8" standalone="no"?>
<!-- Created with Inkscape (http://www.inkscape.org/) -->

<svg
   width="1024"
   height="576"
   viewBox="0 0 270.93332 152.4"
   version="1.1"
   id="svg5"
   inkscape:version="1.2.1 (9c6d41e410, 2022-07-14)"
   sodipodi:docname="title.svg"
   xml:space="preserve"
   xmlns:inkscape="http://www.inkscape.org/namespaces/inkscape"
   xmlns:sodipodi="http://sodipodi.sourceforge.net/DTD/sodipodi-0.dtd"
   xmlns:xlink="http://www.w3.org/1999/xlink"
   xmlns="http://www.w3.org/2000/svg"
   xmlns:svg="http://www.w3.org/2000/svg"><sodipodi:namedview
     id="namedview7"
     pagecolor="#eeeeee"
     bordercolor="#eeeeee"
     borderopacity="1"
     inkscape:showpageshadow="0"
     inkscape:pageopacity="0"
     inkscape:pagecheckerboard="true"
     inkscape:deskcolor="#505050"
     inkscape:document-units="px"
     showgrid="false"
     inkscape:zoom="0.42709299"
     inkscape:cx="330.13888"
     inkscape:cy="487.01338"
     inkscape:window-width="1360"
     inkscape:window-height="705"
     inkscape:window-x="-8"
     inkscape:window-y="-8"
     inkscape:window-maximized="1"
     inkscape:current-layer="layer1" /><defs
     id="defs2"><linearGradient
       inkscape:collect="always"
       id="linearGradient1087"><stop
         style="stop-color:#66dc99;stop-opacity:1"
         offset="0"
         id="stop1083" /><stop
         style="stop-color:#00b06b;stop-opacity:1"
         offset="1"
         id="stop1085" /></linearGradient><linearGradient
       inkscape:collect="always"
       xlink:href="#linearGradient1087"
       id="linearGradient342"
       gradientUnits="userSpaceOnUse"
       gradientTransform="matrix(3.6380295,0,0,3.6380295,-569.17355,-210.80959)"
       x1="167.32896"
       y1="85.870163"
       x2="167.32896"
       y2="98.160881" /></defs><g
     inkscape:label="Layer 1"
     inkscape:groupmode="layer"
     id="layer1"><g
       id="g2448"
       transform="rotate(-15,280.27448,685.79277)"
       style="display:inline"
       inkscape:export-filename="g2448.png"
       inkscape:export-xdpi="96"
       inkscape:export-ydpi="96"><path
         id="path2443"
         style="opacity:1;fill:#1971ff;stroke-width:1.29618;stroke-linecap:round;paint-order:markers fill stroke;stop-color:#000000"
         d="M 44.440563,58.577972 35.749775,64.997783 23.54093,66.086414 16.941577,64.276802 14.981143,83.006641 10.631414,62.62732 0.17619224,55.302887 -2.278101,40.267383 2.5416166,24.897605 9.4745488,19.911198 20.276107,15.735527 l 14.572194,1.861939 10.439606,6.333981 4.072054,16.335937 z"
         sodipodi:nodetypes="ccccccccccccccc"
         transform="matrix(1.9675409,0,0,0.65584696,173.81559,-9.4759079)" /><text
         xml:space="preserve"
         style="font-size:19.05px;line-height:1.25;font-family:'Poiret One';-inkscape-font-specification:'Poiret One';fill:#ffffff;stroke:none;stroke-width:0.529167;stroke-dasharray:none"
         x="181.59732"
         y="23.937557"
         id="text2371"><tspan
           sodipodi:role="line"
           id="tspan2369"
           style="font-style:normal;font-variant:normal;font-weight:normal;font-stretch:normal;font-size:19.05px;font-family:けいふぉんと;-inkscape-font-specification:けいふぉんと;fill:#ffffff;stroke:none;stroke-width:0.529167;stroke-dasharray:none"
           x="181.59732"
           y="23.937557">みんなで</tspan></text></g><image
       preserveAspectRatio="none"
       inkscape:svg-dpi="96"
       width="67.73333"
       height="67.73333"
       style="stroke-width:4;image-rendering:optimizeSpeed"
       xlink:href="../buttons/scissor_on.svg"
       id="image2807"
       x="147.93326"
       y="-31.63875"
       transform="rotate(30)" /><image
       preserveAspectRatio="none"
       inkscape:svg-dpi="96"
       width="67.73333"
       height="67.73333"
       style="stroke-width:4;image-rendering:optimizeSpeed"
       xlink:href="../buttons/rock_on.svg"
       id="image2927"
       x="40.657589"
       y="77.252617"
       transform="rotate(-15)" /><image
       preserveAspectRatio="none"
       inkscape:svg-dpi="96"
       width="67.73333"
       height="67.73333"
       style="stroke-width:4;image-rendering:optimizeSpeed"
       xlink:href="../buttons/paper_on.svg"
       id="image3031"
       x="112.7803"
       y="143.32545"
       transform="rotate(-30)" /><g
       id="g2379"
       transform="matrix(0.99794611,0,0,0.99770133,0.2654833,-15.848327)"
       style="display:inline;stroke-width:1.00218"
       inkscape:export-filename="g2379.png"
       inkscape:export-xdpi="96"
       inkscape:export-ydpi="96"><path
         id="text346"
         style="font-style:normal;font-variant:normal;font-weight:normal;font-stretch:normal;font-size:12.7px;font-family:けいふぉんと;-inkscape-font-specification:けいふぉんと;fill:#ffffff;fill-opacity:1;stroke:#000000;stroke-width:4.24256;stroke-dasharray:none;stroke-opacity:1;paint-order:stroke fill markers"
         d="m 197.16572,99.372689 c -0.31578,2.849781 -0.6396,5.698651 -0.95923,8.547951 -3.81328,0.19245 -7.62695,0.37675 -11.4399,0.57554 0.18227,4.08827 0.37468,8.17607 0.56131,12.26416 -0.76529,-1.03175 -0.76675,-3.74557 -1.08446,-5.44988 -0.26957,-2.56528 -0.39228,-5.14174 -0.52849,-7.71666 -5.01182,0.15389 -10.02365,0.30814 -15.03529,0.46894 0.27431,6.88239 0.82664,13.79923 2.53669,20.49237 -3.62675,-1.94118 -7.24783,-3.89291 -10.87858,-5.82656 -2.40932,2.60028 -4.095,6.91335 -7.9937,7.42529 -2.144,-1.92081 -3.0228,-5.03573 -5.67732,-6.52288 -1.83957,-1.31125 -4.11745,-1.89876 -6.35946,-1.89006 1.50327,-6.17108 3.38482,-12.24037 5.35758,-18.27543 -5.78145,-0.5906 -11.56268,-1.1833 -17.3446,-1.76928 -1.72235,6.99997 -3.20121,14.47612 -4.34148,21.33082 -0.83813,-5.07425 -5.56145,-8.88094 -10.60853,-9.18035 0.87138,-2.05174 2.0767,-5.41801 -0.71058,-6.54419 -3.83492,-0.58045 -7.73099,-1.27481 -11.58199,-1.98244 -0.58507,2.41824 -1.1701,4.83647 -1.755059,7.25474 -1.183305,-2.183 -0.583904,-6.07343 -3.836993,-6.45183 -4.041815,0.67941 -7.956953,2.27381 -11.951509,3.28987 0.71389,2.74381 2.023654,5.8147 2.359044,8.35608 -2.588822,0.82536 -5.157235,1.71232 -7.730813,2.58643 1.490173,4.66035 2.978164,9.32139 4.462262,13.98367 2.424455,-1.01592 4.841089,-2.05076 7.276059,-3.04117 1.862198,6.27167 3.719521,12.54476 5.584957,18.81545 4.692952,-1.09497 9.384372,-2.1965 14.076042,-3.29697 -0.63694,-2.10401 -1.27858,-4.20661 -1.91848,-6.30972 5.89725,-2.52028 12.41853,-5.46785 15.41899,-11.52517 -0.72367,4.66017 -1.4722,9.31641 -2.19562,13.97658 4.93884,1.23675 9.87747,2.47441 14.81504,3.71621 0.65757,-2.94527 0.7077,-6.11549 2.15298,-8.82509 3.31025,5.30948 9.25333,10.04973 15.87764,8.65491 7.83508,-1.01643 14.45796,-6.19895 19.26627,-12.21476 1.221,3.54202 2.97973,6.86147 4.83887,10.10404 5.11886,-3.53783 10.23662,-7.07716 15.35504,-10.61566 -0.61207,5.27693 -1.21412,10.55502 -1.83321,15.83114 5.34558,0.23757 10.69141,0.4696 16.03716,0.70345 1.01203,-9.05527 2.03279,-18.10956 3.04827,-27.16444 1.892,0.0731 4.53091,-0.52507 5.97576,-0.0498 -1.04535,6.61798 -2.08838,13.23956 -3.12645,19.85993 4.93884,1.23675 9.87747,2.47441 14.81504,3.71621 0.64971,-2.94855 0.72007,-6.10577 2.14585,-8.82509 3.27452,5.18008 9.01085,9.92192 15.53049,8.69704 9.54045,-1.05398 16.89407,-8.217 22.30644,-15.61072 -5.11187,-2.74121 -10.22621,-5.47781 -15.34081,-8.21398 -2.33682,2.6633 -4.06706,6.66709 -7.82318,7.50344 -2.21211,-1.61416 -2.85091,-4.74424 -5.32932,-6.1852 -1.88522,-1.60517 -4.41427,-2.30709 -6.86379,-2.29879 1.49552,-6.17323 3.38726,-12.23964 5.35758,-18.27543 -5.78145,-0.59059 -11.56268,-1.1833 -17.3446,-1.76928 -1.1534,4.93142 -2.31528,9.86186 -3.19037,14.85058 -0.0684,-3.08617 -0.14152,-6.17224 -0.20591,-9.25853 -1.71242,-0.27976 -3.43819,-0.35216 -5.14439,0.0145 0.33397,-3.00563 0.6679,-6.01126 1.00187,-9.016925 -5.27463,-0.235744 -10.54919,-0.472179 -15.82401,-0.703449 -0.0662,0.596892 -0.13278,1.193747 -0.199,1.790602 z M 68.022772,98.370813 c -5.460137,1.342869 -11.041274,1.988687 -16.49901,3.360917 1.810429,3.13118 -2.132067,1.5008 -3.868499,1.70227 -3.04252,-0.16916 -6.084677,-0.34525 -9.127524,-0.50852 -1.759242,10.23036 -3.430626,20.66815 -2.437189,31.06535 1.430255,7.25074 9.057202,11.50993 16.061282,11.19971 9.652856,0.27067 17.983471,-5.32065 25.99634,-9.92072 2.94986,-1.16912 2.791569,-5.01204 0.952108,-7.10551 -1.797732,-3.69486 -3.594591,-7.39015 -5.393087,-11.08464 -6.144668,4.49671 -11.750617,10.28362 -19.170706,12.61942 -2.183472,0.3216 -3.354772,-1.92045 -2.663838,-3.77839 0.44384,-4.56456 1.335666,-9.07041 2.322773,-13.54489 0.862322,1.53288 0.38021,5.31549 2.105037,5.39887 5.824594,-1.62314 11.791945,-2.61603 17.72648,-3.73618 -1.392638,-5.36057 -2.792151,-10.71931 -4.185153,-16.079803 -0.606314,0.137517 -1.212664,0.274671 -1.819014,0.412116 z M 194.16719,125.19419 c -1.88701,-1.84721 0.88615,-2.34584 0,0 z" /><text
         xml:space="preserve"
         style="font-style:normal;font-variant:normal;font-weight:normal;font-stretch:normal;font-size:46.203px;font-family:けいふぉんと;-inkscape-font-specification:けいふぉんと;fill:url(#linearGradient342);fill-opacity:1;stroke:#000000;stroke-width:2.12129;stroke-dasharray:none;stroke-opacity:1;paint-order:stroke fill markers"
         x="33.305511"
         y="140.79791"
         id="text340"><tspan
           sodipodi:role="line"
           id="tspan338"
           x="33.305511"
           y="140.79791"
           style="font-style:normal;font-variant:normal;font-weight:normal;font-stretch:normal;font-family:けいふぉんと;-inkscape-font-specification:けいふぉんと;fill:url(#linearGradient342);fill-opacity:1;stroke:#000000;stroke-width:2.12129;stroke-dasharray:none;stroke-opacity:1;paint-order:stroke fill markers">じゃんけん</tspan></text></g></g></svg>
