<?xml version="1.0" encoding="UTF-8" standalone="no"?>
<!-- Created with Inkscape (http://www.inkscape.org/) -->

<svg
   width="1024"
   height="1024"
   viewBox="0 0 270.93333 270.93333"
   version="1.1"
   id="svg5"
   inkscape:version="1.2.1 (9c6d41e410, 2022-07-14)"
   sodipodi:docname="consoleIcon.svg"
   inkscape:export-filename="consoleIcon.png"
   inkscape:export-xdpi="96"
   inkscape:export-ydpi="96"
   xml:space="preserve"
   xmlns:inkscape="http://www.inkscape.org/namespaces/inkscape"
   xmlns:sodipodi="http://sodipodi.sourceforge.net/DTD/sodipodi-0.dtd"
   xmlns:xlink="http://www.w3.org/1999/xlink"
   xmlns="http://www.w3.org/2000/svg"
   xmlns:svg="http://www.w3.org/2000/svg"><sodipodi:namedview
     id="namedview7"
     pagecolor="#ffffff"
     bordercolor="#999999"
     borderopacity="1"
     inkscape:showpageshadow="0"
     inkscape:pageopacity="0"
     inkscape:pagecheckerboard="true"
     inkscape:deskcolor="#d1d1d1"
     inkscape:document-units="px"
     showgrid="false"
     inkscape:zoom="0.25"
     inkscape:cx="-284"
     inkscape:cy="328"
     inkscape:window-width="1360"
     inkscape:window-height="705"
     inkscape:window-x="-8"
     inkscape:window-y="-8"
     inkscape:window-maximized="1"
     inkscape:current-layer="svg5" /><defs
     id="defs2"><linearGradient
       inkscape:collect="always"
       id="linearGradient892"><stop
         style="stop-color:#0054ff;stop-opacity:1;"
         offset="0"
         id="stop888" /><stop
         style="stop-color:#80ff80;stop-opacity:1;"
         offset="1"
         id="stop890" /></linearGradient><linearGradient
       inkscape:collect="always"
       xlink:href="#linearGradient892"
       id="linearGradient323"
       gradientUnits="userSpaceOnUse"
       x1="-4.0000124"
       y1="-3.0000045"
       x2="28.000013"
       y2="29.000021"
       gradientTransform="matrix(8.46666,0,0,8.46666,33.866745,7.5116581)" /><linearGradient
       inkscape:collect="always"
       xlink:href="#linearGradient892"
       id="linearGradient327"
       gradientUnits="userSpaceOnUse"
       x1="-4.0000124"
       y1="-3.0000045"
       x2="28.000013"
       y2="29.000021"
       gradientTransform="matrix(8.46666,0,0,8.46666,33.866745,7.5116581)" /></defs><g
     id="g243"
     transform="translate(0,17.888361)"><path
       d="M 135.46666,27.093312 A 108.37325,108.37325 0 0 0 58.765499,212.03226 13.549407,13.549407 0 1 1 39.583434,231.17368 135.08725,135.08725 0 0 1 1.05e-4,135.46656 C 1.05e-4,60.648379 60.648484,0 135.46666,0 210.28485,0 270.93322,60.648379 270.93322,135.46656 A 135.08725,135.08725 0 0 1 231.3499,231.17368 13.549407,13.549407 0 0 1 212.16783,212.03226 108.37325,108.37325 0 0 0 135.46666,27.093312 Z"
       fill="#ffffff"
       id="path136"
       style="fill:url(#linearGradient323);fill-opacity:1;stroke-width:0.0103352" /><path
       d="m 135.46666,108.37325 a 27.093312,27.093312 0 1 0 0,54.18662 27.093312,27.093312 0 0 0 0,-54.18662 z"
       fill="#ffffff"
       id="path138"
       style="fill:#ffff80;fill-opacity:1;stroke-width:0.0103352" /><path
       d="m 81.280041,135.46656 a 54.186624,54.186624 0 1 1 92.496569,38.30994 13.55419,13.55419 0 0 0 19.16852,19.16852 81.279936,81.279936 0 1 0 -114.94338,0 13.549401,13.549401 0 1 0 19.154972,-19.16852 53.969878,53.969878 0 0 1 -15.876681,-38.30994 z"
       fill="#ffffff"
       id="path140"
       style="fill:url(#linearGradient327);fill-opacity:1;stroke-width:0.0103352" /></g></svg>
