<?xml version="1.0" encoding="UTF-8" standalone="no"?>
<!-- Generator: Adobe Illustrator 25.4.1, SVG Export Plug-In . SVG Version: 6.00 Build 0)  -->

<svg
   version="1.1"
   x="0px"
   y="0px"
   viewBox="0 0 85.56 96.639997"
   xml:space="preserve"
   id="svg359"
   sodipodi:docname="U_Logo_T1_MadeWith_Black_RGB.svg"
   width="85.559998"
   height="96.639999"
   inkscape:version="1.2 (dc2aedaf03, 2022-05-15)"
   xmlns:inkscape="http://www.inkscape.org/namespaces/inkscape"
   xmlns:sodipodi="http://sodipodi.sourceforge.net/DTD/sodipodi-0.dtd"
   xmlns="http://www.w3.org/2000/svg"
   xmlns:svg="http://www.w3.org/2000/svg"><defs
   id="defs363">
	
</defs><sodipodi:namedview
   id="namedview361"
   pagecolor="#505050"
   bordercolor="#eeeeee"
   borderopacity="1"
   inkscape:showpageshadow="0"
   inkscape:pageopacity="0"
   inkscape:pagecheckerboard="0"
   inkscape:deskcolor="#505050"
   showgrid="false"
   inkscape:zoom="3.5915819"
   inkscape:cx="124.59691"
   inkscape:cy="105.2461"
   inkscape:window-width="1920"
   inkscape:window-height="1017"
   inkscape:window-x="-8"
   inkscape:window-y="-8"
   inkscape:window-maximized="1"
   inkscape:current-layer="svg359" />
<style
   type="text/css"
   id="style129">
	.st0{fill:#4C4C4C;}
	.st1{fill:#808080;}
	.st2{display:none;}
	.st3{display:inline;}
	.st4{fill:none;stroke:#ED1C24;stroke-width:0.3175;stroke-miterlimit:10;stroke-dasharray:2.1169;}
	.st5{display:inline;fill:none;stroke:#ED1C24;stroke-width:0.3175;stroke-miterlimit:10;stroke-dasharray:2.1169;}
	.st6{display:inline;fill:none;stroke:#ED1C24;stroke-width:0.3;stroke-miterlimit:10;stroke-dasharray:2;}
	.st7{display:inline;fill:none;stroke:#ED1C24;stroke-width:0.3;stroke-miterlimit:10;stroke-dasharray:1.9999;}
	.st8{fill:none;stroke:#ED1C24;stroke-width:0.3;stroke-miterlimit:10;}
	.st9{fill:#ED1C24;}
	.st10{display:inline;fill:#ED1C24;}
	.st11{display:inline;opacity:0.15;fill:#ED1C24;}
	.st12{display:inline;opacity:0.15;fill:#EA1F27;}
	.st13{display:inline;fill:none;stroke:#ED1C24;stroke-width:0.317;stroke-miterlimit:10;stroke-dasharray:2.1132;}
</style>
<g
   id="g175"
   transform="translate(-178.61,-44.62)">
		
		
		
		
		
		<path
   class="st0"
   d="M 264.17,112.24 V 67.16 L 225.13,44.62 v 17.29 l 15.3,8.83 c 0.55,0.31 0.57,1.17 0,1.48 0,0 -18.18,10.5 -18.18,10.5 -0.55,0.32 -1.2,0.3 -1.71,0 l -18.18,-10.5 c -0.56,-0.3 -0.57,-1.18 0,-1.48 l 15.29,-8.83 V 44.62 l -39.04,22.54 v 45.08 -0.21 0.21 l 14.97,-8.64 V 85.94 c -0.01,-0.63 0.73,-1.08 1.28,-0.74 l 18.18,10.5 c 0.55,0.32 0.86,0.89 0.86,1.48 v 20.99 c 0.01,0.63 -0.73,1.08 -1.28,0.74 l -15.3,-8.83 -14.97,8.64 39.04,22.54 39.04,-22.54 -14.97,-8.64 -15.3,8.83 c -0.54,0.33 -1.3,-0.1 -1.28,-0.74 0,0 0,-20.99 0,-20.99 0,-0.63 0.35,-1.19 0.86,-1.48 l 18.18,-10.5 c 0.54,-0.33 1.3,0.09 1.28,0.74 v 17.66 z"
   id="path141"
   style="display:inline" />
		<path
   d="m 221.39,141.26 39.04,-22.54 -14.97,-8.64 -15.3,8.83 c -0.54,0.33 -1.3,-0.1 -1.28,-0.74 0,0 0,-20.99 0,-20.99 0,-0.63 0.35,-1.19 0.86,-1.48 l 18.18,-10.5 c 0.54,-0.33 1.3,0.09 1.28,0.74 0,0 0,17.66 0,17.66 l 14.97,8.64 V 67.16 l -42.78,24.7 z"
   id="path143"
   style="display:inline" />
		<path
   class="st1"
   d="m 225.13,44.62 v 17.29 l 15.3,8.83 c 0.55,0.31 0.57,1.17 0,1.48 0,0 -18.18,10.5 -18.18,10.5 -0.55,0.32 -1.2,0.3 -1.71,0 l -18.18,-10.5 c -0.56,-0.3 -0.57,-1.18 0,-1.48 0,0 15.29,-8.83 15.29,-8.83 V 44.62 l -39.04,22.54 42.78,24.7 42.78,-24.7 z"
   id="path145"
   style="display:inline" />
		<path
   class="st0"
   d="m 212.63,118.91 -15.3,-8.83 -14.97,8.64 39.04,22.54 v -49.4 l -42.78,-24.7 v 45.08 -0.21 0.21 l 14.97,-8.64 V 85.94 c -0.01,-0.63 0.73,-1.08 1.28,-0.74 0,0 18.18,10.5 18.18,10.5 0.55,0.32 0.86,0.89 0.86,1.48 v 20.99 c 0.01,0.63 -0.73,1.08 -1.28,0.74 z"
   id="path147"
   style="display:inline" />
		
		
	</g>
<g
   id="Guides"
   class="st2">
	<g
   class="st3"
   id="g180">
		<line
   class="st4"
   x1="0"
   y1="67.160004"
   x2="500.85001"
   y2="67.160004"
   id="line178" />
	</g>
	<line
   class="st5"
   x1="0"
   y1="113.6"
   x2="500.85001"
   y2="113.6"
   id="line182" />
	<line
   class="st6"
   x1="178.61"
   y1="185.88"
   x2="178.61"
   y2="0"
   id="line184" />
	<line
   class="st6"
   x1="249.17999"
   y1="185.88"
   x2="249.17999"
   y2="0"
   id="line186" />
	<line
   class="st7"
   x1="330.89001"
   y1="185.87"
   x2="330.89001"
   y2="0"
   id="line188" />
	<line
   class="st7"
   x1="363.10999"
   y1="185.87"
   x2="363.10999"
   y2="0"
   id="line190" />
	<line
   class="st7"
   x1="368.54999"
   y1="185.87"
   x2="368.54999"
   y2="0"
   id="line192" />
	<line
   class="st6"
   x1="441.31"
   y1="185.87"
   x2="441.31"
   y2="0"
   id="line194" />
	<line
   class="st6"
   x1="447.75"
   y1="0"
   x2="447.75"
   y2="185.87"
   id="line196" />
	<line
   class="st6"
   x1="456.23999"
   y1="0"
   x2="456.23999"
   y2="185.87"
   id="line198" />
	<g
   class="st3"
   id="g212">
		<g
   id="g210">
			<line
   class="st8"
   x1="172.62"
   y1="46.34"
   x2="172.62"
   y2="138.41"
   id="line200" />
			<g
   id="g204">
				<rect
   x="171.64"
   y="46.189999"
   class="st9"
   width="1.95"
   height="0.30000001"
   id="rect202" />
			</g>
			<g
   id="g208">
				<rect
   x="171.64"
   y="138.25999"
   class="st9"
   width="1.95"
   height="0.30000001"
   id="rect206" />
			</g>
		</g>
	</g>
	<path
   class="st10"
   d="m 442.38,164.39 h 0.11 c 0.07,-0.01 0.13,-0.02 0.17,-0.05 0.04,-0.02 0.07,-0.06 0.09,-0.12 l 0.45,-1.64 c 0.01,-0.03 0.01,-0.05 0.02,-0.07 0,-0.02 0.01,-0.04 0.01,-0.05 0,-0.04 -0.01,-0.06 -0.04,-0.08 -0.03,-0.01 -0.06,-0.02 -0.12,-0.02 l -0.16,0.01 v -0.05 l 0.04,-0.01 c 0.03,0 0.11,-0.02 0.24,-0.05 0.13,-0.03 0.22,-0.04 0.28,-0.06 l 0.05,-0.01 h 0.03 l 0.02,0.01 c 0,0.01 0,0.01 0,0.02 0,0.01 0,0.01 0,0.02 l -0.54,1.99 c 0,0.01 0,0.02 -0.01,0.03 0,0.01 0,0.02 0,0.03 0,0.04 0.02,0.07 0.06,0.08 0.04,0.01 0.11,0.02 0.23,0.02 v 0.05 h -0.93 z"
   id="path214" />
	<path
   class="st10"
   d="m 444.69,162.26 h 0.16 l -0.84,2.24 h -0.16 z"
   id="path216" />
	<path
   class="st10"
   d="m 445,164.45 c -0.1,-0.03 -0.15,-0.09 -0.15,-0.17 0,-0.04 0.01,-0.08 0.04,-0.1 0.03,-0.02 0.06,-0.04 0.09,-0.04 0.04,0 0.11,0.03 0.19,0.09 0.08,0.06 0.16,0.1 0.22,0.1 0.14,0 0.27,-0.07 0.39,-0.2 0.12,-0.13 0.18,-0.3 0.18,-0.49 0,-0.22 -0.08,-0.38 -0.25,-0.48 -0.09,-0.06 -0.26,-0.11 -0.48,-0.15 v -0.05 l 0.35,-0.73 h 0.85 l -0.08,0.24 h -0.76 l -0.14,0.29 c 0.24,0.04 0.43,0.12 0.56,0.25 0.13,0.13 0.19,0.3 0.19,0.52 0,0.24 -0.1,0.46 -0.29,0.66 -0.2,0.19 -0.44,0.29 -0.72,0.29 -0.07,-0.01 -0.13,-0.02 -0.19,-0.03 z"
   id="path218" />
	<path
   class="st10"
   d="m 443.54,166.26 c -0.1,0.11 -0.18,0.21 -0.25,0.3 -0.11,0.16 -0.2,0.35 -0.27,0.57 -0.06,0.19 -0.1,0.38 -0.13,0.55 -0.02,0.17 -0.04,0.32 -0.04,0.44 0,0.18 0.01,0.33 0.03,0.45 0.02,0.12 0.06,0.27 0.13,0.46 l -0.06,0.02 c -0.12,-0.2 -0.2,-0.4 -0.25,-0.6 -0.05,-0.2 -0.08,-0.4 -0.08,-0.6 0,-0.26 0.04,-0.5 0.13,-0.7 0.13,-0.3 0.38,-0.61 0.73,-0.93 z"
   id="path220" />
	<path
   class="st10"
   d="m 443.55,168.88 c 0.02,-0.03 0.05,-0.04 0.09,-0.04 0.03,0 0.05,0.01 0.07,0.02 0.02,0.01 0.04,0.03 0.06,0.04 l 0.02,0.02 c 0.01,0.01 0.01,0.01 0.02,0.01 0.01,0 0.02,0 0.03,0 0.05,0 0.14,-0.07 0.26,-0.21 0.12,-0.14 0.18,-0.24 0.18,-0.3 0,-0.06 -0.02,-0.18 -0.06,-0.36 -0.04,-0.18 -0.08,-0.33 -0.12,-0.47 -0.05,-0.19 -0.1,-0.33 -0.14,-0.39 -0.04,-0.07 -0.11,-0.1 -0.19,-0.1 -0.01,0 -0.02,0 -0.03,0 -0.01,0 -0.04,0 -0.08,0.01 v -0.05 l 0.44,-0.09 h 0.03 c 0.03,0 0.08,0.12 0.16,0.37 0.07,0.22 0.11,0.38 0.13,0.48 l 0.07,0.39 c 0.11,-0.19 0.2,-0.34 0.25,-0.44 0.1,-0.2 0.16,-0.34 0.16,-0.42 0,-0.02 0,-0.04 -0.01,-0.05 -0.01,-0.02 -0.02,-0.03 -0.05,-0.05 l -0.03,-0.01 c -0.02,-0.01 -0.04,-0.03 -0.06,-0.05 -0.02,-0.02 -0.04,-0.06 -0.04,-0.1 0,-0.03 0.01,-0.06 0.03,-0.08 0.02,-0.02 0.05,-0.03 0.1,-0.03 0.05,0 0.1,0.02 0.13,0.05 0.03,0.03 0.05,0.09 0.05,0.16 0,0.12 -0.06,0.3 -0.19,0.56 -0.1,0.2 -0.21,0.38 -0.33,0.57 -0.15,0.23 -0.28,0.41 -0.39,0.53 -0.17,0.2 -0.31,0.29 -0.43,0.29 -0.04,0 -0.08,-0.01 -0.12,-0.04 -0.04,-0.03 -0.05,-0.06 -0.05,-0.11 0.01,-0.06 0.02,-0.09 0.04,-0.11 z"
   id="path222" />
	<path
   class="st10"
   d="m 445.13,168.98 c 0.11,-0.12 0.2,-0.23 0.26,-0.31 0.1,-0.16 0.19,-0.34 0.25,-0.55 0.06,-0.18 0.1,-0.36 0.13,-0.53 0.03,-0.17 0.04,-0.34 0.04,-0.49 0,-0.19 -0.02,-0.36 -0.05,-0.51 -0.03,-0.15 -0.07,-0.27 -0.11,-0.36 l 0.06,-0.02 c 0.1,0.17 0.18,0.35 0.24,0.56 0.06,0.21 0.09,0.42 0.09,0.63 0,0.24 -0.04,0.46 -0.11,0.64 -0.13,0.34 -0.38,0.67 -0.76,0.99 z"
   id="path224" />
	<path
   class="st10"
   d="m 363.69,164.39 h 0.11 c 0.07,-0.01 0.13,-0.02 0.17,-0.05 0.04,-0.02 0.07,-0.06 0.09,-0.12 l 0.45,-1.64 c 0.01,-0.03 0.01,-0.05 0.02,-0.07 0,-0.02 0.01,-0.04 0.01,-0.05 0,-0.04 -0.01,-0.06 -0.04,-0.08 -0.03,-0.01 -0.06,-0.02 -0.12,-0.02 l -0.16,0.01 v -0.05 l 0.04,-0.01 c 0.03,0 0.11,-0.02 0.24,-0.05 0.13,-0.03 0.22,-0.04 0.28,-0.06 l 0.05,-0.01 h 0.03 l 0.02,0.01 c 0,0.01 0,0.01 0,0.02 0,0.01 0,0.01 0,0.02 l -0.54,1.99 c 0,0.01 0,0.02 -0.01,0.03 0,0.01 0,0.02 0,0.03 0,0.04 0.02,0.07 0.06,0.08 0.04,0.01 0.11,0.02 0.23,0.02 v 0.05 h -0.93 z"
   id="path226" />
	<path
   class="st10"
   d="m 366.01,162.26 h 0.16 l -0.84,2.24 h -0.16 z"
   id="path228" />
	<path
   class="st10"
   d="m 364.86,166.26 c -0.1,0.11 -0.18,0.21 -0.25,0.3 -0.11,0.16 -0.2,0.35 -0.27,0.57 -0.06,0.19 -0.1,0.38 -0.13,0.55 -0.02,0.17 -0.04,0.32 -0.04,0.44 0,0.18 0.01,0.33 0.03,0.45 0.02,0.12 0.06,0.27 0.13,0.46 l -0.06,0.02 c -0.12,-0.2 -0.2,-0.4 -0.25,-0.6 -0.05,-0.2 -0.08,-0.4 -0.08,-0.6 0,-0.26 0.04,-0.5 0.13,-0.7 0.13,-0.3 0.38,-0.61 0.73,-0.93 z"
   id="path230" />
	<path
   class="st10"
   d="m 364.86,168.88 c 0.02,-0.03 0.05,-0.04 0.09,-0.04 0.03,0 0.05,0.01 0.07,0.02 0.02,0.01 0.04,0.03 0.06,0.04 l 0.02,0.02 c 0.01,0.01 0.01,0.01 0.02,0.01 0.01,0 0.02,0 0.03,0 0.05,0 0.14,-0.07 0.26,-0.21 0.12,-0.14 0.18,-0.24 0.18,-0.3 0,-0.06 -0.02,-0.18 -0.06,-0.36 -0.04,-0.18 -0.08,-0.33 -0.12,-0.47 -0.05,-0.19 -0.1,-0.33 -0.14,-0.39 -0.04,-0.07 -0.11,-0.1 -0.19,-0.1 -0.01,0 -0.02,0 -0.03,0 -0.01,0 -0.04,0 -0.08,0.01 v -0.05 l 0.44,-0.09 h 0.03 c 0.03,0 0.08,0.12 0.16,0.37 0.07,0.22 0.11,0.38 0.13,0.48 l 0.07,0.39 c 0.11,-0.19 0.2,-0.34 0.25,-0.44 0.1,-0.2 0.16,-0.34 0.16,-0.42 0,-0.02 0,-0.04 -0.01,-0.05 -0.01,-0.02 -0.02,-0.03 -0.05,-0.05 l -0.03,-0.01 c -0.02,-0.01 -0.04,-0.03 -0.06,-0.05 -0.02,-0.02 -0.04,-0.06 -0.04,-0.1 0,-0.03 0.01,-0.06 0.03,-0.08 0.02,-0.02 0.05,-0.03 0.1,-0.03 0.05,0 0.1,0.02 0.13,0.05 0.03,0.03 0.05,0.09 0.05,0.16 0,0.12 -0.06,0.3 -0.19,0.56 -0.1,0.2 -0.21,0.38 -0.33,0.57 -0.15,0.23 -0.28,0.41 -0.39,0.53 -0.17,0.2 -0.31,0.29 -0.43,0.29 -0.04,0 -0.08,-0.01 -0.12,-0.04 -0.04,-0.03 -0.05,-0.06 -0.05,-0.11 0.01,-0.06 0.02,-0.09 0.04,-0.11 z"
   id="path232" />
	<path
   class="st10"
   d="m 366.45,168.98 c 0.11,-0.12 0.2,-0.23 0.26,-0.31 0.1,-0.16 0.19,-0.34 0.25,-0.55 0.06,-0.18 0.1,-0.36 0.13,-0.53 0.03,-0.17 0.04,-0.34 0.04,-0.49 0,-0.19 -0.02,-0.36 -0.05,-0.51 -0.03,-0.15 -0.07,-0.27 -0.11,-0.36 l 0.06,-0.02 c 0.1,0.17 0.18,0.35 0.24,0.56 0.06,0.21 0.09,0.42 0.09,0.63 0,0.24 -0.04,0.46 -0.11,0.64 -0.13,0.34 -0.38,0.67 -0.76,0.99 z"
   id="path234" />
	<path
   class="st10"
   d="m 255.46,162.27 c -0.1,0.11 -0.18,0.21 -0.25,0.3 -0.11,0.16 -0.2,0.35 -0.27,0.57 -0.06,0.19 -0.1,0.38 -0.13,0.55 -0.02,0.17 -0.04,0.32 -0.04,0.44 0,0.18 0.01,0.33 0.03,0.45 0.02,0.12 0.06,0.27 0.13,0.46 l -0.06,0.02 c -0.12,-0.2 -0.2,-0.4 -0.25,-0.6 -0.05,-0.2 -0.08,-0.4 -0.08,-0.6 0,-0.26 0.04,-0.5 0.13,-0.7 0.13,-0.3 0.38,-0.61 0.73,-0.93 z"
   id="path236" />
	<path
   class="st10"
   d="m 255.46,164.24 c 0.03,-0.02 0.05,-0.03 0.08,-0.03 0.01,0 0.03,0 0.04,0.01 0.01,0 0.03,0.01 0.04,0.02 l 0.06,0.03 c 0.01,0 0.01,0.01 0.02,0.01 0.01,0 0.01,0 0.02,0 0.03,0 0.05,-0.01 0.06,-0.02 0.01,-0.01 0.05,-0.06 0.11,-0.14 0.04,-0.05 0.13,-0.18 0.27,-0.39 0,-0.01 -0.01,-0.07 -0.04,-0.17 -0.03,-0.11 -0.05,-0.2 -0.07,-0.28 -0.02,-0.08 -0.04,-0.13 -0.06,-0.15 -0.02,-0.02 -0.05,-0.04 -0.09,-0.04 -0.01,0 -0.04,0 -0.09,0.02 -0.03,0.01 -0.06,0.01 -0.09,0.02 l -0.01,-0.05 0.18,-0.06 c 0.05,-0.02 0.09,-0.03 0.13,-0.04 0.04,-0.01 0.07,-0.01 0.1,-0.01 0.05,0 0.08,0.01 0.1,0.04 0.04,0.04 0.06,0.13 0.09,0.26 l 0.03,0.18 c 0.1,-0.15 0.17,-0.25 0.23,-0.31 0.05,-0.05 0.09,-0.1 0.14,-0.12 0.04,-0.03 0.08,-0.04 0.12,-0.04 0.04,0 0.07,0.01 0.09,0.02 0.04,0.02 0.06,0.06 0.06,0.11 0,0.04 -0.01,0.07 -0.03,0.09 -0.02,0.02 -0.05,0.03 -0.08,0.03 -0.01,0 -0.02,0 -0.03,0 -0.01,0 -0.02,-0.01 -0.03,-0.01 l -0.04,-0.02 c -0.01,-0.01 -0.02,-0.01 -0.03,-0.01 -0.01,0 -0.02,0 -0.02,0 -0.05,0 -0.12,0.06 -0.2,0.19 -0.08,0.13 -0.13,0.2 -0.13,0.22 0,0.02 0.01,0.07 0.03,0.16 0.02,0.09 0.04,0.18 0.07,0.28 0.02,0.09 0.04,0.16 0.06,0.19 0.02,0.06 0.05,0.09 0.08,0.09 0.03,0 0.06,-0.02 0.09,-0.05 0.03,-0.03 0.08,-0.09 0.14,-0.17 l 0.04,0.03 c -0.05,0.08 -0.09,0.16 -0.14,0.22 -0.09,0.11 -0.18,0.17 -0.27,0.17 -0.05,0 -0.1,-0.03 -0.13,-0.08 -0.02,-0.03 -0.04,-0.08 -0.05,-0.15 l -0.1,-0.4 -0.33,0.44 c -0.07,0.08 -0.12,0.13 -0.15,0.15 -0.04,0.03 -0.08,0.04 -0.13,0.04 -0.07,0 -0.12,-0.02 -0.14,-0.07 -0.01,-0.02 -0.02,-0.05 -0.02,-0.08 -0.01,-0.08 0,-0.11 0.02,-0.13 z"
   id="path238" />
	<path
   class="st10"
   d="m 257.05,164.99 c 0.11,-0.12 0.2,-0.23 0.26,-0.31 0.1,-0.16 0.19,-0.34 0.25,-0.55 0.06,-0.18 0.1,-0.36 0.13,-0.53 0.03,-0.17 0.04,-0.34 0.04,-0.49 0,-0.19 -0.02,-0.36 -0.05,-0.51 -0.03,-0.15 -0.07,-0.27 -0.11,-0.36 l 0.06,-0.02 c 0.1,0.17 0.18,0.35 0.24,0.56 0.06,0.21 0.09,0.42 0.09,0.63 0,0.24 -0.04,0.46 -0.11,0.64 -0.13,0.34 -0.38,0.67 -0.76,0.99 z"
   id="path240" />
	<path
   class="st10"
   d="m 272.19,164.39 h 0.11 c 0.07,-0.01 0.13,-0.02 0.17,-0.05 0.04,-0.02 0.07,-0.06 0.09,-0.12 l 0.45,-1.64 c 0.01,-0.03 0.01,-0.05 0.02,-0.07 0,-0.02 0.01,-0.04 0.01,-0.05 0,-0.04 -0.01,-0.06 -0.04,-0.08 -0.03,-0.01 -0.06,-0.02 -0.12,-0.02 l -0.16,0.01 v -0.05 l 0.04,-0.01 c 0.03,0 0.11,-0.02 0.24,-0.05 0.13,-0.03 0.22,-0.04 0.28,-0.06 l 0.05,-0.01 h 0.03 l 0.02,0.01 c 0,0.01 0,0.01 0,0.02 0,0.01 0,0.01 0,0.02 l -0.54,1.99 c 0,0.01 0,0.02 -0.01,0.03 0,0.01 0,0.02 0,0.03 0,0.04 0.02,0.07 0.06,0.08 0.04,0.01 0.11,0.02 0.23,0.02 v 0.05 h -0.93 z"
   id="path242" />
	<path
   class="st10"
   d="m 274.11,164.43 c -0.04,-0.04 -0.05,-0.08 -0.05,-0.13 0,-0.05 0.02,-0.09 0.05,-0.13 0.03,-0.04 0.08,-0.05 0.13,-0.05 0.05,0 0.09,0.02 0.13,0.05 0.04,0.03 0.05,0.08 0.05,0.13 0,0.05 -0.02,0.09 -0.05,0.13 -0.04,0.04 -0.08,0.05 -0.13,0.05 -0.05,0 -0.1,-0.02 -0.13,-0.05 z"
   id="path244" />
	<path
   class="st10"
   d="m 274.73,164.45 c -0.1,-0.03 -0.15,-0.09 -0.15,-0.17 0,-0.04 0.01,-0.08 0.04,-0.1 0.03,-0.02 0.06,-0.04 0.09,-0.04 0.04,0 0.11,0.03 0.19,0.09 0.08,0.06 0.16,0.1 0.22,0.1 0.14,0 0.27,-0.07 0.39,-0.2 0.12,-0.13 0.18,-0.3 0.18,-0.49 0,-0.22 -0.08,-0.38 -0.25,-0.48 -0.09,-0.06 -0.26,-0.11 -0.48,-0.15 v -0.05 l 0.35,-0.73 h 0.85 l -0.08,0.24 h -0.76 l -0.14,0.29 c 0.24,0.04 0.43,0.12 0.56,0.25 0.13,0.13 0.19,0.3 0.19,0.52 0,0.24 -0.1,0.46 -0.29,0.66 -0.2,0.19 -0.44,0.29 -0.72,0.29 -0.07,-0.01 -0.14,-0.02 -0.19,-0.03 z"
   id="path246" />
	<path
   class="st10"
   d="m 278.06,162.27 c -0.1,0.11 -0.18,0.21 -0.25,0.3 -0.11,0.16 -0.2,0.35 -0.27,0.57 -0.06,0.19 -0.1,0.38 -0.13,0.55 -0.02,0.17 -0.04,0.32 -0.04,0.44 0,0.18 0.01,0.33 0.03,0.45 0.02,0.12 0.06,0.27 0.13,0.46 l -0.06,0.02 c -0.12,-0.2 -0.2,-0.4 -0.25,-0.6 -0.05,-0.2 -0.08,-0.4 -0.08,-0.6 0,-0.26 0.04,-0.5 0.13,-0.7 0.13,-0.3 0.38,-0.61 0.73,-0.93 z"
   id="path248" />
	<path
   class="st10"
   d="m 278.07,164.24 c 0.03,-0.02 0.05,-0.03 0.08,-0.03 0.01,0 0.03,0 0.04,0.01 0.01,0 0.03,0.01 0.04,0.02 l 0.06,0.03 c 0.01,0 0.01,0.01 0.02,0.01 0.01,0 0.01,0 0.02,0 0.03,0 0.05,-0.01 0.06,-0.02 0.01,-0.01 0.05,-0.06 0.11,-0.14 0.04,-0.05 0.13,-0.18 0.27,-0.39 0,-0.01 -0.01,-0.07 -0.04,-0.17 -0.03,-0.11 -0.05,-0.2 -0.07,-0.28 -0.02,-0.08 -0.04,-0.13 -0.06,-0.15 -0.02,-0.02 -0.05,-0.04 -0.09,-0.04 -0.01,0 -0.04,0 -0.09,0.02 -0.03,0.01 -0.06,0.01 -0.09,0.02 l -0.01,-0.05 0.18,-0.06 c 0.05,-0.02 0.09,-0.03 0.13,-0.04 0.04,-0.01 0.07,-0.01 0.1,-0.01 0.05,0 0.08,0.01 0.1,0.04 0.04,0.04 0.06,0.13 0.09,0.26 l 0.03,0.18 c 0.1,-0.15 0.17,-0.25 0.23,-0.31 0.05,-0.05 0.09,-0.1 0.14,-0.12 0.04,-0.03 0.08,-0.04 0.12,-0.04 0.04,0 0.07,0.01 0.09,0.02 0.04,0.02 0.06,0.06 0.06,0.11 0,0.04 -0.01,0.07 -0.03,0.09 -0.02,0.02 -0.05,0.03 -0.08,0.03 -0.01,0 -0.02,0 -0.03,0 -0.01,0 -0.02,-0.01 -0.03,-0.01 l -0.04,-0.02 c -0.01,-0.01 -0.02,-0.01 -0.03,-0.01 -0.01,0 -0.02,0 -0.02,0 -0.05,0 -0.12,0.06 -0.2,0.19 -0.08,0.13 -0.13,0.2 -0.13,0.22 0,0.02 0.01,0.07 0.03,0.16 0.02,0.09 0.04,0.18 0.07,0.28 0.02,0.09 0.04,0.16 0.06,0.19 0.02,0.06 0.05,0.09 0.08,0.09 0.03,0 0.06,-0.02 0.09,-0.05 0.03,-0.03 0.08,-0.09 0.14,-0.17 l 0.04,0.03 c -0.05,0.08 -0.09,0.16 -0.14,0.22 -0.09,0.11 -0.18,0.17 -0.27,0.17 -0.05,0 -0.1,-0.03 -0.13,-0.08 -0.02,-0.03 -0.04,-0.08 -0.05,-0.15 l -0.1,-0.4 -0.33,0.44 c -0.07,0.08 -0.12,0.13 -0.15,0.15 -0.04,0.03 -0.08,0.04 -0.13,0.04 -0.07,0 -0.12,-0.02 -0.14,-0.07 -0.01,-0.02 -0.02,-0.05 -0.02,-0.08 -0.02,-0.08 0,-0.11 0.02,-0.13 z"
   id="path250" />
	<path
   class="st10"
   d="m 279.65,164.99 c 0.11,-0.12 0.2,-0.23 0.26,-0.31 0.1,-0.16 0.19,-0.34 0.25,-0.55 0.06,-0.18 0.1,-0.36 0.13,-0.53 0.03,-0.17 0.04,-0.34 0.04,-0.49 0,-0.19 -0.02,-0.36 -0.05,-0.51 -0.03,-0.15 -0.07,-0.27 -0.11,-0.36 l 0.06,-0.02 c 0.1,0.17 0.18,0.35 0.24,0.56 0.06,0.21 0.09,0.42 0.09,0.63 0,0.24 -0.04,0.46 -0.11,0.64 -0.13,0.34 -0.38,0.67 -0.76,0.99 z"
   id="path252" />
	<path
   class="st10"
   d="m 346.18,162.27 c -0.1,0.11 -0.18,0.21 -0.25,0.3 -0.11,0.16 -0.2,0.35 -0.27,0.57 -0.06,0.19 -0.1,0.38 -0.13,0.55 -0.02,0.17 -0.04,0.32 -0.04,0.44 0,0.18 0.01,0.33 0.03,0.45 0.02,0.12 0.06,0.27 0.13,0.46 l -0.06,0.02 c -0.12,-0.2 -0.2,-0.4 -0.25,-0.6 -0.05,-0.2 -0.08,-0.4 -0.08,-0.6 0,-0.26 0.04,-0.5 0.13,-0.7 0.13,-0.3 0.38,-0.61 0.73,-0.93 z"
   id="path254" />
	<path
   class="st10"
   d="m 346.19,164.89 c 0.02,-0.03 0.05,-0.04 0.09,-0.04 0.03,0 0.05,0.01 0.07,0.02 0.02,0.01 0.04,0.03 0.06,0.04 l 0.02,0.02 c 0.01,0.01 0.01,0.01 0.02,0.01 0.01,0 0.02,0 0.03,0 0.05,0 0.14,-0.07 0.26,-0.21 0.12,-0.14 0.18,-0.24 0.18,-0.3 0,-0.06 -0.02,-0.18 -0.06,-0.36 -0.04,-0.18 -0.08,-0.33 -0.12,-0.47 -0.05,-0.19 -0.1,-0.33 -0.14,-0.39 -0.04,-0.07 -0.11,-0.1 -0.19,-0.1 -0.01,0 -0.02,0 -0.03,0 -0.01,0 -0.04,0 -0.08,0.01 v -0.05 l 0.44,-0.09 h 0.03 c 0.03,0 0.08,0.12 0.16,0.37 0.07,0.22 0.11,0.38 0.13,0.48 l 0.07,0.39 c 0.11,-0.19 0.2,-0.34 0.25,-0.44 0.1,-0.2 0.16,-0.34 0.16,-0.42 0,-0.02 0,-0.04 -0.01,-0.05 -0.01,-0.02 -0.02,-0.03 -0.05,-0.05 l -0.03,-0.01 c -0.02,-0.01 -0.04,-0.03 -0.06,-0.05 -0.02,-0.02 -0.04,-0.06 -0.04,-0.1 0,-0.03 0.01,-0.06 0.03,-0.08 0.02,-0.02 0.05,-0.03 0.1,-0.03 0.05,0 0.1,0.02 0.13,0.05 0.03,0.03 0.05,0.09 0.05,0.16 0,0.12 -0.06,0.3 -0.19,0.56 -0.1,0.2 -0.21,0.38 -0.33,0.57 -0.15,0.23 -0.28,0.41 -0.39,0.53 -0.17,0.2 -0.31,0.29 -0.43,0.29 -0.04,0 -0.08,-0.01 -0.12,-0.04 -0.04,-0.03 -0.05,-0.06 -0.05,-0.11 0,-0.05 0.01,-0.08 0.04,-0.11 z"
   id="path256" />
	<path
   class="st10"
   d="m 347.77,164.99 c 0.11,-0.12 0.2,-0.23 0.26,-0.31 0.1,-0.16 0.19,-0.34 0.25,-0.55 0.06,-0.18 0.1,-0.36 0.13,-0.53 0.03,-0.17 0.04,-0.34 0.04,-0.49 0,-0.19 -0.02,-0.36 -0.05,-0.51 -0.03,-0.15 -0.07,-0.27 -0.11,-0.36 l 0.06,-0.02 c 0.1,0.17 0.18,0.35 0.24,0.56 0.06,0.21 0.09,0.42 0.09,0.63 0,0.24 -0.04,0.46 -0.11,0.64 -0.13,0.34 -0.38,0.67 -0.76,0.99 z"
   id="path258" />
	<path
   class="st10"
   d="m 163.24,96.35 c 0.03,0.01 0.05,0.02 0.08,0.04 l 0.08,0.05 c 0.04,0.03 0.07,0.05 0.1,0.06 0.04,0.02 0.09,0.03 0.13,0.03 0.11,0 0.21,-0.05 0.29,-0.15 0.09,-0.1 0.13,-0.23 0.13,-0.39 0,-0.18 -0.05,-0.32 -0.14,-0.41 -0.1,-0.09 -0.23,-0.14 -0.41,-0.14 -0.01,0 -0.02,0 -0.02,0 -0.01,0 -0.02,0 -0.04,0 v -0.05 c 0.29,-0.04 0.5,-0.11 0.62,-0.22 0.12,-0.11 0.18,-0.21 0.18,-0.32 0,-0.07 -0.02,-0.14 -0.06,-0.21 -0.04,-0.06 -0.12,-0.1 -0.24,-0.1 -0.07,0 -0.13,0.02 -0.2,0.05 -0.06,0.04 -0.12,0.09 -0.17,0.16 l -0.05,-0.02 c 0.06,-0.12 0.14,-0.2 0.23,-0.26 0.09,-0.05 0.19,-0.08 0.3,-0.08 0.14,0 0.26,0.04 0.35,0.11 0.09,0.07 0.13,0.18 0.13,0.3 0,0.13 -0.05,0.23 -0.16,0.32 -0.07,0.06 -0.19,0.11 -0.36,0.18 v 0.01 c 0.08,0.04 0.14,0.08 0.19,0.13 0.08,0.09 0.12,0.22 0.12,0.38 0,0.22 -0.08,0.41 -0.26,0.58 -0.18,0.17 -0.4,0.26 -0.66,0.26 -0.09,0 -0.17,-0.01 -0.23,-0.03 -0.1,-0.03 -0.15,-0.09 -0.15,-0.18 0,-0.03 0.01,-0.06 0.03,-0.08 0.02,-0.02 0.06,-0.04 0.11,-0.04 0.03,0.01 0.05,0.01 0.08,0.02 z"
   id="path260" />
	<path
   class="st10"
   d="m 165.67,94.46 c -0.1,0.11 -0.18,0.21 -0.25,0.3 -0.11,0.16 -0.2,0.35 -0.27,0.57 -0.06,0.19 -0.1,0.38 -0.13,0.55 -0.02,0.17 -0.04,0.32 -0.04,0.44 0,0.18 0.01,0.33 0.03,0.45 0.02,0.12 0.06,0.27 0.13,0.46 l -0.06,0.02 c -0.12,-0.2 -0.2,-0.4 -0.25,-0.6 -0.05,-0.2 -0.08,-0.4 -0.08,-0.6 0,-0.26 0.04,-0.5 0.13,-0.7 0.13,-0.3 0.38,-0.61 0.73,-0.93 z"
   id="path262" />
	<path
   class="st10"
   d="m 165.68,97.08 c 0.02,-0.03 0.05,-0.04 0.09,-0.04 0.03,0 0.05,0.01 0.07,0.02 0.02,0.01 0.04,0.03 0.06,0.04 l 0.02,0.02 c 0.01,0.01 0.01,0.01 0.02,0.01 0.01,0 0.02,0 0.03,0 0.05,0 0.14,-0.07 0.26,-0.21 0.12,-0.14 0.18,-0.24 0.18,-0.3 0,-0.06 -0.02,-0.18 -0.06,-0.36 -0.04,-0.18 -0.08,-0.33 -0.12,-0.47 -0.05,-0.19 -0.1,-0.33 -0.14,-0.39 -0.04,-0.07 -0.11,-0.1 -0.19,-0.1 -0.01,0 -0.02,0 -0.03,0 -0.01,0 -0.04,0 -0.08,0.01 v -0.05 l 0.44,-0.09 h 0.03 c 0.03,0 0.08,0.12 0.16,0.37 0.07,0.22 0.11,0.38 0.13,0.48 l 0.07,0.39 c 0.11,-0.19 0.2,-0.34 0.25,-0.44 0.1,-0.2 0.16,-0.34 0.16,-0.42 0,-0.02 0,-0.04 -0.01,-0.05 -0.01,-0.02 -0.02,-0.03 -0.05,-0.05 l -0.03,-0.01 c -0.02,-0.01 -0.04,-0.03 -0.06,-0.05 -0.02,-0.02 -0.04,-0.06 -0.04,-0.1 0,-0.03 0.01,-0.06 0.03,-0.08 0.02,-0.02 0.05,-0.03 0.1,-0.03 0.05,0 0.1,0.02 0.13,0.05 0.03,0.03 0.05,0.09 0.05,0.16 0,0.12 -0.06,0.3 -0.19,0.56 -0.1,0.2 -0.21,0.38 -0.33,0.57 -0.15,0.23 -0.28,0.41 -0.39,0.53 -0.17,0.2 -0.31,0.29 -0.43,0.29 -0.04,0 -0.08,-0.01 -0.12,-0.04 -0.04,-0.03 -0.05,-0.06 -0.05,-0.11 0.01,-0.05 0.02,-0.08 0.04,-0.11 z"
   id="path264" />
	<path
   class="st10"
   d="m 167.26,97.18 c 0.11,-0.12 0.2,-0.23 0.26,-0.31 0.1,-0.16 0.19,-0.34 0.25,-0.55 0.06,-0.18 0.1,-0.36 0.13,-0.53 0.03,-0.17 0.04,-0.34 0.04,-0.49 0,-0.19 -0.02,-0.36 -0.05,-0.51 -0.03,-0.15 -0.07,-0.27 -0.11,-0.36 l 0.06,-0.02 c 0.1,0.17 0.18,0.35 0.24,0.56 0.06,0.21 0.09,0.42 0.09,0.63 0,0.24 -0.04,0.46 -0.11,0.64 -0.13,0.34 -0.38,0.67 -0.76,0.99 z"
   id="path266" />
	<line
   class="st7"
   x1="264.17001"
   y1="0"
   x2="264.17001"
   y2="185.88"
   id="line268" />
	<line
   class="st7"
   x1="286.66"
   y1="185.88"
   x2="286.66"
   y2="0"
   id="line270" />
	<path
   class="st10"
   d="m 467.13,177.2 h 0.27 v 0.97 h 1.17 v -0.97 h 0.26 v 2.19 h -0.26 v -0.98 h -1.17 v 0.98 h -0.27 z"
   id="path272" />
	<path
   class="st10"
   d="m 469.24,178.58 c 0,-0.5 0.29,-0.85 0.74,-0.85 0.34,0 0.71,0.21 0.71,0.82 v 0.11 h -1.19 c 0.01,0.35 0.22,0.54 0.51,0.54 0.2,0 0.35,-0.08 0.41,-0.26 l 0.24,0.07 c -0.08,0.25 -0.32,0.41 -0.65,0.41 -0.48,0 -0.77,-0.34 -0.77,-0.84 z m 1.19,-0.15 c 0,-0.28 -0.18,-0.48 -0.45,-0.48 -0.29,0 -0.47,0.23 -0.49,0.48 z"
   id="path274" />
	<path
   class="st10"
   d="m 471.02,177.3 c 0,-0.09 0.08,-0.17 0.18,-0.17 0.1,0 0.18,0.08 0.18,0.17 0,0.09 -0.08,0.17 -0.18,0.17 -0.1,0 -0.18,-0.08 -0.18,-0.17 z m 0.05,0.44 h 0.25 v 1.64 h -0.25 z"
   id="path276" />
	<path
   class="st10"
   d="m 471.77,179.71 0.2,-0.14 c 0.07,0.09 0.17,0.25 0.47,0.25 0.27,0 0.46,-0.12 0.46,-0.4 v -0.33 h -0.02 c -0.06,0.09 -0.16,0.28 -0.48,0.28 -0.4,0 -0.7,-0.29 -0.7,-0.8 0,-0.5 0.29,-0.83 0.7,-0.83 0.32,0 0.42,0.2 0.48,0.28 h 0.03 v -0.26 h 0.24 v 1.69 c 0,0.42 -0.32,0.6 -0.71,0.6 -0.37,-0.02 -0.57,-0.17 -0.67,-0.34 z m 1.13,-1.16 c 0,-0.35 -0.16,-0.6 -0.47,-0.6 -0.32,0 -0.48,0.27 -0.48,0.6 0,0.34 0.16,0.58 0.48,0.58 0.31,0 0.47,-0.21 0.47,-0.58 z"
   id="path278" />
	<path
   class="st10"
   d="m 473.86,179.39 h -0.25 v -2.19 h 0.25 v 0.8 h 0.02 c 0.08,-0.17 0.22,-0.28 0.48,-0.28 0.33,0 0.56,0.2 0.56,0.62 v 1.04 h -0.25 v -1.03 c 0,-0.26 -0.14,-0.41 -0.38,-0.41 -0.25,0 -0.43,0.16 -0.43,0.45 z"
   id="path280" />
	<path
   class="st10"
   d="m 476.09,177.96 h -0.35 v 0.96 c 0,0.21 0.11,0.25 0.22,0.25 0.06,0 0.09,-0.01 0.11,-0.01 l 0.05,0.23 c -0.03,0.01 -0.09,0.03 -0.19,0.03 -0.21,0 -0.44,-0.14 -0.44,-0.42 v -1.03 h -0.25 v -0.21 h 0.25 v -0.39 h 0.25 v 0.39 h 0.35 z"
   id="path282" />
	<path
   class="st10"
   d="m 477.24,178.57 c 0,-0.51 0.3,-0.85 0.74,-0.85 0.44,0 0.74,0.34 0.74,0.85 0,0.51 -0.3,0.85 -0.74,0.85 -0.44,0 -0.74,-0.34 -0.74,-0.85 z m 1.23,0 c 0,-0.33 -0.15,-0.62 -0.49,-0.62 -0.34,0 -0.49,0.29 -0.49,0.62 0,0.33 0.15,0.62 0.49,0.62 0.34,0 0.49,-0.29 0.49,-0.62 z"
   id="path284" />
	<path
   class="st10"
   d="m 479.83,177.96 h -0.37 v 1.43 h -0.25 v -1.43 h -0.26 v -0.21 h 0.26 v -0.23 c 0,-0.28 0.23,-0.42 0.46,-0.42 0.12,0 0.2,0.03 0.24,0.04 l -0.07,0.22 c -0.03,-0.01 -0.07,-0.03 -0.14,-0.03 -0.17,0 -0.24,0.08 -0.24,0.25 v 0.17 h 0.37 z"
   id="path286" />
	<path
   class="st10"
   d="m 480.95,178.02 c 0,-0.47 0.38,-0.85 0.86,-0.85 0.47,0 0.85,0.38 0.85,0.85 0,0.47 -0.38,0.85 -0.85,0.85 -0.47,0.01 -0.86,-0.38 -0.86,-0.85 z m 1.51,0 c 0,-0.36 -0.29,-0.65 -0.65,-0.65 -0.36,0 -0.65,0.29 -0.65,0.65 0,0.36 0.29,0.65 0.65,0.65 0.36,0 0.65,-0.29 0.65,-0.65 z m -0.95,-0.4 h 0.4 c 0.1,0 0.24,0.08 0.24,0.25 0,0.11 -0.06,0.19 -0.13,0.23 l 0.16,0.31 h -0.19 l -0.14,-0.27 h -0.17 v 0.27 h -0.17 z m 0.33,0.39 c 0.05,0 0.12,-0.05 0.12,-0.14 0,-0.1 -0.07,-0.12 -0.11,-0.12 h -0.17 v 0.26 z"
   id="path288" />
	<path
   class="st10"
   d="m 467.2,181.7 h 1.32 v 0.23 h -1.32 z m 0,0.63 h 1.32 v 0.23 h -1.32 z"
   id="path290" />
	<path
   class="st10"
   d="m 470.17,182.99 h -0.25 v -2.19 h 0.25 v 0.8 h 0.02 c 0.08,-0.17 0.22,-0.28 0.48,-0.28 0.33,0 0.56,0.2 0.56,0.62 v 1.04 h -0.25 v -1.03 c 0,-0.26 -0.14,-0.41 -0.38,-0.41 -0.25,0 -0.43,0.16 -0.43,0.45 z"
   id="path292" />
	<path
   class="st10"
   d="m 471.62,182.18 c 0,-0.5 0.29,-0.85 0.74,-0.85 0.34,0 0.71,0.21 0.71,0.82 v 0.11 h -1.19 c 0.01,0.35 0.22,0.54 0.51,0.54 0.2,0 0.35,-0.08 0.41,-0.26 l 0.24,0.07 c -0.08,0.25 -0.32,0.41 -0.65,0.41 -0.48,0 -0.77,-0.34 -0.77,-0.84 z m 1.18,-0.15 c 0,-0.28 -0.18,-0.48 -0.45,-0.48 -0.29,0 -0.47,0.23 -0.49,0.48 z"
   id="path294" />
	<path
   class="st10"
   d="m 473.39,180.9 c 0,-0.09 0.08,-0.17 0.18,-0.17 0.1,0 0.18,0.08 0.18,0.17 0,0.09 -0.08,0.17 -0.18,0.17 -0.1,0 -0.18,-0.08 -0.18,-0.17 z m 0.05,0.44 h 0.25 v 1.64 h -0.25 z"
   id="path296" />
	<path
   class="st10"
   d="m 474.14,183.31 0.2,-0.14 c 0.07,0.09 0.17,0.25 0.47,0.25 0.27,0 0.46,-0.12 0.46,-0.4 v -0.33 h -0.02 c -0.06,0.09 -0.16,0.28 -0.48,0.28 -0.4,0 -0.7,-0.29 -0.7,-0.8 0,-0.5 0.29,-0.83 0.7,-0.83 0.32,0 0.42,0.2 0.48,0.28 h 0.03 v -0.26 h 0.24 v 1.69 c 0,0.42 -0.32,0.6 -0.71,0.6 -0.36,-0.02 -0.56,-0.17 -0.67,-0.34 z m 1.14,-1.16 c 0,-0.35 -0.16,-0.6 -0.47,-0.6 -0.32,0 -0.48,0.27 -0.48,0.6 0,0.34 0.16,0.58 0.48,0.58 0.3,0 0.47,-0.21 0.47,-0.58 z"
   id="path298" />
	<path
   class="st10"
   d="m 476.23,182.99 h -0.25 v -2.19 h 0.25 v 0.8 h 0.02 c 0.08,-0.17 0.22,-0.28 0.48,-0.28 0.33,0 0.56,0.2 0.56,0.62 v 1.04 h -0.25 v -1.03 c 0,-0.26 -0.14,-0.41 -0.38,-0.41 -0.25,0 -0.43,0.16 -0.43,0.45 z"
   id="path300" />
	<path
   class="st10"
   d="m 478.47,181.56 h -0.35 v 0.96 c 0,0.21 0.11,0.25 0.22,0.25 0.06,0 0.09,-0.01 0.11,-0.01 l 0.05,0.23 c -0.04,0.01 -0.09,0.03 -0.19,0.03 -0.21,0 -0.44,-0.14 -0.44,-0.42 v -1.03 h -0.25 v -0.21 h 0.25 v -0.39 h 0.25 v 0.39 h 0.35 z"
   id="path302" />
	<path
   class="st10"
   d="m 479.61,182.17 c 0,-0.51 0.3,-0.85 0.74,-0.85 0.44,0 0.74,0.34 0.74,0.85 0,0.51 -0.3,0.85 -0.74,0.85 -0.44,0 -0.74,-0.34 -0.74,-0.85 z m 1.24,0 c 0,-0.33 -0.15,-0.62 -0.49,-0.62 -0.34,0 -0.49,0.29 -0.49,0.62 0,0.33 0.15,0.62 0.49,0.62 0.33,0 0.49,-0.29 0.49,-0.62 z"
   id="path304" />
	<path
   class="st10"
   d="m 482.21,181.56 h -0.37 v 1.43 h -0.25 v -1.43 h -0.26 v -0.21 h 0.26 v -0.23 c 0,-0.28 0.23,-0.42 0.46,-0.42 0.12,0 0.2,0.03 0.24,0.04 l -0.07,0.22 c -0.03,-0.01 -0.07,-0.03 -0.14,-0.03 -0.17,0 -0.24,0.08 -0.24,0.25 v 0.17 h 0.37 z"
   id="path306" />
	<path
   class="st10"
   d="m 484.12,181.56 h -0.35 v 0.96 c 0,0.21 0.11,0.25 0.22,0.25 0.06,0 0.09,-0.01 0.11,-0.01 l 0.05,0.23 c -0.04,0.01 -0.09,0.03 -0.19,0.03 -0.21,0 -0.44,-0.14 -0.44,-0.42 v -1.03 h -0.25 v -0.21 h 0.25 v -0.39 h 0.25 v 0.39 h 0.35 z"
   id="path308" />
	<path
   class="st10"
   d="m 484.78,182.99 h -0.25 v -2.19 h 0.25 v 0.8 h 0.02 c 0.08,-0.17 0.22,-0.28 0.48,-0.28 0.33,0 0.56,0.2 0.56,0.62 v 1.04 h -0.25 v -1.03 c 0,-0.26 -0.14,-0.41 -0.38,-0.41 -0.25,0 -0.43,0.16 -0.43,0.45 z"
   id="path310" />
	<path
   class="st10"
   d="m 486.22,182.18 c 0,-0.5 0.29,-0.85 0.74,-0.85 0.34,0 0.71,0.21 0.71,0.82 v 0.11 h -1.19 c 0.01,0.35 0.22,0.54 0.51,0.54 0.2,0 0.35,-0.08 0.41,-0.26 l 0.24,0.07 c -0.08,0.25 -0.32,0.41 -0.65,0.41 -0.48,0 -0.77,-0.34 -0.77,-0.84 z m 1.19,-0.15 c 0,-0.28 -0.18,-0.48 -0.45,-0.48 -0.29,0 -0.47,0.23 -0.49,0.48 z"
   id="path312" />
	<path
   class="st10"
   d="m 488.84,180.9 c 0,-0.09 0.08,-0.17 0.18,-0.17 0.1,0 0.18,0.08 0.18,0.17 0,0.09 -0.08,0.17 -0.18,0.17 -0.1,0 -0.18,-0.08 -0.18,-0.17 z m 0.05,0.44 h 0.25 v 1.64 h -0.25 z"
   id="path314" />
	<path
   class="st10"
   d="m 489.83,180.99 c 0,0.17 -0.1,0.4 -0.27,0.54 l -0.14,-0.11 c 0.09,-0.13 0.17,-0.26 0.17,-0.42 v -0.2 h 0.24 z"
   id="path316" />
	<path
   class="st10"
   d="m 490.86,181.78 c -0.04,-0.11 -0.13,-0.24 -0.35,-0.24 -0.2,0 -0.35,0.1 -0.35,0.24 0,0.13 0.09,0.19 0.28,0.24 l 0.24,0.06 c 0.29,0.07 0.44,0.22 0.44,0.44 0,0.28 -0.26,0.49 -0.64,0.49 -0.34,0 -0.57,-0.15 -0.62,-0.43 l 0.24,-0.06 c 0.04,0.18 0.17,0.27 0.38,0.27 0.24,0 0.38,-0.12 0.38,-0.26 0,-0.11 -0.08,-0.19 -0.24,-0.23 l -0.27,-0.06 c -0.3,-0.07 -0.44,-0.22 -0.44,-0.45 0,-0.28 0.26,-0.47 0.6,-0.47 0.33,0 0.5,0.16 0.58,0.39 z"
   id="path318" />
	<path
   class="st10"
   d="m 492.26,182.17 c 0,-0.52 0.29,-0.85 0.7,-0.85 0.32,0 0.42,0.2 0.47,0.28 h 0.02 v -0.81 h 0.25 v 2.19 h -0.24 v -0.25 h -0.03 c -0.06,0.09 -0.16,0.29 -0.48,0.29 -0.4,0 -0.69,-0.33 -0.69,-0.85 z m 1.2,-0.01 c 0,-0.37 -0.16,-0.62 -0.47,-0.62 -0.32,0 -0.48,0.27 -0.48,0.62 0,0.35 0.16,0.63 0.48,0.63 0.31,0 0.47,-0.25 0.47,-0.63 z"
   id="path320" />
	<path
   class="st10"
   d="m 494.12,182.17 c 0,-0.51 0.3,-0.85 0.74,-0.85 0.44,0 0.74,0.34 0.74,0.85 0,0.51 -0.3,0.85 -0.74,0.85 -0.44,0 -0.74,-0.34 -0.74,-0.85 z m 1.24,0 c 0,-0.33 -0.15,-0.62 -0.49,-0.62 -0.34,0 -0.49,0.29 -0.49,0.62 0,0.33 0.15,0.62 0.49,0.62 0.34,0 0.49,-0.29 0.49,-0.62 z"
   id="path322" />
	<path
   class="st10"
   d="m 496.71,181.56 h -0.35 v 0.96 c 0,0.21 0.11,0.25 0.22,0.25 0.06,0 0.09,-0.01 0.11,-0.01 l 0.05,0.23 c -0.04,0.01 -0.09,0.03 -0.19,0.03 -0.21,0 -0.44,-0.14 -0.44,-0.42 v -1.03 h -0.25 v -0.21 h 0.25 v -0.39 h 0.25 v 0.39 h 0.35 z"
   id="path324" />
	<path
   class="st10"
   d="m 366.54,163.68 c 0.08,-0.15 0.19,-0.26 0.33,-0.35 0.14,-0.09 0.28,-0.14 0.42,-0.14 0.14,0 0.25,0.05 0.33,0.14 0.09,0.09 0.13,0.22 0.13,0.36 0,0.21 -0.08,0.41 -0.25,0.58 -0.17,0.17 -0.36,0.26 -0.57,0.26 -0.19,0 -0.34,-0.07 -0.47,-0.21 -0.12,-0.14 -0.18,-0.33 -0.18,-0.55 0,-0.39 0.14,-0.73 0.42,-1.04 0.28,-0.31 0.6,-0.46 0.95,-0.46 0.13,0 0.26,0.02 0.39,0.06 l -0.22,0.22 c -0.13,-0.08 -0.27,-0.12 -0.42,-0.12 -0.22,0 -0.4,0.09 -0.55,0.28 -0.09,0.11 -0.16,0.26 -0.23,0.44 -0.06,0.18 -0.09,0.35 -0.09,0.5 v 0.03 z m 0.02,0.17 c 0.07,0.36 0.25,0.54 0.53,0.54 0.12,0 0.23,-0.05 0.31,-0.14 0.08,-0.09 0.13,-0.2 0.13,-0.34 0,-0.16 -0.04,-0.28 -0.12,-0.39 -0.08,-0.1 -0.19,-0.15 -0.31,-0.15 -0.27,0.01 -0.45,0.16 -0.54,0.48 z"
   id="path326" />
	<line
   class="st7"
   x1="325.5"
   y1="185.87"
   x2="325.5"
   y2="0"
   id="line328" />
	<path
   class="st10"
   d="m 326.08,164.39 h 0.11 c 0.07,-0.01 0.13,-0.02 0.17,-0.05 0.04,-0.02 0.07,-0.06 0.09,-0.12 l 0.45,-1.64 c 0.01,-0.03 0.01,-0.05 0.02,-0.07 0,-0.02 0.01,-0.04 0.01,-0.05 0,-0.04 -0.01,-0.06 -0.04,-0.08 -0.03,-0.01 -0.06,-0.02 -0.12,-0.02 l -0.16,0.01 v -0.05 l 0.04,-0.01 c 0.03,0 0.11,-0.02 0.24,-0.05 0.13,-0.03 0.22,-0.04 0.28,-0.06 l 0.05,-0.01 h 0.03 l 0.02,0.01 c 0,0.01 0,0.01 0,0.02 0,0.01 0,0.01 0,0.02 l -0.54,1.99 c 0,0.01 0,0.02 -0.01,0.03 0,0.01 0,0.02 0,0.03 0,0.04 0.02,0.07 0.06,0.08 0.04,0.01 0.11,0.02 0.23,0.02 v 0.05 h -0.93 z"
   id="path330" />
	<path
   class="st10"
   d="m 328.4,162.26 h 0.16 l -0.84,2.24 h -0.16 z"
   id="path332" />
	<path
   class="st10"
   d="m 327.25,166.26 c -0.1,0.11 -0.18,0.21 -0.25,0.3 -0.11,0.16 -0.2,0.35 -0.27,0.57 -0.06,0.19 -0.1,0.38 -0.13,0.55 -0.02,0.17 -0.04,0.32 -0.04,0.44 0,0.18 0.01,0.33 0.03,0.45 0.02,0.12 0.06,0.27 0.13,0.46 l -0.06,0.02 c -0.12,-0.2 -0.2,-0.4 -0.25,-0.6 -0.05,-0.2 -0.08,-0.4 -0.08,-0.6 0,-0.26 0.04,-0.5 0.13,-0.7 0.13,-0.3 0.38,-0.61 0.73,-0.93 z"
   id="path334" />
	<path
   class="st10"
   d="m 327.26,168.88 c 0.02,-0.03 0.05,-0.04 0.09,-0.04 0.03,0 0.05,0.01 0.07,0.02 0.02,0.01 0.04,0.03 0.06,0.04 l 0.02,0.02 c 0.01,0.01 0.01,0.01 0.02,0.01 0.01,0 0.02,0 0.03,0 0.05,0 0.14,-0.07 0.26,-0.21 0.12,-0.14 0.18,-0.24 0.18,-0.3 0,-0.06 -0.02,-0.18 -0.06,-0.36 -0.04,-0.18 -0.08,-0.33 -0.12,-0.47 -0.05,-0.19 -0.1,-0.33 -0.14,-0.39 -0.04,-0.07 -0.11,-0.1 -0.19,-0.1 -0.01,0 -0.02,0 -0.03,0 -0.01,0 -0.04,0 -0.08,0.01 v -0.05 l 0.44,-0.09 h 0.03 c 0.03,0 0.08,0.12 0.16,0.37 0.07,0.22 0.11,0.38 0.13,0.48 l 0.07,0.39 c 0.11,-0.19 0.2,-0.34 0.25,-0.44 0.1,-0.2 0.16,-0.34 0.16,-0.42 0,-0.02 0,-0.04 -0.01,-0.05 -0.01,-0.02 -0.02,-0.03 -0.05,-0.05 l -0.03,-0.01 c -0.02,-0.01 -0.04,-0.03 -0.06,-0.05 -0.02,-0.02 -0.04,-0.06 -0.04,-0.1 0,-0.03 0.01,-0.06 0.03,-0.08 0.02,-0.02 0.05,-0.03 0.1,-0.03 0.05,0 0.1,0.02 0.13,0.05 0.03,0.03 0.05,0.09 0.05,0.16 0,0.12 -0.06,0.3 -0.19,0.56 -0.1,0.2 -0.21,0.38 -0.33,0.57 -0.15,0.23 -0.28,0.41 -0.39,0.53 -0.17,0.2 -0.31,0.29 -0.43,0.29 -0.04,0 -0.08,-0.01 -0.12,-0.04 -0.04,-0.03 -0.05,-0.06 -0.05,-0.11 0,-0.06 0.02,-0.09 0.04,-0.11 z"
   id="path336" />
	<path
   class="st10"
   d="m 328.84,168.98 c 0.11,-0.12 0.2,-0.23 0.26,-0.31 0.1,-0.16 0.19,-0.34 0.25,-0.55 0.06,-0.18 0.1,-0.36 0.13,-0.53 0.03,-0.17 0.04,-0.34 0.04,-0.49 0,-0.19 -0.02,-0.36 -0.05,-0.51 -0.03,-0.15 -0.07,-0.27 -0.11,-0.36 l 0.06,-0.02 c 0.1,0.17 0.18,0.35 0.24,0.56 0.06,0.21 0.09,0.42 0.09,0.63 0,0.24 -0.04,0.46 -0.11,0.64 -0.13,0.34 -0.38,0.67 -0.76,0.99 z"
   id="path338" />
	<path
   class="st10"
   d="m 328.93,163.68 c 0.08,-0.15 0.19,-0.26 0.33,-0.35 0.14,-0.09 0.28,-0.14 0.42,-0.14 0.14,0 0.25,0.05 0.33,0.14 0.09,0.09 0.13,0.22 0.13,0.36 0,0.21 -0.08,0.41 -0.25,0.58 -0.17,0.17 -0.36,0.26 -0.57,0.26 -0.19,0 -0.34,-0.07 -0.47,-0.21 -0.12,-0.14 -0.18,-0.33 -0.18,-0.55 0,-0.39 0.14,-0.73 0.42,-1.04 0.28,-0.31 0.6,-0.46 0.95,-0.46 0.13,0 0.26,0.02 0.39,0.06 l -0.22,0.22 c -0.13,-0.08 -0.27,-0.12 -0.42,-0.12 -0.22,0 -0.4,0.09 -0.55,0.28 -0.09,0.11 -0.16,0.26 -0.23,0.44 -0.06,0.18 -0.09,0.35 -0.09,0.5 v 0.03 z m 0.02,0.17 c 0.07,0.36 0.25,0.54 0.53,0.54 0.12,0 0.23,-0.05 0.31,-0.14 0.08,-0.09 0.13,-0.2 0.13,-0.34 0,-0.16 -0.04,-0.28 -0.12,-0.39 -0.08,-0.1 -0.19,-0.15 -0.31,-0.15 -0.27,0.01 -0.45,0.16 -0.54,0.48 z"
   id="path340" />
	<line
   class="st6"
   x1="178.61"
   y1="185.88"
   x2="178.61"
   y2="0"
   id="line342" />
	<path
   class="st11"
   d="M 286.66,27.41 V 0 h 11.5 v 27.8 c 0,4.55 2.34,7.6 7.99,7.6 5.33,0 7.86,-3.25 7.86,-7.79 V 0 h 11.5 v 27.41 c 0,10.72 -6.43,17.21 -19.35,17.21 -13.01,0 -19.5,-6.36 -19.5,-17.21 z"
   id="path344" />
	<path
   class="st11"
   d="m 325.5,158.47 v 27.41 H 314 v -27.8 c 0,-4.55 -2.34,-7.6 -7.99,-7.6 -5.33,0 -7.86,3.25 -7.86,7.79 v 27.6 h -11.5 v -27.41 c 0,-10.72 6.43,-17.21 19.35,-17.21 13,0.01 19.5,6.38 19.5,17.22 z"
   id="path346" />
	<path
   class="st11"
   d="M 139.75,94.6 V 67.2 h 11.5 V 95 c 0,4.55 2.34,7.6 7.99,7.6 5.33,0 7.86,-3.25 7.86,-7.79 V 67.2 h 11.5 v 27.4 c 0,10.72 -6.43,17.21 -19.35,17.21 -13,0.01 -19.5,-6.36 -19.5,-17.21 z"
   id="path348" />
	<path
   class="st11"
   d="m 473.45,74.76 h 27.41 v 11.5 h -27.8 c -4.55,0 -7.6,2.34 -7.6,7.99 0,5.33 3.25,7.86 7.79,7.86 h 27.6 v 11.5 h -27.41 c -10.72,0 -17.21,-6.43 -17.21,-19.35 0.01,-13.01 6.37,-19.5 17.22,-19.5 z"
   id="path350" />
	<path
   class="st12"
   d="M 27.41,113.6 H 0 v -11.5 h 27.8 c 4.55,0 7.6,-2.34 7.6,-7.99 0,-5.33 -3.25,-7.86 -7.79,-7.86 H 0 v -11.5 h 27.41 c 10.72,0 17.21,6.43 17.21,19.35 0,13 -6.37,19.5 -17.21,19.5 z"
   id="path352" />
	<line
   class="st13"
   x1="0"
   y1="44.619999"
   x2="498.73001"
   y2="44.619999"
   id="line354" />
	<line
   class="st13"
   x1="0"
   y1="141.25999"
   x2="500.82001"
   y2="141.25999"
   id="line356" />
</g>
</svg>
