<svg xmlns="http://www.w3.org/2000/svg" width="1794" height="997" viewBox="0 0 1794 997"><path d="M1794.957,551.28l-60.518,12.964L1836.29,414.871l60.518-12.964Zm-154.942,33.471,101.851-149.373,60.518-12.965L1700.533,571.786Zm15.052,196.657,11.531-2.465-17.213,49.888-8.447,1.808-17.16-42.542,11.527-2.465,9.854,26.022ZM1378.62,886.854l174.11-258.266v-41.7L1370.5,625.926V568.787l251.266-53.828v115.2L1460.513,869.31Zm5.978-378.734V465.976l9.676-2.067,17.87,21.944V460.086l9.627-2.059v42.144l-9.627,2.059-17.87-21.944v25.767Zm-.1-101.317-71.512,15.32V292.611l-95.491,71.064V292.9l164.937-124.356V151.586l-142.2,30.621V123.593l72.754-15.666V84.334l71.512-15.4V92.528l72.754-15.666v96.212l-54.565,40.873,85.569,24.335v67.089l-103.758-34.057ZM1082.321,220.658,1184.172,71.285,1244.69,58.32,1142.84,207.693ZM987.9,241.164,1089.748,91.791l60.519-12.965L1048.415,228.2Zm22.547,330.575V545.972l9.627-2.059v42.145l-9.627,2.059-17.875-21.944V591.94l-9.676,2.068V551.863l9.676-2.068Zm-323.6,86.848L901.973,338.829V206.857l69.035-14.865V340.4L768.734,641.043Zm42.34-372.863,134.345-28.929v57.139L729.181,342.862Zm0-75.94,134.345-28.929v57.139L729.181,266.922Zm14.891,234.924L571.656,481.643v-69.67l172.416-36.936ZM588.364,576.861,103.19,680.8V618.926l293.067-62.782v-210.6l-201.566,44.5V331.434l284.653-62.393v269.3l109.02-22.86Zm-100.686,92.4,6.865-12.98,11.553-2.469-13.629,24.826v20.233l-9.676,2.067V680.7l-13.576-19.009,11.553-2.469Zm62.7-25.1A21.252,21.252,0,1,1,529.1,665.4,21.289,21.289,0,0,1,550.38,644.154Zm0,34.142a12.89,12.89,0,1,0-12.9-12.89A12.912,12.912,0,0,0,550.38,678.3Zm59.349-23.73c0,1.228.041,2.481.124,3.75a9.968,9.968,0,0,0,.743,3.329,4.151,4.151,0,0,0,1.948,2.132,5.664,5.664,0,0,0,3.754.174,7.528,7.528,0,0,0,3.726-1.776,7.928,7.928,0,0,0,1.95-2.964,12.511,12.511,0,0,0,.765-3.653q.125-1.958.124-3.8V628.839l9.627-2.055v24.425q0,9.839-3.972,15.214T616.3,673.565q-8.252,1.763-12.247-1.909t-4-13.516V633.715l9.676-2.067Zm263.708-60.74,19.206-4.106q0,3.351-.247,6.142a26.775,26.775,0,0,1-.986,5.3A27.16,27.16,0,0,1,888.6,607.6a23.938,23.938,0,0,1-4.177,5.145,24.614,24.614,0,0,1-5.256,3.721,23.217,23.217,0,0,1-6.023,2.181,17.8,17.8,0,0,1-7.923.073,13.425,13.425,0,0,1-6.149-3.239,15.974,15.974,0,0,1-4-6.186,24.775,24.775,0,0,1-1.433-8.781,30.6,30.6,0,0,1,1.4-9.324,26.525,26.525,0,0,1,4-7.873,24.63,24.63,0,0,1,6.247-5.862,23.688,23.688,0,0,1,8.146-3.361,16.5,16.5,0,0,1,10.22.665q4.4,1.9,6.965,7.341l-9.185,6.268a7.82,7.82,0,0,0-3.332-4.261,6.758,6.758,0,0,0-4.668-.515,10.207,10.207,0,0,0-3.949,1.768,12.112,12.112,0,0,0-3.036,3.275,16.81,16.81,0,0,0-1.977,4.532,20.35,20.35,0,0,0-.714,5.517,17.535,17.535,0,0,0,.617,4.844,9.148,9.148,0,0,0,1.851,3.572,6.31,6.31,0,0,0,3.06,1.946,8.682,8.682,0,0,0,4.245.016,12.1,12.1,0,0,0,2.768-.956,9.046,9.046,0,0,0,2.391-1.687,8.709,8.709,0,0,0,1.754-2.473,10.7,10.7,0,0,0,.937-3.328l-7.947,1.7Zm74.506-1.626v9.28l-21.182,4.532V563.867l21.182-4.532v9.279l-11.507,2.461v7.042l10.861-2.323v9.28L936.437,587.4v7.265Zm133.066,95.743-284.287,60.9V691.7l284.287-60.9Zm0,38.961v79.989L926.066,1037.136l-81.894,17.544,167.8-249.357V785.394L796.722,831.506V774.367l284.287-60.9Zm124.412-180.473-10.321,2.205-2.22-6.847-13.824,2.955-2.224,7.8-10.318,2.206,14.169-45.177,10.569-2.258Zm-19.454-25.52-4.347,14.955,8.69-1.856ZM1112.009,566.4V524.256l15.058-3.219a12.524,12.524,0,0,1,5.431-.126,7.9,7.9,0,0,1,3.828,2,9.4,9.4,0,0,1,2.272,3.653,14.707,14.707,0,0,1,.763,4.869,15.792,15.792,0,0,1-2.049,8.234,13.746,13.746,0,0,1-6.052,5.347l11.705,14.769-12.05,2.574-9.229-14.233v16.208Zm11.5-25.763a8.092,8.092,0,0,0,4.4-2.282,5.97,5.97,0,0,0,1.53-4.187,3.918,3.918,0,0,0-1.53-3.527,5.715,5.715,0,0,0-4.4-.4l-1.826.389v10.4Zm-46.46,23.959v9.28l-21.183,4.528V536.259l21.183-4.529v9.28l-11.507,2.461v7.042l10.865-2.323v9.279l-10.865,2.323v7.265Zm113.463-169.749v53.513l-194.887,41.75v-53.3L1061.15,422.7V334.1l-40.322,8.682V292.971l141.544-30.479v49.815l-40.322,8.683v88.6Zm46.995,144.72V506.7l-7.943,1.7v-9.279l25.574-5.469v9.279l-7.951,1.7V537.5Zm58.608-54.675v42.145l-9.676,2.071V486.964ZM1341.7,603.634l-80.373,119.079,33.418-7.159V904.822l-68.427,14.659v-144.9l-47.255,70.012-85.05,18.22,162.6-240.953Zm-22.759-107.769A21.556,21.556,0,1,1,1340.5,517.4,21.569,21.569,0,0,1,1318.942,495.865Zm34.629,0a13.073,13.073,0,1,0-13.073,13.06A13.08,13.08,0,0,0,1353.571,495.865Zm204.651,342.285,12.724-2.725V845.6l-23.333,4.991V804.381l10.609-2.27Zm45.04.543-10.609,2.266V794.749l10.609-2.266Zm107.073-58.928-12.61,2.7v7.722l11.909-2.546V797.81l-11.909,2.546v7.966l12.61-2.7V815.8l-23.22,4.962V774.553l23.22-4.962Z" transform="translate(-103 -58)"/></svg>