<?xml version="1.0" encoding="UTF-8" standalone="no"?><svg xmlns="http://www.w3.org/2000/svg" xmlns:xlink="http://www.w3.org/1999/xlink" contentStyleType="text/css" height="849px" preserveAspectRatio="none" style="width:336px;height:849px;background:#FFFFFF;" version="1.1" viewBox="0 0 336 849" width="336px" zoomAndPan="magnify"><defs/><g><!--MD5=[919928ebd7276836ccec6a26a75fdb81]
cluster クライアント--><g id="cluster_クライアント"><rect fill="none" height="836" rx="2.5" ry="2.5" style="stroke:#181818;stroke-width:1.0;" width="238" x="92" y="7"/><text fill="#000000" font-family="sans-serif" font-size="14" font-weight="bold" lengthAdjust="spacing" textLength="90" x="166" y="23.5332">クライアント</text></g><g id="elem_サーバ情報を設定する"><ellipse cx="210.8297" cy="64.0659" fill="#F1F1F1" rx="90.8297" ry="20.5659" style="stroke:#181818;stroke-width:0.5;"/><text fill="#000000" font-family="sans-serif" font-size="14" lengthAdjust="spacing" textLength="140" x="140.8297" y="67.7945">サーバ情報を設定する</text></g><g id="elem_ユーザ名を設定する"><ellipse cx="210.8478" cy="138.8696" fill="#F1F1F1" rx="84.8478" ry="19.3696" style="stroke:#181818;stroke-width:0.5;"/><text fill="#000000" font-family="sans-serif" font-size="14" lengthAdjust="spacing" textLength="126" x="147.8478" y="142.5981">ユーザ名を設定する</text></g><g id="elem_コメントを送信する"><ellipse cx="210.8478" cy="212.8696" fill="#F1F1F1" rx="84.8478" ry="19.3696" style="stroke:#181818;stroke-width:0.5;"/><text fill="#000000" font-family="sans-serif" font-size="14" lengthAdjust="spacing" textLength="126" x="147.8478" y="216.5981">コメントを送信する</text></g><g id="elem_エールを贈る"><ellipse cx="210.7688" cy="284.1538" fill="#F1F1F1" rx="68.7688" ry="16.1538" style="stroke:#181818;stroke-width:0.5;"/><text fill="#000000" font-family="sans-serif" font-size="14" lengthAdjust="spacing" textLength="84" x="165.7688" y="288.6704">エールを贈る</text></g><g id="elem_アスタメモリの量を見る"><ellipse cx="210.9525" cy="356.7905" fill="#F1F1F1" rx="96.9525" ry="21.7905" style="stroke:#181818;stroke-width:0.5;"/><text fill="#000000" font-family="sans-serif" font-size="14" lengthAdjust="spacing" textLength="154" x="133.9525" y="360.519">アスタメモリの量を見る</text></g><g id="elem_ランキングを見る"><ellipse cx="211.0785" cy="432.2157" fill="#F1F1F1" rx="79.0785" ry="18.2157" style="stroke:#181818;stroke-width:0.5;"/><text fill="#000000" font-family="sans-serif" font-size="14" lengthAdjust="spacing" textLength="112" x="153.6751" y="436.3395">ランキングを見る</text></g><g id="elem_ミニゲームを遊ぶ"><ellipse cx="211.0785" cy="503.2157" fill="#F1F1F1" rx="79.0785" ry="18.2157" style="stroke:#181818;stroke-width:0.5;"/><text fill="#000000" font-family="sans-serif" font-size="14" lengthAdjust="spacing" textLength="112" x="153.6751" y="507.3395">ミニゲームを遊ぶ</text></g><g id="elem_スクリーンショットを撮る"><ellipse cx="211.1901" cy="579.038" fill="#F1F1F1" rx="103.1901" ry="23.038" style="stroke:#181818;stroke-width:0.5;"/><text fill="#000000" font-family="sans-serif" font-size="14" lengthAdjust="spacing" textLength="168" x="127.1901" y="582.7665">スクリーンショットを撮る</text></g><g id="elem_通話対戦に出る"><ellipse cx="211.2427" cy="654.1485" fill="#F1F1F1" rx="73.7427" ry="17.1485" style="stroke:#181818;stroke-width:0.5;"/><text fill="#000000" font-family="sans-serif" font-size="14" lengthAdjust="spacing" textLength="98" x="159.2427" y="658.6651">通話対戦に出る</text></g><g id="elem_プレゼンタを着せ替える"><ellipse cx="210.9525" cy="727.7905" fill="#F1F1F1" rx="96.9525" ry="21.7905" style="stroke:#181818;stroke-width:0.5;"/><text fill="#000000" font-family="sans-serif" font-size="14" lengthAdjust="spacing" textLength="154" x="133.9525" y="731.519">プレゼンタを着せ替える</text></g><g id="elem_バズクラッカーを押す"><ellipse cx="210.8297" cy="806.0659" fill="#F1F1F1" rx="90.8297" ry="20.5659" style="stroke:#181818;stroke-width:0.5;"/><text fill="#000000" font-family="sans-serif" font-size="14" lengthAdjust="spacing" textLength="140" x="140.8297" y="809.7945">バズクラッカーを押す</text></g><!--MD5=[8fc3522a43f8c7199df5e09e5bb0188e]
entity user--><g id="elem_user"><ellipse cx="27" cy="401.5" fill="#F1F1F1" rx="8" ry="8" style="stroke:#181818;stroke-width:0.5;"/><path d="M27,409.5 L27,436.5 M14,417.5 L40,417.5 M27,436.5 L14,451.5 M27,436.5 L40,451.5 " fill="none" style="stroke:#181818;stroke-width:0.5;"/><text fill="#000000" font-family="sans-serif" font-size="14" lengthAdjust="spacing" textLength="42" x="6" y="467.5332">ユーザ</text></g><!--MD5=[caa74f33627a6595f1c72deeea446149]
link user to サーバ情報を設定する--><g id="link_user_サーバ情報を設定する"><path d="M29.59,392.85 C33.54,315.02 46.37,144.65 84,102 C95.03,89.5 110,81.04 125.78,75.33 " fill="none" id="user-to-サーバ情報を設定する" style="stroke:#181818;stroke-width:1.0;"/><polygon fill="#181818" points="130.7,73.65,120.888,72.7988,125.9725,75.2782,123.4931,80.3627,130.7,73.65" style="stroke:#181818;stroke-width:1.0;"/></g><!--MD5=[b3779e96ccd185441be7c62664c8272d]
link user to ユーザ名を設定する--><g id="link_user_ユーザ名を設定する"><path d="M31.72,392.76 C38.53,329.04 55.03,207.08 84,176 C96.08,163.04 112.43,154.54 129.35,148.99 " fill="none" id="user-to-ユーザ名を設定する" style="stroke:#181818;stroke-width:1.0;"/><polygon fill="#181818" points="134.13,147.5,124.3477,146.3565,129.3561,148.9865,126.7261,153.9948,134.13,147.5" style="stroke:#181818;stroke-width:1.0;"/></g><!--MD5=[9ba82c06a0021d132e733241fe02f6d7]
link user to コメントを送信する--><g id="link_user_コメントを送信する"><path d="M29.58,392.76 C33.36,351.68 45.53,287.97 84,250 C96.75,237.41 113.56,229.06 130.72,223.54 " fill="none" id="user-to-コメントを送信する" style="stroke:#181818;stroke-width:1.0;"/><polygon fill="#181818" points="135.56,222.06,125.7809,220.8898,130.782,223.5334,128.1384,228.5346,135.56,222.06" style="stroke:#181818;stroke-width:1.0;"/></g><!--MD5=[e6e37bb7c5288700003ec48c48fcdf5f]
link user to エールを贈る--><g id="link_user_エールを贈る"><path d="M37.89,392.78 C46.2,367.64 60.56,336.22 84,317 C100.2,303.71 121.18,295.72 141.35,290.93 " fill="none" id="user-to-エールを贈る" style="stroke:#181818;stroke-width:1.0;"/><polygon fill="#181818" points="146.46,289.78,136.8012,287.8545,141.5821,290.8782,138.5584,295.6591,146.46,289.78" style="stroke:#181818;stroke-width:1.0;"/></g><!--MD5=[7b4fa74f3c667258944fbe8732dd441b]
link user to アスタメモリの量を見る--><g id="link_user_アスタメモリの量を見る"><path d="M48.24,417.09 C58.55,409.99 71.53,401.81 84,396 C101.74,387.74 121.68,380.65 140.37,374.86 " fill="none" id="user-to-アスタメモリの量を見る" style="stroke:#181818;stroke-width:1.0;"/><polygon fill="#181818" points="145.61,373.27,135.8351,372.0649,140.8268,374.7264,138.1653,379.718,145.61,373.27" style="stroke:#181818;stroke-width:1.0;"/></g><!--MD5=[646d4fbca42a8310a92b1ebcdbe7ef5b]
link user to ランキングを見る--><g id="link_user_ランキングを見る"><path d="M48.17,432 C67.42,432 97.73,432 126.94,432 " fill="none" id="user-to-ランキングを見る" style="stroke:#181818;stroke-width:1.0;"/><polygon fill="#181818" points="132,432,123,428,127,432,123,436,132,432" style="stroke:#181818;stroke-width:1.0;"/></g><!--MD5=[dfeee389c9c8cafc1a3f1d185c8beba4]
link user to ミニゲームを遊ぶ--><g id="link_user_ミニゲームを遊ぶ"><path d="M48.24,446.58 C58.56,453.5 71.53,461.46 84,467 C104.4,476.07 127.67,483.48 148.62,489.16 " fill="none" id="user-to-ミニゲームを遊ぶ" style="stroke:#181818;stroke-width:1.0;"/><polygon fill="#181818" points="153.61,490.5,145.9423,484.3189,148.7784,489.2135,143.8838,492.0496,153.61,490.5" style="stroke:#181818;stroke-width:1.0;"/></g><!--MD5=[0ad869315f1772271d69983e24030ef7]
link user to スクリーンショットを撮る--><g id="link_user_スクリーンショットを撮る"><path d="M40.3,471.1 C49.18,493.51 63.3,520.58 84,538 C96.6,548.61 112.01,556.49 127.67,562.34 " fill="none" id="user-to-スクリーンショットを撮る" style="stroke:#181818;stroke-width:1.0;"/><polygon fill="#181818" points="132.53,564.09,125.4272,557.2673,127.8281,562.3893,122.7061,564.7903,132.53,564.09" style="stroke:#181818;stroke-width:1.0;"/></g><!--MD5=[9f68cf261413e53697f943558219751b]
link user to 通話対戦に出る--><g id="link_user_通話対戦に出る"><path d="M29.06,471.25 C32.35,513.49 44.07,579.86 84,619 C98.35,633.06 117.84,641.59 137.19,646.72 " fill="none" id="user-to-通話対戦に出る" style="stroke:#181818;stroke-width:1.0;"/><polygon fill="#181818" points="142.11,647.95,134.3531,641.8812,137.2601,646.734,132.4074,649.641,142.11,647.95" style="stroke:#181818;stroke-width:1.0;"/></g><!--MD5=[2bc67bfb1155e46b91564bf8f44f7a0c]
link user to プレゼンタを着せ替える--><g id="link_user_プレゼンタを着せ替える"><path d="M31.79,471.17 C38.71,534.79 55.37,656.61 84,688 C94.93,699.99 109.43,708.4 124.7,714.31 " fill="none" id="user-to-プレゼンタを着せ替える" style="stroke:#181818;stroke-width:1.0;"/><polygon fill="#181818" points="129.46,716.06,122.3939,709.1993,124.7673,714.3341,119.6325,716.7076,129.46,716.06" style="stroke:#181818;stroke-width:1.0;"/></g><!--MD5=[32cc24eb2022397885e5a2bbc5dca709]
link user to バズクラッカーを押す--><g id="link_user_バズクラッカーを押す"><path d="M29.51,471.11 C33.32,549.79 45.93,723.43 84,767 C95.13,779.74 110.32,788.37 126.31,794.21 " fill="none" id="user-to-バズクラッカーを押す" style="stroke:#181818;stroke-width:1.0;"/><polygon fill="#181818" points="131.3,795.93,124.0931,789.2173,126.5725,794.3018,121.488,796.7812,131.3,795.93" style="stroke:#181818;stroke-width:1.0;"/></g><!--MD5=[5d22a35c747dbe0e297ed8ac3473222c]
@startuml user
left to right direction

actor ユーザ as user

rectangle クライアント {
	user - -> (サーバ情報を設定する)
	user - -> (ユーザ名を設定する)
	user - -> (コメントを送信する)
	user - -> (エールを贈る)
	user - -> (アスタメモリの量を見る)
	user - -> (ランキングを見る)
	user - -> (ミニゲームを遊ぶ)
	user - -> (スクリーンショットを撮る)
	user - -> (通話対戦に出る)
	user - -> (プレゼンタを着せ替える)
	user - -> (バズクラッカーを押す)
}

@enduml

PlantUML version 1.2022.7(Tue Aug 23 02:01:30 JST 2022)
(GPL source distribution)
Java Runtime: Java(TM) SE Runtime Environment
JVM: Java HotSpot(TM) 64-Bit Server VM
Default Encoding: MS932
Language: ja
Country: JP
--></g></svg>