<?xml version="1.0" encoding="UTF-8" standalone="no"?>
<!-- Created with Inkscape (http://www.inkscape.org/) -->

<svg
   width="1920"
   height="810"
   viewBox="0 0 507.99998 214.3125"
   version="1.1"
   id="svg5"
   inkscape:version="1.2.1 (9c6d41e410, 2022-07-14)"
   sodipodi:docname="splashImage.svg"
   xml:space="preserve"
   inkscape:export-filename="splashImage.png"
   inkscape:export-xdpi="96"
   inkscape:export-ydpi="96"
   xmlns:inkscape="http://www.inkscape.org/namespaces/inkscape"
   xmlns:sodipodi="http://sodipodi.sourceforge.net/DTD/sodipodi-0.dtd"
   xmlns:xlink="http://www.w3.org/1999/xlink"
   xmlns="http://www.w3.org/2000/svg"
   xmlns:svg="http://www.w3.org/2000/svg"><sodipodi:namedview
     id="namedview7"
     pagecolor="#ffffff"
     bordercolor="#999999"
     borderopacity="1"
     inkscape:showpageshadow="0"
     inkscape:pageopacity="0"
     inkscape:pagecheckerboard="true"
     inkscape:deskcolor="#505050"
     inkscape:document-units="px"
     showgrid="false"
     inkscape:zoom="0.23177389"
     inkscape:cx="276.13119"
     inkscape:cy="349.47854"
     inkscape:window-width="1360"
     inkscape:window-height="705"
     inkscape:window-x="-8"
     inkscape:window-y="-8"
     inkscape:window-maximized="1"
     inkscape:current-layer="layer1" /><defs
     id="defs2" /><g
     inkscape:label="Layer 1"
     inkscape:groupmode="layer"
     id="layer1"><g
       id="g863"
       transform="translate(-0.00931712,0.52929688)"><path
         id="path743"
         style="font-size:38.1px;line-height:1.25;font-family:'Poiret One';-inkscape-font-specification:'Poiret One';stroke-width:0.264583"
         d="m 147.24805,0 c 0,9.7011719 0,19.402344 0,29.103516 0.77213,0 1.54427,0 2.3164,0 0,-9.877605 0,-19.7552087 0,-29.63281288 -0.77213,10e-9 -1.54427,0 -2.3164,0 0,0.1764323 0,0.35286459 0,0.52929688 z" /><path
         id="path745"
         style="font-size:38.1px;line-height:1.25;font-family:'Poiret One';-inkscape-font-specification:'Poiret One';stroke-width:0.264583"
         d="m 161.63086,10.496094 c -2.08706,0.08194 -4.2008,0.939454 -5.51367,2.609375 0,-0.735026 0,-1.470052 0,-2.205078 -0.75912,0 -1.51823,0 -2.27735,0 0,6.067708 0,12.135416 0,18.203125 0.75912,0 1.51823,0 2.27735,0 0.0266,-3.730469 -0.053,-7.465125 0.0393,-11.193029 0.36025,-3.317234 3.86919,-5.894376 7.14811,-5.205282 2.80588,0.532803 4.90286,3.378836 4.70709,6.211982 0,3.395443 0,6.790886 0,10.186329 0.75976,0 1.51953,0 2.2793,0 -0.0267,-3.782094 0.0531,-7.567678 -0.0391,-11.347657 -0.26445,-3.828322 -3.65971,-7.16029 -7.5142,-7.257837 -0.36827,-0.02666 -0.73816,-0.01065 -1.10689,-0.0019 z" /><path
         id="path747"
         style="font-size:38.1px;line-height:1.25;font-family:'Poiret One';-inkscape-font-specification:'Poiret One';stroke-width:0.264583"
         d="m 180.82617,3.9667969 c -3.37289,-0.099499 -6.64667,2.583828 -6.96228,5.9880531 -0.14503,2.621374 -0.0189,5.254842 -0.0612,7.880697 0,3.755989 0,7.511979 0,11.267969 0.75977,0 1.51954,0 2.2793,0 0,-2.184245 0,-4.36849 0,-6.552735 1.778,0 3.55599,0 5.33399,0 0,-0.708333 0,-1.416666 0,-2.125 -1.778,0 -3.55599,0 -5.33399,0 0.0316,-3.403235 -0.0633,-6.812333 0.0477,-10.211944 0.2006,-2.3809249 2.48175,-4.2501608 4.84124,-4.1266684 0.75867,0.1535787 0.26176,-0.8915904 0.40596,-1.3246686 -0.0416,-0.5224704 0.22721,-1.00291 -0.55078,-0.7957031 z" /><path
         id="path749"
         style="font-size:38.1px;line-height:1.25;font-family:'Poiret One';-inkscape-font-specification:'Poiret One';stroke-width:0.264583"
         d="m 183.4043,0 c 0.0151,7.6867418 -0.0302,15.375323 0.0224,23.06093 0.10524,3.153646 2.74402,5.912394 5.84974,6.297176 0.56228,0.09612 1.13446,0.07803 1.7021,0.110644 0,-0.707682 0,-1.415365 0,-2.123047 -1.71753,0.09014 -3.5137,-0.58626 -4.48283,-2.063172 -1.21285,-1.74013 -0.70539,-3.948738 -0.81405,-5.927453 0,-6.628125 0,-13.2562499 0,-19.88437488 -0.75911,0 -1.51823,10e-9 -2.27734,0 0,0.1764323 0,0.35286459 0,0.52929688 z" /><path
         id="path751"
         style="font-size:38.1px;line-height:1.25;font-family:'Poiret One';-inkscape-font-specification:'Poiret One';stroke-width:0.264583"
         d="m 192.58594,11.429688 c 0.0268,3.605656 -0.0531,7.214825 0.0391,10.818359 0.26393,3.828478 3.6579,7.159198 7.51215,7.259335 2.43956,0.161109 5.07039,-0.62579 6.62262,-2.606991 0,0.734375 0,1.46875 0,2.203125 0.75911,0 1.51822,0 2.27734,0 0,-6.067709 0,-12.135417 0,-18.203125 -0.75912,0 -1.51823,0 -2.27734,0 -0.0267,3.731099 0.0533,7.466466 -0.0396,11.194951 -0.22493,2.251804 -2.07396,4.204462 -4.05417,4.957392 -2.31793,0.880655 -5.1386,0.06961 -6.57231,-1.973583 -1.13266,-1.358072 -1.32174,-3.187822 -1.22848,-4.888526 0,-3.096745 0,-6.19349 0,-9.290234 -0.75976,0 -1.51953,0 -2.27929,0 0,0.176432 0,0.352864 0,0.529297 z" /><path
         id="path753"
         style="font-size:38.1px;line-height:1.25;font-family:'Poiret One';-inkscape-font-specification:'Poiret One';stroke-width:0.264583"
         d="m 220.70117,10.529297 c -3.87397,0.06525 -7.48848,2.758959 -8.78762,6.383885 -1.16819,3.292916 -0.2845,7.176929 2.1862,9.647437 1.88673,2.056705 4.69619,3.191496 7.48339,2.993782 2.60772,-0.02322 5.08333,-1.327272 6.77233,-3.280963 0,-1.267579 0,-2.535157 0,-3.802735 -1.13482,1.683656 -2.39456,3.4204 -4.31207,4.267212 -2.04768,0.9618 -4.59317,0.98105 -6.51095,-0.308714 -0.4741,-0.250918 -1.04377,-0.53907 -0.32228,-0.919103 3.82336,-3.774008 7.64519,-7.549575 11.46952,-11.322598 -1.73131,-2.07012 -4.241,-3.575927 -6.98438,-3.65625 -0.33153,-0.01294 -0.66254,-0.01352 -0.99414,-0.002 z m 0.1543,2.115234 c 1.65873,-0.01364 3.3108,0.54568 4.61719,1.56836 -3.41862,3.395182 -6.83724,6.790364 -10.25586,10.185547 -2.08911,-2.596133 -2.06863,-6.703428 0.26366,-9.147591 1.34684,-1.549267 3.28207,-2.640995 5.37501,-2.606316 z" /><path
         id="path755"
         style="font-size:38.1px;line-height:1.25;font-family:'Poiret One';-inkscape-font-specification:'Poiret One';stroke-width:0.264583"
         d="m 238.82031,10.496094 c -2.08718,0.08268 -4.20386,0.939601 -5.51367,2.613281 0,-0.736328 0,-1.472656 0,-2.208984 -0.75911,0 -1.51823,0 -2.27734,0 0,6.067708 0,12.135416 0,18.203125 0.75911,0 1.51823,0 2.27734,0 0.0267,-3.730455 -0.0532,-7.465152 0.0395,-11.193009 0.36041,-3.317187 3.87073,-5.895921 7.14989,-5.205302 2.80462,0.537845 4.90107,3.378065 4.70709,6.211982 0,3.395443 0,6.790886 0,10.186329 0.75912,0 1.51823,0 2.27735,0 -0.0255,-3.782106 0.0506,-7.567594 -0.0371,-11.347657 -0.26555,-3.828726 -3.66156,-7.160916 -7.51615,-7.257936 -0.36827,-0.0266 -0.73817,-0.01045 -1.1069,-0.0018 z" /><path
         id="path757"
         style="font-size:38.1px;line-height:1.25;font-family:'Poiret One';-inkscape-font-specification:'Poiret One';stroke-width:0.264583"
         d="m 259.29883,10.568359 c -4.44274,0.07668 -8.55295,3.665588 -9.16016,8.076172 -0.47388,3.034162 0.65151,6.224129 2.90346,8.307903 1.85943,1.901953 4.56468,2.831494 7.2015,2.637501 2.57356,-0.04933 5.03835,-1.299229 6.70559,-3.242279 0,-1.290364 0,-2.580729 0,-3.871094 -1.06401,1.601728 -2.20439,3.272539 -3.98834,4.140207 -2.70697,1.543097 -6.35664,0.93685 -8.48236,-1.321847 -2.63274,-2.50059 -2.91097,-7.035344 -0.53762,-9.800998 1.60996,-2.051265 4.32949,-3.213486 6.91951,-2.698738 2.42054,0.430659 4.39587,2.158955 5.65038,4.209089 0.51962,1.00537 0.46253,0.208576 0.43843,-0.485134 0,-0.904167 0,-1.808334 0,-2.7125 -1.9183,-2.181355 -4.73588,-3.423625 -7.65039,-3.238282 z" /><path
         id="path759"
         style="font-size:38.1px;line-height:1.25;font-family:'Poiret One';-inkscape-font-specification:'Poiret One';stroke-width:0.264583"
         d="m 277.66016,10.529297 c -3.99123,0.06667 -7.71158,2.928032 -8.89844,6.71875 -0.99598,3.223547 -0.0869,6.921898 2.29702,9.312572 1.88799,2.056042 4.69697,3.192364 7.48534,2.993782 2.60672,-0.02451 5.0833,-1.325316 6.77037,-3.280963 0,-1.267579 0,-2.535157 0,-3.802735 -1.13447,1.683004 -2.39357,3.419446 -4.31018,4.267069 -2.02619,0.948522 -4.54272,0.986794 -6.45096,-0.273418 -0.36364,-0.248783 -1.17156,-0.510341 -0.45532,-0.883999 3.84612,-3.797743 7.69324,-7.594472 11.53873,-11.392855 -1.74737,-2.098205 -4.30403,-3.610081 -7.08044,-3.658659 -0.29879,-0.01355 -0.59728,-0.0077 -0.89612,4.56e-4 z m 0.15429,2.115234 c 1.65858,-0.0138 3.31097,0.545241 4.61719,1.56836 -3.41862,3.395182 -6.83724,6.790364 -10.25586,10.185547 -2.08708,-2.596009 -2.06885,-6.704517 0.2651,-9.146092 1.34394,-1.551684 3.28192,-2.641624 5.37357,-2.607815 z" /><path
         id="path761"
         style="font-size:38.1px;line-height:1.25;font-family:'Poiret One';-inkscape-font-specification:'Poiret One';stroke-width:0.264583"
         d="m 303.87695,0 c 0,4.610026 0,9.2200521 0,13.830078 -2.56561,-3.043588 -7.10579,-4.1913554 -10.80148,-2.695041 -3.51014,1.390768 -6.11266,4.975888 -6.03714,8.798075 -0.14204,4.204271 2.93106,8.197865 6.97911,9.25525 3.5144,0.992166 7.52654,-0.247934 9.85951,-3.057503 0,0.990886 0,1.981771 0,2.972657 0.75912,0 1.51823,0 2.27735,0 0,-9.877605 0,-19.7552087 0,-29.63281288 -0.75912,0 -1.51823,10e-9 -2.27735,0 0,0.1764323 0,0.35286459 0,0.52929688 z m -7.28125,12.607422 c 3.14619,-0.06724 5.99501,2.280421 7.00625,5.176185 0.88963,2.643638 0.083,5.73842 -2.00883,7.592253 -2.57964,2.629792 -7.24959,2.720371 -9.87828,0.114374 -2.33222,-2.052971 -3.05166,-5.619314 -1.79168,-8.441373 1.16317,-2.591241 3.75556,-4.496734 6.67254,-4.441439 z" /><path
         id="path763"
         style="font-size:38.1px;line-height:1.25;font-family:'Poiret One';-inkscape-font-specification:'Poiret One';stroke-width:0.264583"
         d="m 323.00391,0 c 0,9.7011719 0,19.402344 0,29.103516 0.75911,0 1.51823,0 2.27734,0 0,-0.990886 0,-1.981771 0,-2.972657 2.56156,3.103942 7.16866,4.253997 10.88738,2.710893 3.5591,-1.448702 6.13117,-5.169734 5.94819,-9.051472 0.011,-4.341681 -3.45209,-8.328995 -7.67932,-9.132077 -3.32276,-0.6650363 -6.97398,0.559383 -9.15625,3.166016 0,-4.7845055 0,-9.5690107 0,-14.35351588 -0.75911,0 -1.51823,0 -2.27734,0 0,0.1764323 0,0.35286459 0,0.52929688 z m 9.55859,12.607422 c 3.88844,-0.09659 7.32849,3.49923 7.27929,7.34482 0.15867,3.845962 -3.2156,7.471519 -7.0925,7.441664 -3.97664,0.217061 -7.65545,-3.372356 -7.54421,-7.35289 -0.0917,-3.901918 3.44259,-7.511467 7.35742,-7.433594 z" /><path
         id="path765"
         style="font-size:38.1px;line-height:1.25;font-family:'Poiret One';-inkscape-font-specification:'Poiret One';stroke-width:0.264583"
         d="m 344.30078,11.429688 c 0.0268,3.6037 -0.0532,7.210932 0.0391,10.8125 0.31504,4.002712 4.03528,7.357656 8.04799,7.279436 2.2492,0.05628 4.6341,-0.69261 6.08678,-2.490374 0.0706,1.651977 -0.0698,3.25915 -1.05664,4.626953 -1.36075,2.02537 -3.8728,3.272551 -6.31515,2.821788 -2.38118,-0.399612 -4.29698,-2.179492 -5.39288,-4.263578 -0.36549,-0.68335 -0.67165,-1.14248 -0.57181,-0.06744 0.006,1.024778 -0.17653,2.111565 -0.0576,3.098646 1.55455,2.187034 4.19581,3.478966 6.87014,3.435433 3.13226,0.128915 6.18729,-1.654554 7.71344,-4.374037 1.13175,-1.848167 1.14684,-4.073638 1.08784,-6.168003 0,-5.080209 0,-10.160417 0,-15.240625 -0.75911,0 -1.51823,0 -2.27734,0 -0.0277,3.738919 0.0552,7.482212 -0.041,11.218455 -0.34655,3.068967 -3.3805,5.647242 -6.49613,5.252248 -2.18548,-0.189001 -4.08962,-1.759008 -4.91797,-3.69336 -0.74516,-1.798596 -0.33439,-3.789545 -0.44141,-5.677343 0,-2.366667 10e-6,-4.733334 0,-7.1 -0.75911,0 -1.51822,0 -2.27734,0 0,0.176432 0,0.352864 0,0.529297 z" /></g><image
       preserveAspectRatio="none"
       inkscape:svg-dpi="96"
       width="229.39374"
       height="127.48361"
       style="stroke-width:2.0692;image-rendering:optimizeSpeed"
       xlink:href="yougeneLiveLogo.svg"
       id="image645"
       x="278.60626"
       y="86.82888" /><image
       width="229.39375"
       height="112.7125"
       preserveAspectRatio="none"
       style="image-rendering:optimizeSpeed"
       xlink:href="yougeneLogo.gif"
       id="image689"
       x="0"
       y="101.59999" /></g></svg>
