<?xml version="1.0" encoding="UTF-8" standalone="no"?>
<!-- Created with Inkscape (http://www.inkscape.org/) -->

<svg
   width="1024"
   height="1024"
   viewBox="0 0 270.93333 270.93333"
   version="1.1"
   id="svg5"
   inkscape:version="1.2.1 (9c6d41e410, 2022-07-14)"
   sodipodi:docname="logoMark.svg"
   xmlns:inkscape="http://www.inkscape.org/namespaces/inkscape"
   xmlns:sodipodi="http://sodipodi.sourceforge.net/DTD/sodipodi-0.dtd"
   xmlns:xlink="http://www.w3.org/1999/xlink"
   xmlns="http://www.w3.org/2000/svg"
   xmlns:svg="http://www.w3.org/2000/svg">
  <sodipodi:namedview
     id="namedview7"
     pagecolor="#ffffff"
     bordercolor="#999999"
     borderopacity="1"
     inkscape:showpageshadow="0"
     inkscape:pageopacity="0"
     inkscape:pagecheckerboard="true"
     inkscape:deskcolor="#d1d1d1"
     inkscape:document-units="px"
     showgrid="false"
     inkscape:zoom="0.25"
     inkscape:cx="186"
     inkscape:cy="548"
     inkscape:window-width="1360"
     inkscape:window-height="705"
     inkscape:window-x="-8"
     inkscape:window-y="-8"
     inkscape:window-maximized="1"
     inkscape:current-layer="svg5" />
  <defs
     id="defs2">
    <linearGradient
       inkscape:collect="always"
       id="linearGradient5694">
      <stop
         style="stop-color:#0054ff;stop-opacity:1;"
         offset="0"
         id="stop5690" />
      <stop
         style="stop-color:#80ff80;stop-opacity:1;"
         offset="1"
         id="stop5692" />
    </linearGradient>
    <linearGradient
       inkscape:collect="always"
       xlink:href="#linearGradient5694"
       id="linearGradient5544"
       x1="56.112328"
       y1="-0.00017317809"
       x2="327.04561"
       y2="-0.00017317809"
       gradientUnits="userSpaceOnUse" />
    <linearGradient
       inkscape:collect="always"
       xlink:href="#linearGradient5694"
       id="linearGradient5558"
       x1="73.303581"
       y1="67.735374"
       x2="197.62988"
       y2="203.20055"
       gradientUnits="userSpaceOnUse" />
  </defs>
  <path
     id="circle347"
     style="display:inline;fill:#ffff80;fill-opacity:1;stroke-width:2.39837;stroke-linecap:round;stroke-opacity:0.5;paint-order:stroke fill markers;stop-color:#000000"
     d="M 135.46666,0 A 135.46666,135.46666 0 0 0 0,135.46666 135.46666,135.46666 0 0 0 135.46666,270.93333 135.46666,135.46666 0 0 0 270.93333,135.46666 135.46666,135.46666 0 0 0 135.46666,0 Z m 0,33.866666 a 101.6,101.6 0 0 1 101.6,101.599994 101.6,101.6 0 0 1 -101.6,101.6 101.6,101.6 0 0 1 -101.599994,-101.6 A 101.6,101.6 0 0 1 135.46666,33.866666 Z"
     inkscape:label="o" />
  <path
     id="path340"
     style="fill:url(#linearGradient5544);fill-opacity:1;stroke-width:2.44121;stroke-linecap:round;stroke-opacity:0.5;paint-order:stroke fill markers;stop-color:#000000"
     d="M 95.789397 -95.789397 A 135.46666 135.46666 0 0 0 66.42415 -51.840735 A 135.46666 135.46666 0 0 0 95.789397 95.789397 A 135.46666 135.46666 0 0 0 243.41953 125.15464 A 135.46666 135.46666 0 0 0 327.01162 0.93069304 A 16.933332 16.933332 0 0 0 327.03355 0.32777057 A 135.46666 135.46666 0 0 0 327.04561 2.8421709e-14 L 327.03391 2.8421709e-14 A 16.933332 16.933332 0 0 0 322.08556 -11.973675 A 16.933332 16.933332 0 0 0 298.13821 -11.973675 A 16.933332 16.933332 0 0 0 293.1906 0 L 293.1789 2.8421709e-14 A 101.6 101.6 0 0 1 263.42084 71.842048 A 101.6 101.6 0 0 1 119.73675 71.842048 A 101.6 101.6 0 0 1 119.73675 -71.842048 A 101.6 101.6 0 0 1 191.57879 -101.58915 L 191.57879 -101.6118 A 16.933332 16.933332 0 0 0 203.55247 -106.55942 A 16.933332 16.933332 0 0 0 203.55247 -130.50677 A 16.933332 16.933332 0 0 0 191.57879 -135.46535 L 191.57879 -135.46681 A 135.46666 135.46666 0 0 0 191.53787 -135.46535 A 16.933332 16.933332 0 0 0 190.39853 -135.42442 A 135.46666 135.46666 0 0 0 95.789397 -95.789397 z "
     transform="rotate(45)"
     inkscape:label="c" />
  <path
     d="M 132.23271,135.10732 86.95737,124.50714 Q 73.302901,121.09353 73.302901,111.212 q 0,-6.4679 4.85093,-11.318832 4.311938,-4.491602 9.522195,-4.491602 5.569586,0 11.678164,6.288244 l 33.59718,31.26154 1.07798,-0.35932 -12.21715,-45.275346 q -1.07799,-4.491602 -1.07799,-7.366227 0,-12.217156 14.37313,-12.217156 14.01379,0 14.01379,12.576484 0,4.311938 -0.71865,7.006899 l -12.21716,45.275346 1.07799,0.35932 33.59718,-31.26154 q 6.64757,-6.288244 12.03749,-6.288244 5.92891,0 10.60018,5.569584 4.13227,4.67127 4.13227,9.88153 0,10.24085 -13.29514,13.29514 l -45.994,10.9595 v 0.71866 l 44.55669,12.21716 q 13.65447,3.41361 13.65447,13.83413 0,6.10858 -4.67127,10.60018 -4.31194,4.13227 -9.34253,4.13227 -6.28824,0 -12.75615,-6.4679 l -32.51919,-32.15987 -1.07799,0.35933 11.85783,44.55668 q 1.07798,3.95261 1.07798,7.0069 0,13.29514 -14.01379,13.29514 -14.0138,0 -14.0138,-12.93581 0,-2.87462 1.07799,-7.36623 l 11.85782,-44.55668 -1.07798,-0.35933 -31.9802,32.15987 q -7.545894,6.82723 -13.654472,6.82723 -5.928914,0 -10.240851,-5.38992 -3.772946,-4.4916 -3.772946,-9.70186 0,-10.24085 14.013797,-13.83413 l 44.916012,-12.21716 z"
     style="font-size:367.952px;line-height:1.25;font-family:'游明朝';-inkscape-font-specification:'游明朝';fill:url(#linearGradient5558);stroke-width:0.359304;fill-opacity:1"
     id="path5442"
     inkscape:label="asterisk" />
</svg>
