<?xml version="1.0" encoding="UTF-8" standalone="no"?><svg xmlns="http://www.w3.org/2000/svg" xmlns:xlink="http://www.w3.org/1999/xlink" contentStyleType="text/css" height="1108px" preserveAspectRatio="none" style="width:1012px;height:1108px;background:#FFFFFF;" version="1.1" viewBox="0 0 1012 1108" width="1012px" zoomAndPan="magnify"><defs/><g><rect fill="none" height="27.6094" id="_title" style="stroke:none;stroke-width:1.0;" width="85" x="459.5" y="10"/><text fill="#000000" font-family="sans-serif" font-size="14" font-weight="bold" lengthAdjust="spacing" textLength="75" x="464.5" y="29.5332">ライブ開始</text><line style="stroke:#181818;stroke-width:0.5;stroke-dasharray:5.0,5.0;" x1="29" x2="29" y1="121.2188" y2="1026.7109"/><line style="stroke:#181818;stroke-width:0.5;stroke-dasharray:5.0,5.0;" x1="208" x2="208" y1="121.2188" y2="1026.7109"/><line style="stroke:#181818;stroke-width:0.5;stroke-dasharray:5.0,5.0;" x1="364" x2="364" y1="121.2188" y2="1026.7109"/><line style="stroke:#181818;stroke-width:0.5;stroke-dasharray:5.0,5.0;" x1="521" x2="521" y1="121.2188" y2="1026.7109"/><line style="stroke:#181818;stroke-width:0.5;stroke-dasharray:5.0,5.0;" x1="700" x2="700" y1="121.2188" y2="1026.7109"/><line style="stroke:#181818;stroke-width:0.5;stroke-dasharray:5.0,5.0;" x1="790" x2="790" y1="121.2188" y2="1026.7109"/><line style="stroke:#181818;stroke-width:0.5;stroke-dasharray:5.0,5.0;" x1="969" x2="969" y1="121.2188" y2="1026.7109"/><text fill="#000000" font-family="sans-serif" font-size="14" lengthAdjust="spacing" textLength="42" x="5" y="118.1426">ユーザ</text><ellipse cx="29" cy="52.1094" fill="#E2E2F0" rx="8" ry="8" style="stroke:#181818;stroke-width:0.5;"/><path d="M29,60.1094 L29,87.1094 M16,68.1094 L42,68.1094 M29,87.1094 L16,102.1094 M29,87.1094 L42,102.1094 " fill="none" style="stroke:#181818;stroke-width:0.5;"/><text fill="#000000" font-family="sans-serif" font-size="14" lengthAdjust="spacing" textLength="42" x="5" y="1040.2441">ユーザ</text><ellipse cx="29" cy="1051.8203" fill="#E2E2F0" rx="8" ry="8" style="stroke:#181818;stroke-width:0.5;"/><path d="M29,1059.8203 L29,1086.8203 M16,1067.8203 L42,1067.8203 M29,1086.8203 L16,1101.8203 M29,1086.8203 L42,1101.8203 " fill="none" style="stroke:#181818;stroke-width:0.5;"/><rect fill="#E2E2F0" height="31.6094" rx="2.5" ry="2.5" style="stroke:#181818;stroke-width:0.5;" width="98" x="159" y="88.6094"/><text fill="#000000" font-family="sans-serif" font-size="14" lengthAdjust="spacing" textLength="84" x="166" y="110.1426">クライアント</text><rect fill="#E2E2F0" height="31.6094" rx="2.5" ry="2.5" style="stroke:#181818;stroke-width:0.5;" width="98" x="159" y="1025.7109"/><text fill="#000000" font-family="sans-serif" font-size="14" lengthAdjust="spacing" textLength="84" x="166" y="1047.2441">クライアント</text><rect fill="#E2E2F0" height="31.6094" rx="2.5" ry="2.5" style="stroke:#181818;stroke-width:0.5;" width="56" x="336" y="88.6094"/><text fill="#000000" font-family="sans-serif" font-size="14" lengthAdjust="spacing" textLength="42" x="343" y="110.1426">サーバ</text><rect fill="#E2E2F0" height="31.6094" rx="2.5" ry="2.5" style="stroke:#181818;stroke-width:0.5;" width="56" x="336" y="1025.7109"/><text fill="#000000" font-family="sans-serif" font-size="14" lengthAdjust="spacing" textLength="42" x="343" y="1047.2441">サーバ</text><rect fill="#E2E2F0" height="31.6094" rx="2.5" ry="2.5" style="stroke:#181818;stroke-width:0.5;" width="98" x="472" y="88.6094"/><text fill="#000000" font-family="sans-serif" font-size="14" lengthAdjust="spacing" textLength="84" x="479" y="110.1426">コントローラ</text><rect fill="#E2E2F0" height="31.6094" rx="2.5" ry="2.5" style="stroke:#181818;stroke-width:0.5;" width="98" x="472" y="1025.7109"/><text fill="#000000" font-family="sans-serif" font-size="14" lengthAdjust="spacing" textLength="84" x="479" y="1047.2441">コントローラ</text><text fill="#000000" font-family="sans-serif" font-size="14" lengthAdjust="spacing" textLength="70" x="662" y="118.1426">プレゼンタ</text><ellipse cx="700" cy="52.1094" fill="#E2E2F0" rx="8" ry="8" style="stroke:#181818;stroke-width:0.5;"/><path d="M700,60.1094 L700,87.1094 M687,68.1094 L713,68.1094 M700,87.1094 L687,102.1094 M700,87.1094 L713,102.1094 " fill="none" style="stroke:#181818;stroke-width:0.5;"/><text fill="#000000" font-family="sans-serif" font-size="14" lengthAdjust="spacing" textLength="70" x="662" y="1040.2441">プレゼンタ</text><ellipse cx="700" cy="1051.8203" fill="#E2E2F0" rx="8" ry="8" style="stroke:#181818;stroke-width:0.5;"/><path d="M700,1059.8203 L700,1086.8203 M687,1067.8203 L713,1067.8203 M700,1086.8203 L687,1101.8203 M700,1086.8203 L713,1101.8203 " fill="none" style="stroke:#181818;stroke-width:0.5;"/><rect fill="#E2E2F0" height="31.6094" rx="2.5" ry="2.5" style="stroke:#181818;stroke-width:0.5;" width="84" x="748" y="88.6094"/><text fill="#000000" font-family="sans-serif" font-size="14" lengthAdjust="spacing" textLength="70" x="755" y="110.1426">コンソール</text><rect fill="#E2E2F0" height="31.6094" rx="2.5" ry="2.5" style="stroke:#181818;stroke-width:0.5;" width="84" x="748" y="1025.7109"/><text fill="#000000" font-family="sans-serif" font-size="14" lengthAdjust="spacing" textLength="70" x="755" y="1047.2441">コンソール</text><text fill="#000000" font-family="sans-serif" font-size="14" lengthAdjust="spacing" textLength="56" x="938" y="118.1426">サポータ</text><ellipse cx="969" cy="52.1094" fill="#E2E2F0" rx="8" ry="8" style="stroke:#181818;stroke-width:0.5;"/><path d="M969,60.1094 L969,87.1094 M956,68.1094 L982,68.1094 M969,87.1094 L956,102.1094 M969,87.1094 L982,102.1094 " fill="none" style="stroke:#181818;stroke-width:0.5;"/><text fill="#000000" font-family="sans-serif" font-size="14" lengthAdjust="spacing" textLength="56" x="938" y="1040.2441">サポータ</text><ellipse cx="969" cy="1051.8203" fill="#E2E2F0" rx="8" ry="8" style="stroke:#181818;stroke-width:0.5;"/><path d="M969,1059.8203 L969,1086.8203 M956,1067.8203 L982,1067.8203 M969,1086.8203 L956,1101.8203 M969,1086.8203 L982,1101.8203 " fill="none" style="stroke:#181818;stroke-width:0.5;"/><polygon fill="#181818" points="801,149.5703,791,153.5703,801,157.5703,797,153.5703" style="stroke:#181818;stroke-width:1.0;"/><line style="stroke:#181818;stroke-width:1.0;" x1="795" x2="968" y1="153.5703" y2="153.5703"/><text fill="#000000" font-family="sans-serif" font-size="13" lengthAdjust="spacing" textLength="155" x="807" y="148.7139">サーバのIPアドレスを入力</text><line style="stroke:#181818;stroke-width:1.0;" x1="790" x2="832" y1="183.9219" y2="183.9219"/><line style="stroke:#181818;stroke-width:1.0;" x1="832" x2="832" y1="183.9219" y2="196.9219"/><line style="stroke:#181818;stroke-width:1.0;" x1="791" x2="832" y1="196.9219" y2="196.9219"/><polygon fill="#181818" points="801,192.9219,791,196.9219,801,200.9219,797,196.9219" style="stroke:#181818;stroke-width:1.0;"/><text fill="#000000" font-family="sans-serif" font-size="13" lengthAdjust="spacing" textLength="142" x="797" y="179.0654">接続先IPアドレスを更新</text><polygon fill="#181818" points="801,223.2734,791,227.2734,801,231.2734,797,227.2734" style="stroke:#181818;stroke-width:1.0;"/><line style="stroke:#181818;stroke-width:1.0;" x1="795" x2="968" y1="227.2734" y2="227.2734"/><text fill="#000000" font-family="sans-serif" font-size="13" lengthAdjust="spacing" textLength="143" x="807" y="222.417">「ライブを準備」を押下</text><polygon fill="#181818" points="375,253.625,365,257.625,375,261.625,371,257.625" style="stroke:#181818;stroke-width:1.0;"/><line style="stroke:#181818;stroke-width:1.0;" x1="369" x2="789" y1="257.625" y2="257.625"/><text fill="#000000" font-family="sans-serif" font-size="13" lengthAdjust="spacing" textLength="91" x="381" y="252.7686">ライブ準備命令</text><line style="stroke:#181818;stroke-width:1.0;" x1="364" x2="406" y1="287.9766" y2="287.9766"/><line style="stroke:#181818;stroke-width:1.0;" x1="406" x2="406" y1="287.9766" y2="300.9766"/><line style="stroke:#181818;stroke-width:1.0;" x1="365" x2="406" y1="300.9766" y2="300.9766"/><polygon fill="#181818" points="375,296.9766,365,300.9766,375,304.9766,371,300.9766" style="stroke:#181818;stroke-width:1.0;"/><text fill="#000000" font-family="sans-serif" font-size="13" lengthAdjust="spacing" textLength="130" x="371" y="283.1201">「準備中」状態に遷移</text><polygon fill="#181818" points="778,327.3281,788,331.3281,778,335.3281,782,331.3281" style="stroke:#181818;stroke-width:1.0;"/><line style="stroke:#181818;stroke-width:1.0;stroke-dasharray:2.0,2.0;" x1="364" x2="784" y1="331.3281" y2="331.3281"/><text fill="#000000" font-family="sans-serif" font-size="13" lengthAdjust="spacing" textLength="52" x="371" y="326.4717">処理結果</text><polygon fill="#181818" points="532,357.6797,522,361.6797,532,365.6797,528,361.6797" style="stroke:#181818;stroke-width:1.0;"/><line style="stroke:#181818;stroke-width:1.0;" x1="526" x2="699" y1="361.6797" y2="361.6797"/><text fill="#000000" font-family="sans-serif" font-size="13" lengthAdjust="spacing" textLength="155" x="538" y="356.8232">サーバのIPアドレスを入力</text><line style="stroke:#181818;stroke-width:1.0;" x1="521" x2="563" y1="392.0313" y2="392.0313"/><line style="stroke:#181818;stroke-width:1.0;" x1="563" x2="563" y1="392.0313" y2="405.0313"/><line style="stroke:#181818;stroke-width:1.0;" x1="522" x2="563" y1="405.0313" y2="405.0313"/><polygon fill="#181818" points="532,401.0313,522,405.0313,532,409.0313,528,405.0313" style="stroke:#181818;stroke-width:1.0;"/><text fill="#000000" font-family="sans-serif" font-size="13" lengthAdjust="spacing" textLength="142" x="528" y="387.1748">接続先IPアドレスを更新</text><polygon fill="#181818" points="532,431.3828,522,435.3828,532,439.3828,528,435.3828" style="stroke:#181818;stroke-width:1.0;"/><line style="stroke:#181818;stroke-width:1.0;" x1="526" x2="699" y1="435.3828" y2="435.3828"/><text fill="#000000" font-family="sans-serif" font-size="13" lengthAdjust="spacing" textLength="117" x="538" y="430.5264">「接続する」を押下</text><polygon fill="#181818" points="375,461.7344,365,465.7344,375,469.7344,371,465.7344" style="stroke:#181818;stroke-width:1.0;"/><line style="stroke:#181818;stroke-width:1.0;" x1="369" x2="520" y1="465.7344" y2="465.7344"/><text fill="#000000" font-family="sans-serif" font-size="13" lengthAdjust="spacing" textLength="117" x="381" y="460.8779">サーバの状態を確認</text><polygon fill="#181818" points="509,492.0859,519,496.0859,509,500.0859,513,496.0859" style="stroke:#181818;stroke-width:1.0;"/><line style="stroke:#181818;stroke-width:1.0;stroke-dasharray:2.0,2.0;" x1="364" x2="515" y1="496.0859" y2="496.0859"/><text fill="#000000" font-family="sans-serif" font-size="13" lengthAdjust="spacing" textLength="65" x="371" y="491.2295">現在の状態</text><polygon fill="#181818" points="375,522.4375,365,526.4375,375,530.4375,371,526.4375" style="stroke:#181818;stroke-width:1.0;"/><line style="stroke:#181818;stroke-width:1.0;" x1="369" x2="520" y1="526.4375" y2="526.4375"/><text fill="#000000" font-family="sans-serif" font-size="13" lengthAdjust="spacing" textLength="91" x="381" y="521.5811">ステージに接続</text><polygon fill="#181818" points="688,552.7891,698,556.7891,688,560.7891,692,556.7891" style="stroke:#181818;stroke-width:1.0;"/><line style="stroke:#181818;stroke-width:1.0;stroke-dasharray:2.0,2.0;" x1="521" x2="694" y1="556.7891" y2="556.7891"/><text fill="#000000" font-family="sans-serif" font-size="13" lengthAdjust="spacing" textLength="104" x="528" y="551.9326">ライブ画面を表示</text><polygon fill="#181818" points="196,583.1406,206,587.1406,196,591.1406,200,587.1406" style="stroke:#181818;stroke-width:1.0;"/><line style="stroke:#181818;stroke-width:1.0;" x1="29" x2="202" y1="587.1406" y2="587.1406"/><text fill="#000000" font-family="sans-serif" font-size="13" lengthAdjust="spacing" textLength="91" x="36" y="582.2842">ユーザ名を入力</text><polygon fill="#181818" points="196,613.4922,206,617.4922,196,621.4922,200,617.4922" style="stroke:#181818;stroke-width:1.0;"/><line style="stroke:#181818;stroke-width:1.0;" x1="29" x2="202" y1="617.4922" y2="617.4922"/><text fill="#000000" font-family="sans-serif" font-size="13" lengthAdjust="spacing" textLength="155" x="36" y="612.6357">サーバのIPアドレスを入力</text><line style="stroke:#181818;stroke-width:1.0;" x1="208" x2="250" y1="647.8438" y2="647.8438"/><line style="stroke:#181818;stroke-width:1.0;" x1="250" x2="250" y1="647.8438" y2="660.8438"/><line style="stroke:#181818;stroke-width:1.0;" x1="209" x2="250" y1="660.8438" y2="660.8438"/><polygon fill="#181818" points="219,656.8438,209,660.8438,219,664.8438,215,660.8438" style="stroke:#181818;stroke-width:1.0;"/><text fill="#000000" font-family="sans-serif" font-size="13" lengthAdjust="spacing" textLength="142" x="215" y="642.9873">接続先IPアドレスを更新</text><polygon fill="#181818" points="196,687.1953,206,691.1953,196,695.1953,200,691.1953" style="stroke:#181818;stroke-width:1.0;"/><line style="stroke:#181818;stroke-width:1.0;" x1="29" x2="202" y1="691.1953" y2="691.1953"/><text fill="#000000" font-family="sans-serif" font-size="13" lengthAdjust="spacing" textLength="117" x="36" y="686.3389">「参加する」を押下</text><polygon fill="#181818" points="352,717.5469,362,721.5469,352,725.5469,356,721.5469" style="stroke:#181818;stroke-width:1.0;"/><line style="stroke:#181818;stroke-width:1.0;" x1="208" x2="358" y1="721.5469" y2="721.5469"/><text fill="#000000" font-family="sans-serif" font-size="13" lengthAdjust="spacing" textLength="117" x="215" y="716.6904">サーバの状態を確認</text><polygon fill="#181818" points="219,747.8984,209,751.8984,219,755.8984,215,751.8984" style="stroke:#181818;stroke-width:1.0;"/><line style="stroke:#181818;stroke-width:1.0;stroke-dasharray:2.0,2.0;" x1="213" x2="363" y1="751.8984" y2="751.8984"/><text fill="#000000" font-family="sans-serif" font-size="13" lengthAdjust="spacing" textLength="65" x="225" y="747.042">現在の状態</text><polygon fill="#181818" points="352,778.25,362,782.25,352,786.25,356,782.25" style="stroke:#181818;stroke-width:1.0;"/><line style="stroke:#181818;stroke-width:1.0;" x1="208" x2="358" y1="782.25" y2="782.25"/><text fill="#000000" font-family="sans-serif" font-size="13" lengthAdjust="spacing" textLength="78" x="215" y="777.3936">待機所に接続</text><polygon fill="#181818" points="40,808.6016,30,812.6016,40,816.6016,36,812.6016" style="stroke:#181818;stroke-width:1.0;"/><line style="stroke:#181818;stroke-width:1.0;" x1="34" x2="207" y1="812.6016" y2="812.6016"/><text fill="#000000" font-family="sans-serif" font-size="13" lengthAdjust="spacing" textLength="91" x="46" y="807.7451">待機画面を表示</text><polygon fill="#181818" points="801,838.9531,791,842.9531,801,846.9531,797,842.9531" style="stroke:#181818;stroke-width:1.0;"/><line style="stroke:#181818;stroke-width:1.0;" x1="795" x2="968" y1="842.9531" y2="842.9531"/><text fill="#000000" font-family="sans-serif" font-size="13" lengthAdjust="spacing" textLength="143" x="807" y="838.0967">「ライブを開始」を押下</text><polygon fill="#181818" points="375,869.3047,365,873.3047,375,877.3047,371,873.3047" style="stroke:#181818;stroke-width:1.0;"/><line style="stroke:#181818;stroke-width:1.0;" x1="369" x2="789" y1="873.3047" y2="873.3047"/><text fill="#000000" font-family="sans-serif" font-size="13" lengthAdjust="spacing" textLength="91" x="381" y="868.4482">ライブ開始命令</text><line style="stroke:#181818;stroke-width:1.0;" x1="364" x2="406" y1="903.6563" y2="903.6563"/><line style="stroke:#181818;stroke-width:1.0;" x1="406" x2="406" y1="903.6563" y2="916.6563"/><line style="stroke:#181818;stroke-width:1.0;" x1="365" x2="406" y1="916.6563" y2="916.6563"/><polygon fill="#181818" points="375,912.6563,365,916.6563,375,920.6563,371,916.6563" style="stroke:#181818;stroke-width:1.0;"/><text fill="#000000" font-family="sans-serif" font-size="13" lengthAdjust="spacing" textLength="143" x="371" y="898.7998">「ライブ中」状態に遷移</text><polygon fill="#181818" points="778,943.0078,788,947.0078,778,951.0078,782,947.0078" style="stroke:#181818;stroke-width:1.0;"/><line style="stroke:#181818;stroke-width:1.0;stroke-dasharray:2.0,2.0;" x1="364" x2="784" y1="947.0078" y2="947.0078"/><text fill="#000000" font-family="sans-serif" font-size="13" lengthAdjust="spacing" textLength="52" x="371" y="942.1514">処理結果</text><polygon fill="#181818" points="219,973.3594,209,977.3594,219,981.3594,215,977.3594" style="stroke:#181818;stroke-width:1.0;"/><line style="stroke:#181818;stroke-width:1.0;" x1="213" x2="363" y1="977.3594" y2="977.3594"/><text fill="#000000" font-family="sans-serif" font-size="13" lengthAdjust="spacing" textLength="117" x="225" y="972.5029">ライブ画面表示命令</text><polygon fill="#181818" points="40,1003.7109,30,1007.7109,40,1011.7109,36,1007.7109" style="stroke:#181818;stroke-width:1.0;"/><line style="stroke:#181818;stroke-width:1.0;" x1="34" x2="207" y1="1007.7109" y2="1007.7109"/><text fill="#000000" font-family="sans-serif" font-size="13" lengthAdjust="spacing" textLength="104" x="46" y="1002.8545">ライブ画面を表示</text><line style="stroke:#000000;stroke-width:1.0;stroke-dasharray:2.0,2.0;" x1="0" x2="1005" y1="1015.7109" y2="1015.7109"/><!--MD5=[1cd86ef0e3052d592dbf079007a4c1d7]
@startuml 1_joinLive

title ライブ開始

actor ユーザ as user
participant クライアント as client
participant サーバ as server
participant コントローラ as controller
actor プレゼンタ as presenter
participant コンソール as console
actor サポータ as supporter

supporter -> console : サーバのIPアドレスを入力
console -> console : 接続先IPアドレスを更新
supporter -> console : 「ライブを準備」を押下
console -> server : ライブ準備命令
server -> server : 「準備中」状態に遷移
server - -> console : 処理結果

presenter -> controller : サーバのIPアドレスを入力
controller -> controller : 接続先IPアドレスを更新
presenter -> controller : 「接続する」を押下
controller -> server : サーバの状態を確認
server - -> controller : 現在の状態
controller -> server : ステージに接続
controller - -> presenter : ライブ画面を表示

user -> client : ユーザ名を入力
user -> client : サーバのIPアドレスを入力
client -> client : 接続先IPアドレスを更新
user -> client : 「参加する」を押下
client -> server : サーバの状態を確認
server - -> client : 現在の状態
client -> server : 待機所に接続
client -> user : 待機画面を表示

supporter -> console : 「ライブを開始」を押下
console -> server : ライブ開始命令
server -> server : 「ライブ中」状態に遷移
server - -> console : 処理結果
server -> client : ライブ画面表示命令
client -> user : ライブ画面を表示

newpage ライブ終了

supporter -> console : 「ライブを終了」を押下
console -> server : ライブ終了命令
server -> server : 「停止中」状態に遷移
server - -> console : 処理結果
server -> client : タイトル画面表示命令
client -> user : タイトル画面を表示
server -> controller : タイトル画面表示命令
controller -> presenter : タイトル画面を表示
@enduml

PlantUML version 1.2022.7(Tue Aug 23 02:01:30 JST 2022)
(GPL source distribution)
Java Runtime: Java(TM) SE Runtime Environment
JVM: Java HotSpot(TM) 64-Bit Server VM
Default Encoding: MS932
Language: ja
Country: JP
--></g></svg>