<?xml version="1.0" encoding="UTF-8" standalone="no"?><svg xmlns="http://www.w3.org/2000/svg" xmlns:xlink="http://www.w3.org/1999/xlink" contentStyleType="text/css" height="485px" preserveAspectRatio="none" style="width:527px;height:485px;background:#FFFFFF;" version="1.1" viewBox="0 0 527 485" width="527px" zoomAndPan="magnify"><defs/><g><rect fill="none" height="27.6094" id="_title" style="stroke:none;stroke-width:1.0;" width="85" x="220" y="10"/><text fill="#000000" font-family="sans-serif" font-size="14" font-weight="bold" lengthAdjust="spacing" textLength="75" x="225" y="29.5332">ライブ開始</text><line style="stroke:#181818;stroke-width:0.5;stroke-dasharray:5.0,5.0;" x1="66" x2="66" y1="93.8281" y2="431.6953"/><line style="stroke:#181818;stroke-width:0.5;stroke-dasharray:5.0,5.0;" x1="177" x2="177" y1="93.8281" y2="431.6953"/><line style="stroke:#181818;stroke-width:0.5;stroke-dasharray:5.0,5.0;" x1="255" x2="255" y1="93.8281" y2="431.6953"/><line style="stroke:#181818;stroke-width:0.5;stroke-dasharray:5.0,5.0;" x1="383" x2="383" y1="93.8281" y2="431.6953"/><line style="stroke:#181818;stroke-width:0.5;stroke-dasharray:5.0,5.0;" x1="481" x2="481" y1="93.8281" y2="431.6953"/><rect fill="#E2E2F0" height="49.2188" rx="2.5" ry="2.5" style="stroke:#181818;stroke-width:0.5;" width="122" x="5" y="43.6094"/><text fill="#000000" font-family="sans-serif" font-size="14" lengthAdjust="spacing" textLength="56" x="38" y="65.1426">アバター</text><text fill="#000000" font-family="sans-serif" font-size="14" lengthAdjust="spacing" textLength="108" x="12" y="82.752">(クライアント側)</text><rect fill="#E2E2F0" height="49.2188" rx="2.5" ry="2.5" style="stroke:#181818;stroke-width:0.5;" width="122" x="5" y="430.6953"/><text fill="#000000" font-family="sans-serif" font-size="14" lengthAdjust="spacing" textLength="56" x="38" y="452.2285">アバター</text><text fill="#000000" font-family="sans-serif" font-size="14" lengthAdjust="spacing" textLength="108" x="12" y="469.8379">(クライアント側)</text><rect fill="#E2E2F0" height="49.2188" rx="2.5" ry="2.5" style="stroke:#181818;stroke-width:0.5;" width="80" x="137" y="43.6094"/><text fill="#000000" font-family="sans-serif" font-size="14" lengthAdjust="spacing" textLength="56" x="149" y="65.1426">アバター</text><text fill="#000000" font-family="sans-serif" font-size="14" lengthAdjust="spacing" textLength="66" x="144" y="82.752">(サーバ側)</text><rect fill="#E2E2F0" height="49.2188" rx="2.5" ry="2.5" style="stroke:#181818;stroke-width:0.5;" width="80" x="137" y="430.6953"/><text fill="#000000" font-family="sans-serif" font-size="14" lengthAdjust="spacing" textLength="56" x="149" y="452.2285">アバター</text><text fill="#000000" font-family="sans-serif" font-size="14" lengthAdjust="spacing" textLength="66" x="144" y="469.8379">(サーバ側)</text><rect fill="#E2E2F0" height="31.6094" rx="2.5" ry="2.5" style="stroke:#181818;stroke-width:0.5;" width="56" x="227" y="61.2188"/><text fill="#000000" font-family="sans-serif" font-size="14" lengthAdjust="spacing" textLength="42" x="234" y="82.752">サーバ</text><rect fill="#E2E2F0" height="31.6094" rx="2.5" ry="2.5" style="stroke:#181818;stroke-width:0.5;" width="56" x="227" y="430.6953"/><text fill="#000000" font-family="sans-serif" font-size="14" lengthAdjust="spacing" textLength="42" x="234" y="452.2285">サーバ</text><rect fill="#E2E2F0" height="31.6094" rx="2.5" ry="2.5" style="stroke:#181818;stroke-width:0.5;" width="98" x="334" y="61.2188"/><text fill="#000000" font-family="sans-serif" font-size="14" lengthAdjust="spacing" textLength="84" x="341" y="82.752">コントローラ</text><rect fill="#E2E2F0" height="31.6094" rx="2.5" ry="2.5" style="stroke:#181818;stroke-width:0.5;" width="98" x="334" y="430.6953"/><text fill="#000000" font-family="sans-serif" font-size="14" lengthAdjust="spacing" textLength="84" x="341" y="452.2285">コントローラ</text><rect fill="#E2E2F0" height="31.6094" rx="2.5" ry="2.5" style="stroke:#181818;stroke-width:0.5;" width="79" x="442" y="61.2188"/><text fill="#000000" font-family="sans-serif" font-size="14" lengthAdjust="spacing" textLength="65" x="449" y="82.752">Pose Cam</text><rect fill="#E2E2F0" height="31.6094" rx="2.5" ry="2.5" style="stroke:#181818;stroke-width:0.5;" width="79" x="442" y="430.6953"/><text fill="#000000" font-family="sans-serif" font-size="14" lengthAdjust="spacing" textLength="65" x="449" y="452.2285">Pose Cam</text><polygon fill="#181818" points="266,122.1797,256,126.1797,266,130.1797,262,126.1797" style="stroke:#181818;stroke-width:1.0;"/><line style="stroke:#181818;stroke-width:1.0;" x1="260" x2="382" y1="126.1797" y2="126.1797"/><text fill="#000000" font-family="sans-serif" font-size="13" lengthAdjust="spacing" textLength="91" x="272" y="121.3232">ステージに接続</text><line style="stroke:#181818;stroke-width:1.0;" x1="255" x2="297" y1="172.8828" y2="172.8828"/><line style="stroke:#181818;stroke-width:1.0;" x1="297" x2="297" y1="172.8828" y2="185.8828"/><line style="stroke:#181818;stroke-width:1.0;" x1="256" x2="297" y1="185.8828" y2="185.8828"/><polygon fill="#181818" points="266,181.8828,256,185.8828,266,189.8828,262,185.8828" style="stroke:#181818;stroke-width:1.0;"/><text fill="#000000" font-family="sans-serif" font-size="13" lengthAdjust="spacing" textLength="91" x="262" y="151.6748">通信に使用する</text><text fill="#000000" font-family="sans-serif" font-size="13" lengthAdjust="spacing" textLength="104" x="262" y="168.0264">ポート番号を決定</text><polygon fill="#181818" points="188,212.2344,178,216.2344,188,220.2344,184,216.2344" style="stroke:#181818;stroke-width:1.0;"/><line style="stroke:#181818;stroke-width:1.0;" x1="182" x2="254" y1="216.2344" y2="216.2344"/><text fill="#000000" font-family="sans-serif" font-size="13" lengthAdjust="spacing" textLength="26" x="194" y="211.3779">生成</text><polygon fill="#181818" points="77,242.5859,67,246.5859,77,250.5859,73,246.5859" style="stroke:#181818;stroke-width:1.0;"/><line style="stroke:#181818;stroke-width:1.0;" x1="71" x2="254" y1="246.5859" y2="246.5859"/><text fill="#000000" font-family="sans-serif" font-size="13" lengthAdjust="spacing" textLength="26" x="83" y="241.7295">生成</text><line style="stroke:#181818;stroke-width:1.0;" x1="66" x2="108" y1="293.2891" y2="293.2891"/><line style="stroke:#181818;stroke-width:1.0;" x1="108" x2="108" y1="293.2891" y2="306.2891"/><line style="stroke:#181818;stroke-width:1.0;" x1="67" x2="108" y1="306.2891" y2="306.2891"/><polygon fill="#181818" points="77,302.2891,67,306.2891,77,310.2891,73,306.2891" style="stroke:#181818;stroke-width:1.0;"/><text fill="#000000" font-family="sans-serif" font-size="13" lengthAdjust="spacing" textLength="74" x="73" y="272.0811">Pose Camの</text><text fill="#000000" font-family="sans-serif" font-size="13" lengthAdjust="spacing" textLength="91" x="73" y="288.4326">レシーバを削除</text><polygon fill="#181818" points="371,348.9922,381,352.9922,371,356.9922,375,352.9922" style="stroke:#181818;stroke-width:1.0;"/><line style="stroke:#181818;stroke-width:1.0;" x1="255" x2="377" y1="352.9922" y2="352.9922"/><text fill="#000000" font-family="sans-serif" font-size="13" lengthAdjust="spacing" textLength="52" x="262" y="331.7842">使用する</text><text fill="#000000" font-family="sans-serif" font-size="13" lengthAdjust="spacing" textLength="104" x="262" y="348.1357">ポート番号を表示</text><polygon fill="#181818" points="188,379.3438,178,383.3438,188,387.3438,184,383.3438" style="stroke:#181818;stroke-width:1.0;"/><line style="stroke:#181818;stroke-width:1.0;" x1="182" x2="480.5" y1="383.3438" y2="383.3438"/><text fill="#000000" font-family="sans-serif" font-size="13" lengthAdjust="spacing" textLength="234" x="194" y="378.4873">表示されたポート番号で姿勢情報を送信</text><polygon fill="#181818" points="77,409.6953,67,413.6953,77,417.6953,73,413.6953" style="stroke:#181818;stroke-width:1.0;"/><line style="stroke:#181818;stroke-width:1.0;" x1="71" x2="176" y1="413.6953" y2="413.6953"/><text fill="#000000" font-family="sans-serif" font-size="13" lengthAdjust="spacing" textLength="78" x="83" y="408.8389">ポーズを同期</text><!--MD5=[a7f9beb5f983098dd5871c1b407251ee]
@startuml 2_syncPose

title ライブ開始

participant "アバター\n(クライアント側)" as avatar_client
participant "アバター\n(サーバ側)" as avatar_server
participant サーバ as server
participant コントローラ as controller
participant "Pose Cam" as camera

controller -> server : ステージに接続
server -> server : 通信に使用する\nポート番号を決定
' create participant アバター だと一番右に出てきて見づらい
server -> avatar_server : 生成
server -> avatar_client : 生成
avatar_client -> avatar_client : Pose Camの\nレシーバを削除
server -> controller : 使用する\nポート番号を表示
camera -> avatar_server : 表示されたポート番号で姿勢情報を送信
avatar_server -> avatar_client : ポーズを同期

@enduml

@startuml 2_syncPose

title ライブ開始

participant "アバター\n(クライアント側)" as avatar_client
participant "アバター\n(サーバ側)" as avatar_server
participant サーバ as server
participant コントローラ as controller
participant "Pose Cam" as camera

controller -> server : ステージに接続
server -> server : 通信に使用する\nポート番号を決定
server -> avatar_server : 生成
server -> avatar_client : 生成
avatar_client -> avatar_client : Pose Camの\nレシーバを削除
server -> controller : 使用する\nポート番号を表示
camera -> avatar_server : 表示されたポート番号で姿勢情報を送信
avatar_server -> avatar_client : ポーズを同期

@enduml

PlantUML version 1.2022.7(Tue Aug 23 02:01:30 JST 2022)
(GPL source distribution)
Java Runtime: Java(TM) SE Runtime Environment
JVM: Java HotSpot(TM) 64-Bit Server VM
Default Encoding: MS932
Language: ja
Country: JP
--></g></svg>