<?xml version="1.0" encoding="UTF-8" standalone="no"?><svg xmlns="http://www.w3.org/2000/svg" xmlns:xlink="http://www.w3.org/1999/xlink" contentStyleType="text/css" height="505px" preserveAspectRatio="none" style="width:397px;height:505px;background:#FFFFFF;" version="1.1" viewBox="0 0 397 505" width="397px" zoomAndPan="magnify"><defs/><g><rect fill="none" height="27.6094" id="_title" style="stroke:none;stroke-width:1.0;" width="170" x="112.5" y="10"/><text fill="#000000" font-family="sans-serif" font-size="14" font-weight="bold" lengthAdjust="spacing" textLength="160" x="117.5" y="29.5332">ミニゲーム(じゃんけん)</text><line style="stroke:#181818;stroke-width:0.5;stroke-dasharray:5.0,5.0;" x1="54" x2="54" y1="76.2188" y2="469.0859"/><line style="stroke:#181818;stroke-width:0.5;stroke-dasharray:5.0,5.0;" x1="169" x2="169" y1="76.2188" y2="469.0859"/><line style="stroke:#181818;stroke-width:0.5;stroke-dasharray:5.0,5.0;" x1="349" x2="349" y1="76.2188" y2="469.0859"/><rect fill="#E2E2F0" height="31.6094" rx="2.5" ry="2.5" style="stroke:#181818;stroke-width:0.5;" width="98" x="5" y="43.6094"/><text fill="#000000" font-family="sans-serif" font-size="14" lengthAdjust="spacing" textLength="84" x="12" y="65.1426">クライアント</text><rect fill="#E2E2F0" height="31.6094" rx="2.5" ry="2.5" style="stroke:#181818;stroke-width:0.5;" width="98" x="5" y="468.0859"/><text fill="#000000" font-family="sans-serif" font-size="14" lengthAdjust="spacing" textLength="84" x="12" y="489.6191">クライアント</text><rect fill="#E2E2F0" height="31.6094" rx="2.5" ry="2.5" style="stroke:#181818;stroke-width:0.5;" width="56" x="141" y="43.6094"/><text fill="#000000" font-family="sans-serif" font-size="14" lengthAdjust="spacing" textLength="42" x="148" y="65.1426">サーバ</text><rect fill="#E2E2F0" height="31.6094" rx="2.5" ry="2.5" style="stroke:#181818;stroke-width:0.5;" width="56" x="141" y="468.0859"/><text fill="#000000" font-family="sans-serif" font-size="14" lengthAdjust="spacing" textLength="42" x="148" y="489.6191">サーバ</text><rect fill="#E2E2F0" height="31.6094" rx="2.5" ry="2.5" style="stroke:#181818;stroke-width:0.5;" width="84" x="307" y="43.6094"/><text fill="#000000" font-family="sans-serif" font-size="14" lengthAdjust="spacing" textLength="70" x="314" y="65.1426">コンソール</text><rect fill="#E2E2F0" height="31.6094" rx="2.5" ry="2.5" style="stroke:#181818;stroke-width:0.5;" width="84" x="307" y="468.0859"/><text fill="#000000" font-family="sans-serif" font-size="14" lengthAdjust="spacing" textLength="70" x="314" y="489.6191">コンソール</text><polygon fill="#181818" points="180,104.5703,170,108.5703,180,112.5703,176,108.5703" style="stroke:#181818;stroke-width:1.0;"/><line style="stroke:#181818;stroke-width:1.0;" x1="174" x2="348" y1="108.5703" y2="108.5703"/><text fill="#000000" font-family="sans-serif" font-size="13" lengthAdjust="spacing" textLength="91" x="186" y="103.7139">ゲーム開始命令</text><polygon fill="#181818" points="65,134.9219,55,138.9219,65,142.9219,61,138.9219" style="stroke:#181818;stroke-width:1.0;"/><line style="stroke:#181818;stroke-width:1.0;" x1="59" x2="168" y1="138.9219" y2="138.9219"/><text fill="#000000" font-family="sans-serif" font-size="13" lengthAdjust="spacing" textLength="78" x="71" y="134.0654">タイトル表示</text><polygon fill="#181818" points="180,165.2734,170,169.2734,180,173.2734,176,169.2734" style="stroke:#181818;stroke-width:1.0;"/><line style="stroke:#181818;stroke-width:1.0;" x1="174" x2="348" y1="169.2734" y2="169.2734"/><text fill="#000000" font-family="sans-serif" font-size="13" lengthAdjust="spacing" textLength="104" x="186" y="164.417">ラウンド開始命令</text><polygon fill="#181818" points="65,195.625,55,199.625,65,203.625,61,199.625" style="stroke:#181818;stroke-width:1.0;"/><line style="stroke:#181818;stroke-width:1.0;" x1="59" x2="168" y1="199.625" y2="199.625"/><text fill="#000000" font-family="sans-serif" font-size="13" lengthAdjust="spacing" textLength="65" x="71" y="194.7686">選択肢表示</text><line style="stroke:#181818;stroke-width:1.0;" x1="54" x2="96" y1="229.9766" y2="229.9766"/><line style="stroke:#181818;stroke-width:1.0;" x1="96" x2="96" y1="229.9766" y2="242.9766"/><line style="stroke:#181818;stroke-width:1.0;" x1="55" x2="96" y1="242.9766" y2="242.9766"/><polygon fill="#181818" points="65,238.9766,55,242.9766,65,246.9766,61,242.9766" style="stroke:#181818;stroke-width:1.0;"/><text fill="#000000" font-family="sans-serif" font-size="13" lengthAdjust="spacing" textLength="65" x="61" y="225.1201">選択を待機</text><polygon fill="#181818" points="157,269.3281,167,273.3281,157,277.3281,161,273.3281" style="stroke:#181818;stroke-width:1.0;"/><line style="stroke:#181818;stroke-width:1.0;" x1="54" x2="163" y1="273.3281" y2="273.3281"/><text fill="#000000" font-family="sans-serif" font-size="13" lengthAdjust="spacing" textLength="91" x="61" y="268.4717">選んだ手を送信</text><polygon fill="#181818" points="180,299.6797,170,303.6797,180,307.6797,176,303.6797" style="stroke:#181818;stroke-width:1.0;"/><line style="stroke:#181818;stroke-width:1.0;" x1="174" x2="348" y1="303.6797" y2="303.6797"/><text fill="#000000" font-family="sans-serif" font-size="13" lengthAdjust="spacing" textLength="130" x="186" y="298.8232">プレゼンタの手を送信</text><polygon fill="#181818" points="65,330.0313,55,334.0313,65,338.0313,61,334.0313" style="stroke:#181818;stroke-width:1.0;"/><line style="stroke:#181818;stroke-width:1.0;" x1="59" x2="168" y1="334.0313" y2="334.0313"/><text fill="#000000" font-family="sans-serif" font-size="13" lengthAdjust="spacing" textLength="52" x="71" y="329.1748">結果表示</text><polygon fill="#181818" points="180,360.3828,170,364.3828,180,368.3828,176,364.3828" style="stroke:#181818;stroke-width:1.0;"/><line style="stroke:#181818;stroke-width:1.0;" x1="174" x2="348" y1="364.3828" y2="364.3828"/><text fill="#000000" font-family="sans-serif" font-size="13" lengthAdjust="spacing" textLength="156" x="186" y="359.5264">ランキングボード表示命令</text><line style="stroke:#181818;stroke-width:1.0;" x1="169" x2="211" y1="394.7344" y2="394.7344"/><line style="stroke:#181818;stroke-width:1.0;" x1="211" x2="211" y1="394.7344" y2="407.7344"/><line style="stroke:#181818;stroke-width:1.0;" x1="170" x2="211" y1="407.7344" y2="407.7344"/><polygon fill="#181818" points="180,403.7344,170,407.7344,180,411.7344,176,407.7344" style="stroke:#181818;stroke-width:1.0;"/><text fill="#000000" font-family="sans-serif" font-size="13" lengthAdjust="spacing" textLength="65" x="176" y="389.8779">勝利者抽選</text><line style="stroke:#181818;stroke-width:1.0;" x1="169" x2="211" y1="438.0859" y2="438.0859"/><line style="stroke:#181818;stroke-width:1.0;" x1="211" x2="211" y1="438.0859" y2="451.0859"/><line style="stroke:#181818;stroke-width:1.0;" x1="170" x2="211" y1="451.0859" y2="451.0859"/><polygon fill="#181818" points="180,447.0859,170,451.0859,180,455.0859,176,451.0859" style="stroke:#181818;stroke-width:1.0;"/><text fill="#000000" font-family="sans-serif" font-size="13" lengthAdjust="spacing" textLength="130" x="176" y="433.2295">ランキングボード表示</text><!--MD5=[2c6ea21c7219e62fe14bac2763e1ffc3]
@startuml 6_rps

title ミニゲーム(じゃんけん)

participant クライアント as client
participant サーバ as server
participant コンソール as console

console -> server : ゲーム開始命令
server -> client : タイトル表示
console -> server : ラウンド開始命令
server -> client : 選択肢表示
client -> client : 選択を待機
client -> server : 選んだ手を送信
console -> server : プレゼンタの手を送信
server -> client : 結果表示
console -> server : ランキングボード表示命令
server -> server : 勝利者抽選
server -> server : ランキングボード表示

@enduml

PlantUML version 1.2022.7(Tue Aug 23 02:01:30 JST 2022)
(GPL source distribution)
Java Runtime: Java(TM) SE Runtime Environment
JVM: Java HotSpot(TM) 64-Bit Server VM
Default Encoding: MS932
Language: ja
Country: JP
--></g></svg>