<?xml version="1.0" encoding="UTF-8" standalone="no"?>
<!-- Created with Inkscape (http://www.inkscape.org/) -->

<svg
   width="1024"
   height="1024"
   viewBox="0 0 270.93332 270.93333"
   version="1.1"
   id="svg5"
   inkscape:version="1.2 (dc2aedaf03, 2022-05-15)"
   sodipodi:docname="paper_off.svg"
   xml:space="preserve"
   xmlns:inkscape="http://www.inkscape.org/namespaces/inkscape"
   xmlns:sodipodi="http://sodipodi.sourceforge.net/DTD/sodipodi-0.dtd"
   xmlns="http://www.w3.org/2000/svg"
   xmlns:svg="http://www.w3.org/2000/svg"><sodipodi:namedview
     id="namedview7"
     pagecolor="#eeeeee"
     bordercolor="#eeeeee"
     borderopacity="1"
     inkscape:showpageshadow="0"
     inkscape:pageopacity="1"
     inkscape:pagecheckerboard="true"
     inkscape:deskcolor="#505050"
     inkscape:document-units="px"
     showgrid="false"
     inkscape:zoom="0.35134368"
     inkscape:cx="545.05036"
     inkscape:cy="529.39617"
     inkscape:window-width="1920"
     inkscape:window-height="1017"
     inkscape:window-x="-8"
     inkscape:window-y="-8"
     inkscape:window-maximized="1"
     inkscape:current-layer="layer1" /><defs
     id="defs2"><clipPath
       clipPathUnits="userSpaceOnUse"
       id="clipPath18"><path
         d="M 0,800 H 800 V 0 H 0 Z"
         id="path16" /></clipPath><clipPath
       clipPathUnits="userSpaceOnUse"
       id="clipPath145"><path
         d="M 0,800 H 800 V 0 H 0 Z"
         id="path143" /></clipPath></defs><g
     inkscape:label="Layer 1"
     inkscape:groupmode="layer"
     id="layer1"><circle
       style="fill:#ffffff;fill-opacity:1;stroke:#999999;stroke-width:16.9333;stroke-dasharray:none"
       id="path181"
       cx="135.46669"
       cy="135.46667"
       r="127.00002" /><path
       d="m 197.75593,120.73837 c 2.21464,-5.46483 1.29523,-11.59203 -2.04304,-13.61611 -3.33827,-2.0236 -8.73157,0.34367 -11.98561,5.26084 l -11.9748,18.09601 c -3.2538,4.91716 -4.93133,4.21759 -3.72802,-1.55466 l 7.28084,-34.920786 c 1.20355,-5.77226 -1.52514,-11.39428 -6.0636,-12.49295 -4.53919,-1.09868 -9.43811,2.67877 -10.88718,8.39439 l -9.40163,37.086216 c -1.4493,5.71562 -2.72989,5.56874 -2.84677,-0.32687 l -0.953,-48.212416 c -0.1164,-5.89537 -4.30135,-10.7187 -9.29964,-10.7187 -4.99852,0 -9.21803,4.82261 -9.37643,10.71702 l -1.24819,46.393056 c -0.15839,5.89441 -1.67225,6.09528 -3.36371,0.44662 L 111.67971,91.274964 c -1.69169,-5.64865 -6.89997,-9.36899 -11.57475,-8.26695 -4.674293,1.10155 -7.360513,6.69118 -5.969283,12.42119 L 106.05073,144.4996 c 1.39147,5.73001 -1.27987,7.45794 -5.93617,3.84033 l -10.628223,-8.25784 c -4.6563,-3.6181 -11.47491,-3.01548 -15.15253,1.33867 -3.67785,4.35415 -2.98668,11.01245 1.53594,14.79614 l 10.84182,9.07092 c 4.52262,3.78345 13.03509,18.89638 18.943423,24.74711 20.34256,20.14385 53.04032,12.2292 60.121,8.1988 13.66411,-7.77809 16.58575,-32.02938 16.58575,-32.02938 0.70533,-5.85434 3.09444,-15.11533 5.30907,-20.58016 z"
       style="fill:#999999;fill-opacity:1;fill-rule:nonzero;stroke:none;stroke-width:0.352778"
       id="path149"
       clip-path="url(#clipPath476)" /></g></svg>
