<?xml version="1.0" encoding="UTF-8" standalone="no"?>
<!-- Created with Inkscape (http://www.inkscape.org/) -->

<svg
   width="1024"
   height="1024"
   viewBox="0 0 270.93332 270.93333"
   version="1.1"
   id="svg5"
   inkscape:version="1.2 (dc2aedaf03, 2022-05-15)"
   sodipodi:docname="rock.svg"
   xml:space="preserve"
   xmlns:inkscape="http://www.inkscape.org/namespaces/inkscape"
   xmlns:sodipodi="http://sodipodi.sourceforge.net/DTD/sodipodi-0.dtd"
   xmlns="http://www.w3.org/2000/svg"
   xmlns:svg="http://www.w3.org/2000/svg"><sodipodi:namedview
     id="namedview7"
     pagecolor="#eeeeee"
     bordercolor="#eeeeee"
     borderopacity="1"
     inkscape:showpageshadow="0"
     inkscape:pageopacity="0"
     inkscape:pagecheckerboard="true"
     inkscape:deskcolor="#505050"
     inkscape:document-units="px"
     showgrid="false"
     inkscape:zoom="0.35134368"
     inkscape:cx="542.20414"
     inkscape:cy="529.39617"
     inkscape:window-width="1920"
     inkscape:window-height="1017"
     inkscape:window-x="-8"
     inkscape:window-y="-8"
     inkscape:window-maximized="1"
     inkscape:current-layer="layer1" /><defs
     id="defs2"><clipPath
       clipPathUnits="userSpaceOnUse"
       id="clipPath18"><path
         d="M 0,800 H 800 V 0 H 0 Z"
         id="path16" /></clipPath></defs><g
     inkscape:label="Layer 1"
     inkscape:groupmode="layer"
     id="layer1"><circle
       style="fill:#ffffff;fill-opacity:1;stroke:#999999;stroke-width:16.9333;stroke-dasharray:none"
       id="path181"
       cx="135.46669"
       cy="135.46667"
       r="127.00002" /><g
       id="g14"
       clip-path="url(#clipPath18)"
       style="fill:#999999;stroke-width:1.46731"
       transform="matrix(0.2404255,0,0,-0.2404255,39.296444,231.63673)"><g
         id="g20"
         transform="translate(465.9014,456.3999)"
         style="fill:#999999;stroke-width:1.46731"><path
           d="m 0,0 c 3.685,-6.85 6.621,-15.042 8.312,-24.861 0.743,-4.317 1.23,-8.49 1.513,-12.546 4.085,-1.317 8.378,-2.085 12.807,-2.189 22.895,-0.549 43.219,16.7 48.857,39.596 0.754,3.059 1.255,6.215 1.455,9.447 l 8.902,143.904 c 0.812,13.143 -3.57,25.644 -12.342,35.198 -8.771,9.554 -20.851,14.987 -34.015,15.298 l -14.177,0.336 c -0.397,0.01 -0.792,0.014 -1.188,0.014 -12.915,0 -24.959,-5.002 -33.91,-14.083 -8.955,-9.086 -13.785,-21.224 -13.598,-34.178 L -25.51,26.055 C -16.503,20.974 -6.925,12.871 0,0"
           style="fill:#999999;fill-opacity:1;fill-rule:nonzero;stroke:none;stroke-width:1.46731"
           id="path22" /></g><g
         id="g24"
         transform="translate(311.5771,497.7002)"
         style="fill:#999999;stroke-width:1.46731"><path
           d="m 0,0 c 46.244,0.163 85.814,-4.812 92.494,-5.701 1.363,0.003 3.725,-0.052 6.765,-0.356 l -2.405,143.301 c -0.44,26.231 -21.277,46.778 -47.437,46.778 -0.907,0 -1.828,-0.025 -2.739,-0.075 L 32.517,183.169 C 19.368,182.446 7.463,176.638 -1.005,166.814 -9.474,156.991 -13.465,144.36 -12.242,131.249 Z"
           style="fill:#999999;fill-opacity:1;fill-rule:nonzero;stroke:none;stroke-width:1.46731"
           id="path26" /></g><g
         id="g28"
         transform="translate(185.2432,474.6899)"
         style="fill:#999999;stroke-width:1.46731"><path
           d="M 0,0 C 22.535,12.335 55,19.75 97.017,22.152 L 86.485,151.604 c -2.028,24.932 -22.318,43.731 -47.195,43.731 -1.947,0 -3.926,-0.118 -5.883,-0.353 l -14.081,-1.688 c -13.075,-1.567 -24.582,-8.128 -32.4,-18.477 -7.819,-10.348 -10.988,-23.21 -8.924,-36.215 z"
           style="fill:#999999;fill-opacity:1;fill-rule:nonzero;stroke:none;stroke-width:1.46731"
           id="path30" /></g><g
         id="g32"
         transform="translate(608.3145,387.3018)"
         style="fill:#999999;stroke-width:1.46731"><path
           d="M 0,0 C -0.93,0 -1.864,0.048 -2.798,0.091 -4.526,0.169 -6.254,0.292 -7.962,0.513 -24.697,2.68 -39.361,11.52 -49.713,24.121 -53.814,29.116 -57.236,34.699 -59.839,40.699 -72.847,20.858 -94.738,7.606 -118.73,7.606 c -0.524,0 -1.044,0.006 -1.569,0.019 -4.537,0.106 -8.974,0.688 -13.278,1.675 -2.077,-11.854 -6.705,-22.186 -13.921,-30.872 -10.207,-12.29 -25.099,-20.76 -44.259,-25.177 -19.416,-4.476 -69.454,-5.896 -99.397,-6.346 8.379,-14.435 15.328,-35.87 6.987,-61.748 -2.963,-9.193 -7.66,-18.014 -12.766,-25.85 -11.401,-17.495 -24.853,-30.065 -25.663,-30.817 -4.681,-4.331 -11.989,-4.051 -16.321,0.63 -4.331,4.678 -4.053,11.98 0.62,16.315 0.243,0.225 24.443,22.915 32.144,46.808 10.663,33.079 -15.035,56.347 -16.135,57.32 -3.59,3.182 -4.861,8.272 -3.161,12.757 1.7,4.487 5.975,7.474 10.772,7.476 25.609,0.013 96.681,1.111 117.732,5.964 25.794,5.947 39.449,20.063 41.326,42.915 0.351,4.274 0.281,8.862 -0.191,13.751 -0.245,2.549 -0.588,5.173 -1.056,7.892 -2.107,12.232 -6.903,21.857 -14.3,28.78 -2.146,2.01 -4.509,3.795 -7.093,5.345 -0.738,0.443 -1.496,0.867 -2.269,1.272 -0.902,0.473 -1.825,0.923 -2.774,1.344 -2.14,0.947 -4.245,1.693 -6.25,2.287 -0.399,0.118 -0.791,0.227 -1.181,0.333 -4.586,1.247 -8.544,1.69 -10.999,1.84 -1.648,0.1 -2.626,0.073 -2.659,0.074 -0.703,-0.03 -1.412,0.002 -2.109,0.099 -19.062,2.652 -51.868,5.602 -86.889,5.578 -3.171,-0.003 -6.359,-0.03 -9.556,-0.083 -0.602,-0.011 -1.205,-0.022 -1.807,-0.035 -3.046,-0.06 -6.1,-0.144 -9.153,-0.256 -0.671,-0.025 -1.342,-0.052 -2.013,-0.08 -3.005,-0.122 -6.008,-0.271 -9.003,-0.448 -35.326,-2.086 -69.426,-8.128 -90.791,-21.397 -3.269,-2.031 -6.239,-4.231 -8.87,-6.611 -0.417,-0.378 -0.84,-0.752 -1.24,-1.138 -2.121,-2.051 -4.31,-4.435 -6.529,-7.08 -23.808,-28.381 -51.516,-89.452 -45.485,-150.692 4.925,-50.021 31.147,-90.666 77.937,-120.803 144.582,-93.125 229.878,-21.24 230.722,-20.504 2.657,2.319 6.228,3.297 9.695,2.655 0.655,-0.121 66.437,-12.001 107.358,0.913 21.663,6.839 41.505,26.967 57.38,58.211 26.528,52.213 38.293,127.302 32.8,192.667 C 27.146,4.654 13.936,0 0,0"
           style="fill:#999999;fill-opacity:1;fill-rule:nonzero;stroke:none;stroke-width:1.46731"
           id="path34" /></g><g
         id="g36"
         transform="translate(662.1611,585.9971)"
         style="fill:#999999;stroke-width:1.46731"><path
           d="m 0,0 c -6.798,9.149 -16.853,15.005 -28.312,16.489 l -14.253,1.846 c -1.848,0.239 -3.716,0.36 -5.553,0.36 -21.499,0 -39.005,-16.288 -40.721,-37.887 l -8.553,-107.704 c -0.071,-0.904 -0.109,-1.804 -0.128,-2.701 -0.272,-12.445 4.404,-24.157 12.216,-32.806 6.796,-7.525 15.957,-12.735 26.307,-14.076 0.778,-0.101 1.565,-0.173 2.352,-0.228 0.934,-0.065 1.869,-0.104 2.798,-0.104 13.745,0 26.444,6.866 34.718,17.607 3.877,5.033 6.782,10.915 8.366,17.347 0.285,1.159 0.535,2.333 0.734,3.525 L 7.611,-31.87 C 9.5,-20.469 6.797,-9.15 0,0"
           style="fill:#999999;fill-opacity:1;fill-rule:nonzero;stroke:none;stroke-width:1.46731"
           id="path38" /></g></g></g></svg>
