<?xml version="1.0" encoding="UTF-8" standalone="no"?>
<!-- Created with Inkscape (http://www.inkscape.org/) -->

<svg
   width="1024"
   height="1024"
   viewBox="0 0 270.93332 270.93333"
   version="1.1"
   id="svg5"
   inkscape:version="1.2 (dc2aedaf03, 2022-05-15)"
   sodipodi:docname="scissor_off.svg"
   xml:space="preserve"
   xmlns:inkscape="http://www.inkscape.org/namespaces/inkscape"
   xmlns:sodipodi="http://sodipodi.sourceforge.net/DTD/sodipodi-0.dtd"
   xmlns="http://www.w3.org/2000/svg"
   xmlns:svg="http://www.w3.org/2000/svg"><sodipodi:namedview
     id="namedview7"
     pagecolor="#eeeeee"
     bordercolor="#eeeeee"
     borderopacity="1"
     inkscape:showpageshadow="0"
     inkscape:pageopacity="1"
     inkscape:pagecheckerboard="true"
     inkscape:deskcolor="#505050"
     inkscape:document-units="px"
     showgrid="false"
     inkscape:zoom="0.35134368"
     inkscape:cx="545.05036"
     inkscape:cy="529.39617"
     inkscape:window-width="1920"
     inkscape:window-height="1017"
     inkscape:window-x="-8"
     inkscape:window-y="-8"
     inkscape:window-maximized="1"
     inkscape:current-layer="layer1" /><defs
     id="defs2"><clipPath
       clipPathUnits="userSpaceOnUse"
       id="clipPath18"><path
         d="M 0,800 H 800 V 0 H 0 Z"
         id="path16" /></clipPath><clipPath
       clipPathUnits="userSpaceOnUse"
       id="clipPath18-3"><path
         d="M 0,800 H 800 V 0 H 0 Z"
         id="path16-1" /></clipPath></defs><g
     inkscape:label="Layer 1"
     inkscape:groupmode="layer"
     id="layer1"><circle
       style="fill:#ffffff;fill-opacity:1;stroke:#999999;stroke-width:16.9333;stroke-dasharray:none"
       id="path181"
       cx="135.46669"
       cy="135.46667"
       r="127.00002" /><g
       id="g14"
       clip-path="url(#clipPath18-3)"
       style="fill:#999999;stroke-width:1.45887"
       transform="matrix(0.24181553,0,0,-0.24181553,38.740533,232.83836)"><g
         id="g20"
         transform="translate(331.9067,387.333)"
         style="fill:#999999;stroke-width:1.45887"><path
           d="m 0,0 c 34.802,3.572 64.623,2.851 68.24,2.745 2.601,0.066 5.611,-0.128 8.847,-0.649 l 30.541,64.697 30.457,177.96 c 3.905,22.805 -11.46,45.192 -34.144,49.751 l -0.545,0.11 C 80.713,299.172 58.19,284.392 53.345,261.77 L 12.99,73.354 C 8.144,50.732 -0.457,50.575 -6.125,73.006 l -47.923,189.678 c -5.667,22.431 -28.729,36.441 -51.248,31.134 l -0.524,-0.124 c -22.519,-5.307 -37.103,-28.185 -32.409,-50.84 L -83.652,-20.541 C -64.003,-10.58 -36.002,-3.694 0,0"
           style="fill:#999999;fill-opacity:1;fill-rule:nonzero;stroke:none;stroke-width:1.45887"
           id="path22" /></g><g
         id="g24"
         transform="translate(462.9238,456.8218)"
         style="fill:#999999;stroke-width:1.45887"><path
           d="m 0,0 -34.982,-74.106 c 10.056,-5.823 19.355,-15.683 23.72,-31.556 0.623,-2.265 1.153,-4.643 1.563,-7.16 2.344,-14.42 1.129,-27.053 -3.367,-37.491 11.984,1.245 23.234,8.521 29.351,19.274 l 14.438,25.377 39.39,69.238 c 4.68,8.226 5.805,17.676 3.166,26.609 -2.638,8.934 -8.718,16.257 -17.117,20.62 l -9.498,4.934 C 41.648,18.345 36.303,19.667 30.775,19.667 17.518,19.667 5.727,12.131 0,0"
           style="fill:#999999;fill-opacity:1;fill-rule:nonzero;stroke:none;stroke-width:1.45887"
           id="path26" /></g><g
         id="g28"
         transform="translate(561.2227,258.3408)"
         style="fill:#999999;stroke-width:1.45887"><path
           d="m 0,0 c -5.541,-8.018 -13.074,-14.231 -21.672,-18.181 -6.887,-3.163 -14.455,-4.876 -22.246,-4.876 -9.578,0 -18.814,2.656 -26.707,7.679 -13.24,8.427 -21.217,22.504 -22.898,37.56 -0.366,3.277 -0.432,6.598 -0.19,9.921 -6.691,-2.692 -13.898,-4.146 -21.287,-4.146 -3.82,0 -7.545,0.41 -11.17,1.181 -6.899,-5.333 -15.562,-9.24 -25.892,-11.52 -13.622,-3.007 -48.951,-10.871 -69.357,-15.416 6.731,-10.701 13.999,-26.842 12.071,-44.739 -0.549,-5.096 -1.835,-9.728 -3.569,-13.903 -1.622,-3.909 -3.64,-7.409 -5.823,-10.513 -8.178,-11.629 -18.669,-17.625 -19.345,-18.003 -4.821,-2.691 -10.914,-0.968 -13.607,3.853 -1.971,3.528 -1.569,7.732 0.674,10.79 0.812,1.11 1.86,2.072 3.133,2.792 0.261,0.151 16.793,9.863 18.652,27.125 2.344,21.764 -16.537,41.867 -16.727,42.067 -0.763,0.8 -1.356,1.716 -1.809,2.689 -1.026,2.203 -1.255,4.737 -0.528,7.128 0.466,1.533 1.296,2.888 2.366,4.006 1.338,1.4 3.061,2.42 5.016,2.856 0.648,0.144 64.965,14.476 84.542,18.797 2.988,0.661 5.744,1.48 8.275,2.457 3.7,1.427 6.913,3.195 9.643,5.309 2.773,2.147 5.045,4.652 6.825,7.519 4.653,7.494 5.933,17.463 3.891,30.017 -0.647,3.976 -1.692,7.399 -3.005,10.37 -1.846,4.172 -4.233,7.431 -6.861,9.967 -1.371,1.323 -2.803,2.449 -4.258,3.411 -3.082,2.037 -6.252,3.337 -9.097,4.154 -5.214,1.497 -9.329,1.403 -9.763,1.387 -0.213,-0.007 -0.427,-0.007 -0.641,-0.001 h -0.037 c -30.423,0.99 -110.375,-1.777 -147.328,-23.741 -3.714,-2.207 -6.998,-4.606 -9.749,-7.217 -14.273,-13.545 -28.092,-55.205 -25.526,-98.89 1.645,-28.028 10.904,-65.843 42.73,-90.683 67.324,-52.547 160.644,-12.172 160.906,-12.04 2.037,1.023 4.361,1.319 6.59,0.842 0.375,-0.08 43.154,-5.894 79.087,7.054 45.443,16.374 81.145,116.992 82.523,153.197 z"
           style="fill:#999999;fill-opacity:1;fill-rule:nonzero;stroke:none;stroke-width:1.45887"
           id="path30" /></g><g
         id="g32"
         transform="translate(606.6094,375.0908)"
         style="fill:#999999;stroke-width:1.45887"><path
           d="m 0,0 c -1.607,7.948 -6.322,14.763 -13.277,19.189 l -9.151,5.825 c -4.865,3.096 -10.42,4.733 -16.062,4.733 -10.614,0 -20.19,-5.543 -25.614,-14.829 l -22.693,-38.849 -27.918,-47.793 c -1.744,-2.984 -2.969,-6.142 -3.715,-9.358 -3.029,-13.037 1.912,-27.017 13.157,-34.173 4.679,-2.977 10.201,-4.552 15.968,-4.552 8.291,0 16.188,3.096 22.246,8.518 1.946,1.741 3.704,3.717 5.221,5.912 l 38.145,55.173 7.048,10.196 6.795,9.83 5.073,7.337 C -0.088,-16.06 1.607,-7.948 0,0"
           style="fill:#999999;fill-opacity:1;fill-rule:nonzero;stroke:none;stroke-width:1.45887"
           id="path34" /></g></g></g></svg>
