<?xml version="1.0" encoding="UTF-8" standalone="no"?>
<!-- Created with Inkscape (http://www.inkscape.org/) -->

<svg
   width="128"
   height="128"
   viewBox="0 0 33.866665 33.866667"
   version="1.1"
   id="svg5"
   inkscape:version="1.2.1 (9c6d41e410, 2022-07-14)"
   sodipodi:docname="yellButton.svg"
   xml:space="preserve"
   inkscape:export-filename="yellButton.png"
   inkscape:export-xdpi="96"
   inkscape:export-ydpi="96"
   xmlns:inkscape="http://www.inkscape.org/namespaces/inkscape"
   xmlns:sodipodi="http://sodipodi.sourceforge.net/DTD/sodipodi-0.dtd"
   xmlns="http://www.w3.org/2000/svg"
   xmlns:svg="http://www.w3.org/2000/svg"><sodipodi:namedview
     id="namedview7"
     pagecolor="#505050"
     bordercolor="#999999"
     borderopacity="1"
     inkscape:showpageshadow="0"
     inkscape:pageopacity="0"
     inkscape:pagecheckerboard="true"
     inkscape:deskcolor="#505050"
     inkscape:document-units="px"
     showgrid="false"
     inkscape:zoom="2"
     inkscape:cx="38"
     inkscape:cy="50"
     inkscape:window-width="1360"
     inkscape:window-height="705"
     inkscape:window-x="-8"
     inkscape:window-y="-8"
     inkscape:window-maximized="1"
     inkscape:current-layer="layer1" /><defs
     id="defs2" /><g
     inkscape:label="Layer 1"
     inkscape:groupmode="layer"
     id="layer1"><ellipse
       style="fill:#ffffff;stroke:none;stroke-width:0.529167;stroke-linecap:round;paint-order:stroke fill markers;stop-color:#000000"
       id="path231"
       cx="16.933334"
       cy="16.933332"
       rx="16.933334"
       ry="16.933332" /><ellipse
       style="fill:none;stroke:#00b06b;stroke-width:1.05833;stroke-linecap:round;stroke-dasharray:none;paint-order:stroke fill markers;stop-color:#000000"
       id="ellipse287"
       cx="16.933334"
       cy="16.933331"
       rx="15.345835"
       ry="15.345833" /><g
       style="fill:#00b06b;stroke-width:0.31264"
       id="g4979"
       transform="matrix(0.84628717,0,0,0.84628717,6.7778869,6.7816818)"><path
         d="m 14.5,2 a 3.25,3.25 0 0 1 2.739,5 H 19.75 C 20.44,7 21,7.56 21,8.25 v 3.5 a 1.25,1.25 0 0 1 -1,1.225 v 5.775 a 3.25,3.25 0 0 1 -3.066,3.245 L 16.75,22 H 7.25 A 3.25,3.25 0 0 1 4.005,18.934 L 4,18.75 V 12.975 C 3.43,12.859 3,12.355 3,11.75 V 8.25 C 3,7.56 3.56,7 4.25,7 H 6.761 A 3.25,3.25 0 0 1 12.001,3.173 3.24,3.24 0 0 1 14.5,2 Z M 11.25,12.999 H 5.5 v 5.751 a 1.75,1.75 0 0 0 1.606,1.744 L 7.25,20.5 h 4 z m 7.25,0 H 12.75 V 20.5 h 4 a 1.75,1.75 0 0 0 1.744,-1.607 L 18.5,18.75 Z M 11.25,8.5 H 4.5 v 3 l 6.75,-10e-4 z m 8.25,3 v -3 h -6.75 v 2.999 z m -5,-8 a 1.75,1.75 0 0 0 -1.75,1.75 v 1.749 h 1.774 l 0.12,-0.005 A 1.75,1.75 0 0 0 14.5,3.5 Z m -5,0 A 1.75,1.75 0 0 0 9.356,6.994 l 0.12,0.005 H 11.25 V 5.25 L 11.244,5.106 A 1.75,1.75 0 0 0 9.5,3.5 Z"
         fill="#ffffff"
         id="path4970"
         style="fill:#00b06b;stroke-width:0.31264" /></g></g></svg>
