<?xml version="1.0" encoding="UTF-8" standalone="no"?>
<!-- Created with Inkscape (http://www.inkscape.org/) -->

<svg
   width="1920"
   height="1080"
   viewBox="0 0 507.99998 285.75"
   version="1.1"
   id="svg5"
   inkscape:version="1.2.1 (9c6d41e410, 2022-07-14)"
   xml:space="preserve"
   sodipodi:docname="title.svg"
   xmlns:inkscape="http://www.inkscape.org/namespaces/inkscape"
   xmlns:sodipodi="http://sodipodi.sourceforge.net/DTD/sodipodi-0.dtd"
   xmlns:xlink="http://www.w3.org/1999/xlink"
   xmlns="http://www.w3.org/2000/svg"
   xmlns:svg="http://www.w3.org/2000/svg"><sodipodi:namedview
     id="namedview7"
     pagecolor="#ffffff"
     bordercolor="#999999"
     borderopacity="1"
     inkscape:showpageshadow="0"
     inkscape:pageopacity="0"
     inkscape:pagecheckerboard="true"
     inkscape:deskcolor="#505050"
     inkscape:document-units="px"
     showgrid="false"
     inkscape:zoom="0.36010068"
     inkscape:cx="862.25885"
     inkscape:cy="505.41421"
     inkscape:window-width="1366"
     inkscape:window-height="705"
     inkscape:window-x="-8"
     inkscape:window-y="1072"
     inkscape:window-maximized="1"
     inkscape:current-layer="svg5" /><defs
     id="defs2" /><rect
     style="fill:#f8f8f8;stroke-width:0.386051"
     id="rect913"
     width="508"
     height="285.75"
     x="0"
     y="-7.1054274e-15"
     sodipodi:insensitive="true" /><g
     id="g651"
     inkscape:label="Template"
     style="display:none"><rect
       style="fill:#00b06b;fill-opacity:1;stroke-width:0.172749"
       id="rect231"
       width="135.46666"
       height="67.73333"
       x="184.06242"
       y="189.83063"
       inkscape:label="rectTemplate" /><text
       xml:space="preserve"
       style="font-size:16.9333px;text-align:center;white-space:pre;shape-inside:url(#rect231);display:inline;fill:#ffffff;fill-opacity:1;stroke-width:0.264999"
       x="258.30823"
       y="127.84619"
       id="text3628"
       inkscape:label="rectTemplateText"><tspan
         x="217.9293"
         y="206.84804"
         id="tspan298"><tspan
           style="font-family:'RocknRoll One';-inkscape-font-specification:'RocknRoll One';stroke-width:0.265"
           id="tspan296">サンプル</tspan></tspan></text></g><image
     preserveAspectRatio="none"
     inkscape:svg-dpi="96"
     width="205.60948"
     height="101.6"
     style="image-rendering:optimizeSpeed"
     xlink:href="..%5C..%5Cimages%5Cui%5C.%5C..%5Clogo%5C2.svg"
     id="image436"
     x="151.04753"
     y="33.866665" /><g
     id="g666"
     inkscape:label="Template"
     transform="matrix(1,0,0,0.97683875,61.718852,3.1557952)"><rect
       style="fill:#00b06b;fill-opacity:1;stroke-width:0.123592"
       id="rect658"
       width="135.46666"
       height="34.669659"
       x="124.54781"
       y="219.95531"
       inkscape:label="rectTemplate" /><text
       xml:space="preserve"
       style="font-size:16.9333px;text-align:center;white-space:pre;shape-inside:url(#rect658);display:inline;fill:#ffffff;fill-opacity:1;stroke-width:0.264999"
       x="258.30823"
       y="127.84619"
       id="text664"
       inkscape:label="rectTemplateText"><tspan
         x="158.41367"
         y="236.97304"
         id="tspan304"><tspan
           style="font-family:'RocknRoll One';-inkscape-font-specification:'RocknRoll One'"
           id="tspan300">参加</tspan><tspan
           style="font-family:'RocknRoll One';-inkscape-font-specification:'RocknRoll One'"
           id="tspan302">する</tspan></tspan></text></g><rect
     style="fill:#ffffff;fill-opacity:1;stroke:#999999;stroke-width:0.262831;stroke-dasharray:none;stroke-opacity:1"
     id="rect668"
     width="202.93716"
     height="33.603836"
     x="152.53142"
     y="173.69807" /><text
     xml:space="preserve"
     style="font-size:16.9333px;font-family:'RocknRoll One';-inkscape-font-specification:'RocknRoll One';text-align:center;text-anchor:middle;fill:#999999;fill-opacity:1;stroke:none;stroke-width:0.264583;stroke-dasharray:none;stroke-opacity:1"
     x="193.81885"
     y="166.35304"
     id="text1048"><tspan
       sodipodi:role="line"
       id="tspan1046"
       style="fill:#999999;fill-opacity:1;stroke:none;stroke-width:0.264583"
       x="193.81885"
       y="166.35304">ユーザー名</tspan></text><g
     style="fill:#555555"
     id="g2395"
     transform="matrix(1.3026003,0,0,1.3026003,462.22853,14.002482)"><path
       d="m 12.012,2.25 c 0.734,0.008 1.465,0.093 2.182,0.253 a 0.75,0.75 0 0 1 0.582,0.649 l 0.17,1.527 a 1.384,1.384 0 0 0 1.927,1.116 L 18.274,5.18 a 0.75,0.75 0 0 1 0.85,0.174 9.792,9.792 0 0 1 2.204,3.792 0.75,0.75 0 0 1 -0.271,0.825 l -1.242,0.916 a 1.381,1.381 0 0 0 0,2.226 l 1.243,0.915 a 0.75,0.75 0 0 1 0.272,0.826 9.797,9.797 0 0 1 -2.204,3.792 0.75,0.75 0 0 1 -0.848,0.175 l -1.407,-0.617 a 1.38,1.38 0 0 0 -1.926,1.114 l -0.169,1.526 a 0.75,0.75 0 0 1 -0.572,0.647 9.518,9.518 0 0 1 -4.406,0 0.75,0.75 0 0 1 -0.572,-0.647 L 9.058,19.32 A 1.382,1.382 0 0 0 7.132,18.21 L 5.726,18.826 A 0.75,0.75 0 0 1 4.877,18.651 9.798,9.798 0 0 1 2.673,14.855 0.75,0.75 0 0 1 2.945,14.029 l 1.243,-0.916 a 1.38,1.38 0 0 0 0,-2.226 L 2.945,9.973 A 0.75,0.75 0 0 1 2.674,9.147 9.793,9.793 0 0 1 4.878,5.355 0.75,0.75 0 0 1 5.728,5.181 l 1.4,0.615 A 1.387,1.387 0 0 0 9.058,4.678 L 9.228,3.152 A 0.75,0.75 0 0 1 9.811,2.502 C 10.528,2.343 11.261,2.259 12.012,2.25 Z M 12,9 a 3,3 0 1 0 0,6 3,3 0 0 0 0,-6 z"
       fill="#ffffff"
       id="path2386"
       style="fill:#555555" /></g></svg>
