<?xml version="1.0" encoding="UTF-8" standalone="no"?>
<!-- Created with Inkscape (http://www.inkscape.org/) -->

<svg
   width="1280"
   height="720"
   viewBox="0 0 338.66665 190.5"
   version="1.1"
   id="svg5"
   inkscape:version="1.2 (dc2aedaf03, 2022-05-15)"
   sodipodi:docname="logo.svg"
   xml:space="preserve"
   xmlns:inkscape="http://www.inkscape.org/namespaces/inkscape"
   xmlns:sodipodi="http://sodipodi.sourceforge.net/DTD/sodipodi-0.dtd"
   xmlns:xlink="http://www.w3.org/1999/xlink"
   xmlns="http://www.w3.org/2000/svg"
   xmlns:svg="http://www.w3.org/2000/svg"><sodipodi:namedview
     id="namedview7"
     pagecolor="#eeeeee"
     bordercolor="#eeeeee"
     borderopacity="1"
     inkscape:showpageshadow="0"
     inkscape:pageopacity="1"
     inkscape:pagecheckerboard="true"
     inkscape:deskcolor="#505050"
     inkscape:document-units="px"
     showgrid="false"
     inkscape:zoom="0.74564394"
     inkscape:cx="538.46076"
     inkscape:cy="383.56109"
     inkscape:window-width="1920"
     inkscape:window-height="1017"
     inkscape:window-x="-8"
     inkscape:window-y="-8"
     inkscape:window-maximized="1"
     inkscape:current-layer="g280" /><defs
     id="defs2"><linearGradient
       inkscape:collect="always"
       id="linearGradient5694"><stop
         style="stop-color:#0054ff;stop-opacity:1;"
         offset="0"
         id="stop5690" /><stop
         style="stop-color:#80ff80;stop-opacity:1;"
         offset="1"
         id="stop5692" /></linearGradient><linearGradient
       inkscape:collect="always"
       xlink:href="#linearGradient5694"
       id="linearGradient5544"
       x1="56.112328"
       y1="-0.00017317809"
       x2="327.04561"
       y2="-0.00017317809"
       gradientUnits="userSpaceOnUse" /><linearGradient
       inkscape:collect="always"
       xlink:href="#linearGradient5694"
       id="linearGradient5558"
       x1="73.303581"
       y1="67.735374"
       x2="197.62988"
       y2="203.20055"
       gradientUnits="userSpaceOnUse" /></defs><g
     inkscape:label="text"
     inkscape:groupmode="layer"
     id="layer1"><path
       id="path968"
       style="font-size:67.7333px;font-family:'Poiret One';-inkscape-font-specification:'Poiret One';text-align:start;text-anchor:start;display:inline;fill:#000000;stroke:none;stroke-width:0.264583"
       d="m 77.214844,25.027344 c -8.854528,18.167699 -17.701189,36.344493 -26.548828,54.517578 1.483724,0 2.967448,0 4.451172,0 3.159506,-6.457666 6.321831,-12.913957 9.482421,-19.371094 8.615235,0 17.230469,0 25.845703,0 3.205747,6.457023 6.411354,12.914114 9.617188,19.371094 1.57422,0 3.14844,0 4.72266,0 C 95.751546,61.049013 86.721134,42.55154 77.689453,24.054688 c -0.158203,0.324218 -0.316406,0.648437 -0.474609,0.972656 z m 11.375,31.064453 c -7.358073,0 -14.716146,0 -22.074219,0 3.659505,-7.513672 7.31901,-15.027344 10.978516,-22.541016 3.698567,7.513672 7.397135,15.027344 11.095703,22.541016 z" /><path
       id="path970"
       style="font-size:67.7333px;font-family:'Poiret One';-inkscape-font-specification:'Poiret One';text-align:start;text-anchor:start;display:inline;fill:#000000;stroke:none;stroke-width:0.264583"
       d="m 115.89844,46.128906 c -3.02954,-0.02953 -6.3396,1.665478 -7.40793,4.667348 -1.04431,2.973389 0.22913,6.399787 2.64367,8.32046 3.17836,2.985079 7.82934,4.037656 10.54079,7.573823 1.46283,1.952976 1.61316,4.909573 -0.0558,6.793838 -1.64148,2.053636 -4.36062,3.073699 -6.95301,2.743768 -2.10539,-0.137639 -4.0553,-1.291359 -5.25538,-3.016176 -0.89354,-1.118809 -1.29712,-2.538065 -2.13731,-3.680717 -0.49646,-0.417953 -1.10053,0.14103 -0.97058,0.707575 -0.10985,1.647995 -0.0637,3.301849 -0.0724,4.952581 1.82107,3.453251 5.86215,5.167648 9.63593,5.095574 4.98237,0.09936 9.94074,-3.464068 11.00079,-8.410027 0.68711,-2.967969 -0.0785,-6.249199 -2.1428,-8.515859 -2.87353,-3.581718 -7.59879,-4.742307 -10.94314,-7.74586 -0.93243,-0.803751 -1.68802,-2.035954 -1.24219,-3.298828 0.64616,-1.981307 3.19814,-2.610461 4.98485,-1.865281 2.18011,0.74339 3.14768,2.998376 4.45815,4.694582 0.52653,1.037944 0.37249,-0.07238 0.38708,-0.650395 0,-1.782291 0,-3.564583 0,-5.346874 -1.56625,-1.908557 -3.98573,-3.103368 -6.4707,-3.019532 z" /><path
       id="path972"
       style="font-size:67.7333px;font-family:'Poiret One';-inkscape-font-specification:'Poiret One';text-align:start;text-anchor:start;display:inline;fill:#000000;stroke:none;stroke-width:0.264583"
       d="m 130.75,35.216797 c 0.0174,11.103526 -0.0454,22.208785 0.041,33.311207 0.21374,4.632454 3.4021,8.912225 7.73049,10.536698 1.87867,0.740206 3.92019,0.967701 5.92778,0.892329 0,-1.338541 0,-2.677083 0,-4.015625 -2.72348,0.224429 -5.60339,-0.690298 -7.40585,-2.811996 -1.68001,-1.855117 -2.16843,-4.462682 -2.00821,-6.893472 0,-5.068881 0,-10.137761 0,-15.206641 3.11588,0 6.23177,0 9.34765,0 0,-1.337891 0,-2.675781 0,-4.013672 -3.11588,0 -6.23177,0 -9.34765,0 0,-4.109375 0,-8.21875 0,-12.328125 -1.42839,0 -2.85677,0 -4.28516,0 0,0.176432 0,0.352865 0,0.529297 z" /><path
       id="path974"
       style="font-size:67.7333px;font-family:'Poiret One';-inkscape-font-specification:'Poiret One';text-align:start;text-anchor:start;display:inline;fill:#000000;stroke:none;stroke-width:0.264583"
       d="m 163.03125,46.289062 c -4.76939,0.118941 -9.39891,2.370946 -12.49511,5.990795 -3.147,3.465239 -4.62325,8.320771 -4.02203,12.955155 0.90305,7.839735 7.81517,14.615805 15.74034,15.085968 4.22082,0.344827 8.63586,-0.739646 11.94362,-3.455702 0.92952,-0.72492 1.76146,-1.562995 2.55974,-2.427778 0,-2.414063 0,-4.828125 0,-7.242188 -1.63752,2.390783 -3.23076,4.929941 -5.64258,6.625 -0.64,0.433263 -1.35822,0.918349 -2.09875,1.253497 -3.21379,1.497853 -7.16168,1.812501 -10.37576,0.142296 -0.83669,-0.410656 -1.63409,-0.89864 -2.39072,-1.442667 7.04252,-6.951616 14.0834,-13.904899 21.12695,-20.855469 -2.80192,-3.340711 -6.69249,-5.959171 -11.09263,-6.484523 -1.07689,-0.149839 -2.1673,-0.17823 -3.25307,-0.144384 z m 0.26953,3.994141 c 2.87914,-0.02826 5.75206,0.942132 8.04297,2.679688 -6.01758,5.975911 -12.03516,11.951823 -18.05273,17.927734 -3.35125,-4.324232 -3.57833,-10.960008 -0.0645,-15.261681 2.37749,-3.102398 6.0725,-5.417344 10.07425,-5.345741 z" /><path
       id="path976"
       style="font-size:67.7333px;font-family:'Poiret One';-inkscape-font-specification:'Poiret One';text-align:start;text-anchor:start;display:inline;fill:#000000;stroke:none;stroke-width:0.264583"
       d="m 193.72656,46.199219 c -2.99471,0.06373 -5.97936,1.200084 -8.16211,3.269531 0,-0.840495 0,-1.68099 0,-2.521484 -1.42838,0 -2.85677,0 -4.28515,0 0,10.865885 0,21.73177 0,32.597656 1.42838,0 2.85677,0 4.28515,0 0.0221,-7.425866 -0.0616,-14.855666 0.0548,-22.279023 0.4668,-4.154656 4.65082,-7.547166 8.82605,-6.998321 1.77771,0.159923 3.50824,1.235411 4.77552,2.432197 0.43549,0.382363 0.82821,0.809303 1.24011,1.216241 0.67638,-0.104946 0.85151,-0.791415 0.75886,-1.377228 -0.0327,-1.213948 0.005,-2.430739 -0.009,-3.64621 -2.10563,-1.689636 -4.75602,-2.782224 -7.48438,-2.693359 z" /><path
       id="path978"
       style="font-size:67.7333px;font-family:'Poiret One';-inkscape-font-specification:'Poiret One';text-align:start;text-anchor:start;display:inline;fill:#000000;stroke:none;stroke-width:0.264583"
       d="m 79.103516,110.28516 c -6.43925,0.0754 -12.800425,2.60731 -17.523064,6.98724 -4.710002,4.1815 -8.143222,9.93879 -8.970593,16.23331 -1.135147,7.45985 0.977365,15.36505 5.7987,21.18749 4.933086,6.11708 12.534286,10.16378 20.450596,10.26108 5.308221,0.19149 10.696784,-1.09353 15.20981,-3.93396 0.67779,-0.15119 0.535688,-0.77139 0.528691,-1.31407 0,-1.36172 0,-2.72344 0,-4.08516 -2.918716,2.06881 -6.078025,3.87703 -9.567775,4.64394 -5.435294,1.27559 -11.368778,0.56522 -16.289647,-2.183 -5.814407,-3.37159 -10.41457,-9.20725 -11.636718,-15.84765 -0.618399,-3.26951 -0.588773,-6.61426 0.130859,-9.88477 0.70466,-3.22283 2.205058,-6.40801 4.343596,-8.99446 3.705493,-4.69652 9.163283,-8.16288 15.176917,-8.80982 5.318989,-0.68927 10.859989,0.5137 15.368037,3.43379 0.737717,0.45085 1.447361,0.94519 2.166137,1.42518 0.544385,-1.22291 0.216714,-2.57793 0.308594,-3.86836 6.5e-5,-0.54229 0.160995,-1.1782 -0.52547,-1.32455 -4.5054,-2.64374 -9.736556,-4.0739 -14.96867,-3.92623 z" /><path
       id="path980"
       style="font-size:67.7333px;font-family:'Poiret One';-inkscape-font-specification:'Poiret One';text-align:start;text-anchor:start;display:none;fill:#000000;stroke:none;stroke-width:0.264583"
       d="m 115.25,130.88672 c -4.75312,0.13701 -9.28443,2.52929 -12.32649,6.14286 -2.91452,3.2969 -4.356237,7.80098 -3.957212,12.17901 0.566069,7.48007 6.560302,14.26149 13.992682,15.51993 4.60006,0.7323 9.61482,-0.0975 13.32999,-3.03983 4.16863,-3.1641 6.96797,-8.21304 6.98375,-13.49536 0.14491,-4.52824 -1.71289,-9.04701 -4.9622,-12.19764 -2.97593,-3.08136 -7.13568,-5.01221 -11.43518,-5.10943 -0.54169,-0.0187 -1.0836,-0.0163 -1.62534,4.6e-4 z m 0.91406,3.99609 c 3.39248,-0.0677 6.77545,1.45086 9.09854,3.99106 2.76832,2.75011 4.13777,6.7845 3.63455,10.65097 -0.57517,5.7032 -5.39964,10.71429 -11.12684,11.33041 -3.94721,0.52283 -8.16118,-0.95535 -10.90276,-3.89591 -3.135,-3.1197 -4.39534,-7.9154 -3.28187,-12.18524 1.15777,-4.33991 4.64306,-8.02159 8.9358,-9.3659 1.17994,-0.35605 2.40985,-0.5336 3.64258,-0.52539 z"
       inkscape:label="path980_o" /><path
       id="path982"
       style="font-size:67.7333px;font-family:'Poiret One';-inkscape-font-specification:'Poiret One';text-align:start;text-anchor:start;display:inline;fill:#000000;stroke:none;stroke-width:0.264583"
       d="m 151.55078,130.89648 c -3.62611,0.13472 -7.31216,1.59883 -9.67383,4.42383 0,-1.23567 0,-2.47135 0,-3.70703 -1.42838,0 -2.85677,0 -4.28515,0 0,10.86589 0,21.73177 0,32.59766 1.42838,0 2.85677,0 4.28515,0 0.0323,-6.64415 -0.0671,-13.29153 0.0566,-19.9336 0.58983,-5.65895 6.39079,-10.17138 12.02766,-9.30146 3.97555,0.4671 7.2588,3.67757 8.40142,7.4251 0.71128,2.27174 0.3285,4.67927 0.42639,7.01621 0,4.93125 0,9.8625 0,14.79375 1.42774,0 2.85547,0 4.28321,0 -0.0318,-6.75946 0.0672,-13.52157 -0.0586,-20.2793 -0.46759,-6.34448 -5.6733,-12.03262 -12.01028,-12.88176 -1.14152,-0.17092 -2.30042,-0.20785 -3.45261,-0.1534 z" /><path
       id="path984"
       style="font-size:67.7333px;font-family:'Poiret One';-inkscape-font-specification:'Poiret One';text-align:start;text-anchor:start;display:inline;fill:#000000;stroke:none;stroke-width:0.264583"
       d="m 187.04297,130.89648 c -3.62602,0.13488 -7.31218,1.59852 -9.67383,4.42383 0,-1.23567 0,-2.47135 0,-3.70703 -1.42838,0 -2.85677,0 -4.28516,0 0,10.86589 0,21.73177 0,32.59766 1.42839,0 2.85678,0 4.28516,0 0.0323,-6.64415 -0.0671,-13.29153 0.0566,-19.9336 0.59074,-5.67016 6.4146,-10.18954 12.06075,-9.29665 3.8626,0.46536 7.06221,3.52409 8.27732,7.13357 0.8358,2.38077 0.41426,4.93635 0.5174,7.40293 0,4.89791 0,9.79583 0,14.69375 1.42773,0 2.85547,0 4.2832,0 -0.0318,-6.75946 0.0673,-13.52157 -0.0586,-20.2793 -0.4676,-6.34448 -5.6733,-12.03262 -12.01028,-12.88176 -1.14152,-0.17092 -2.30042,-0.20785 -3.45261,-0.1534 z" /><path
       id="path986"
       style="font-size:67.7333px;font-family:'Poiret One';-inkscape-font-specification:'Poiret One';text-align:start;text-anchor:start;display:inline;fill:#000000;stroke:none;stroke-width:0.264583"
       d="m 223.85547,130.95508 c -4.73398,0.12151 -9.33548,2.33588 -12.42761,5.91527 -3.16502,3.44718 -4.67731,8.29111 -4.1019,12.92949 0.85487,7.88346 7.79413,14.71115 15.75257,15.18882 4.15361,0.33096 8.49883,-0.69788 11.78505,-3.33316 0.99161,-0.75496 1.87366,-1.64018 2.7204,-2.55198 0,-2.41016 0,-4.82032 0,-7.23047 -1.86383,2.77271 -3.79917,5.69467 -6.79497,7.36035 -2.80233,1.62895 -6.28088,2.23373 -9.43149,1.38992 -1.57356,-0.46024 -2.99137,-1.26318 -4.28525,-2.18191 7.0422,-6.95259 14.08532,-13.90425 21.12695,-20.85743 -2.81661,-3.36986 -6.75085,-5.98767 -11.1827,-6.49848 -1.04763,-0.13519 -2.10587,-0.16107 -3.16105,-0.13042 z m 0.2793,3.99609 c 2.81458,-0.0356 5.74528,0.93196 8.0332,2.67774 -6.01758,5.97591 -12.03516,11.95182 -18.05274,17.92773 -3.38103,-4.35783 -3.57187,-11.06454 0.0142,-15.36478 2.38331,-3.05444 6.04109,-5.31162 10.00538,-5.24069 z" /><path
       id="path988"
       style="font-size:67.7333px;font-family:'Poiret One';-inkscape-font-specification:'Poiret One';text-align:start;text-anchor:start;display:inline;fill:#000000;stroke:none;stroke-width:0.264583"
       d="m 256.98242,131.02344 c -4.78632,0.12122 -9.4138,2.42329 -12.49774,6.06808 -3.16224,3.52168 -4.57463,8.45083 -3.939,13.12377 0.73298,5.77054 4.69111,10.93506 9.92112,13.39994 3.42944,1.61225 7.39255,1.82697 11.07472,1.10377 3.54577,-0.6793 6.71427,-2.71351 9.08739,-5.39745 0.18719,-0.70014 0.0188,-1.54081 0.0762,-2.29225 0,-1.7142 0,-3.42839 0,-5.14258 -1.75122,2.59086 -3.45072,5.40082 -6.21718,7.0676 -3.95708,2.69016 -9.48918,2.85497 -13.52804,0.24504 -3.9475,-2.41657 -6.54522,-7.00164 -6.25478,-11.6642 0.0672,-2.70277 1.0531,-5.40028 2.81485,-7.52153 2.54879,-3.21449 6.62682,-5.29712 10.77378,-4.97219 4.22844,0.24677 8.21919,2.86745 10.56481,6.40404 0.43466,0.43047 0.60435,1.27704 1.27419,1.3587 0.83076,-0.0434 0.51309,-1.09603 0.57237,-1.65496 0,-1.4319 0,-2.8638 0,-4.2957 -3.08953,-3.5103 -7.61332,-5.80373 -12.32617,-5.8379 -0.46573,-0.0104 -0.93089,-0.008 -1.39649,0.008 z" /><path
       id="path990"
       style="font-size:67.7333px;font-family:'Poiret One';-inkscape-font-specification:'Poiret One';text-align:start;text-anchor:start;display:inline;fill:#000000;stroke:none;stroke-width:0.264583"
       d="m 273.66797,119.88281 c 0.0178,11.10415 -0.0462,22.21017 0.0415,33.31313 0.2064,4.54404 3.28044,8.74523 7.48256,10.43781 1.94554,0.81191 4.07967,1.06831 6.17515,0.9893 0,-1.3405 0,-2.68099 0,-4.02149 -2.86123,0.26311 -5.88804,-0.80582 -7.66888,-3.12179 -1.54021,-1.88608 -1.88667,-4.41953 -1.74519,-6.77899 1e-5,-5.00182 0,-10.00364 0,-15.00547 3.11524,0 6.23047,0 9.34571,0 0,-1.33789 0,-2.67578 0,-4.01367 -3.11524,0 -6.23047,0 -9.34571,0 0,-4.10937 0,-8.21875 0,-12.32812 -1.42838,0 -2.85677,0 -4.28515,0 0,0.17643 0,0.35286 0,0.52929 z" /></g><g
     id="g4207"
     transform="translate(93.141798,120.52931)"
     inkscape:label="hashMark"><path
       style="fill:none;fill-opacity:1;stroke:#000000;stroke-width:4.23333;stroke-dasharray:none;stroke-opacity:1"
       id="path4189"
       sodipodi:type="arc"
       sodipodi:cx="5.6144171"
       sodipodi:cy="-22.421736"
       sodipodi:rx="42.333332"
       sodipodi:ry="42.333332"
       sodipodi:start="0"
       sodipodi:end="1.0471976"
       sodipodi:arc-type="arc"
       d="M 47.947749,-22.421736 A 42.333332,42.333332 0 0 1 26.781081,14.240006"
       sodipodi:open="true"
       transform="rotate(60)" /><path
       style="fill:none;fill-opacity:1;stroke:#000000;stroke-width:4.23333;stroke-dasharray:none;stroke-opacity:1"
       id="path4191"
       sodipodi:type="arc"
       sodipodi:cx="-55.10548"
       sodipodi:cy="-6.1519461"
       sodipodi:rx="42.333332"
       sodipodi:ry="42.333332"
       sodipodi:start="0"
       sodipodi:end="1.0471976"
       sodipodi:arc-type="arc"
       d="M -12.772148,-6.1519461 A 42.333332,42.333332 0 0 1 -33.938816,30.509796"
       sodipodi:open="true"
       transform="rotate(-120)" /><path
       style="fill:none;fill-opacity:1;stroke:#000000;stroke-width:4.23333;stroke-dasharray:none;stroke-opacity:1"
       id="path4193"
       sodipodi:type="arc"
       sodipodi:cx="-32.880482"
       sodipodi:cy="-44.646778"
       sodipodi:rx="42.333332"
       sodipodi:ry="42.333332"
       sodipodi:start="0"
       sodipodi:end="1.0471976"
       sodipodi:arc-type="arc"
       d="M 9.4528503,-44.646778 A 42.333332,42.333332 0 0 1 -11.713817,-7.9850361"
       sodipodi:open="true"
       transform="rotate(150)" /><path
       style="fill:none;fill-opacity:1;stroke:#000000;stroke-width:4.23333;stroke-dasharray:none;stroke-opacity:1"
       id="path4195"
       sodipodi:type="arc"
       sodipodi:cx="5.614418"
       sodipodi:cy="-22.421738"
       sodipodi:rx="42.333332"
       sodipodi:ry="42.333332"
       sodipodi:start="0"
       sodipodi:end="1.0471976"
       sodipodi:arc-type="arc"
       d="M 47.94775,-22.421738 A 42.333332,42.333332 0 0 1 26.781082,14.240004"
       sodipodi:open="true"
       transform="matrix(0.8660254,0.5,0.5,-0.8660254,0,0)" /></g><g
     id="g280"
     transform="matrix(0.25,0,0,0.25,212.90322,36.193547)"><path
       id="circle347"
       style="display:inline;fill:#ffff80;fill-opacity:1;stroke-width:2.39837;stroke-linecap:round;stroke-opacity:0.5;paint-order:stroke fill markers;stop-color:#000000"
       d="M 135.46666,0 A 135.46666,135.46666 0 0 0 0,135.46666 135.46666,135.46666 0 0 0 135.46666,270.93333 135.46666,135.46666 0 0 0 270.93333,135.46666 135.46666,135.46666 0 0 0 135.46666,0 Z m 0,33.866666 a 101.6,101.6 0 0 1 101.6,101.599994 101.6,101.6 0 0 1 -101.6,101.6 101.6,101.6 0 0 1 -101.599994,-101.6 A 101.6,101.6 0 0 1 135.46666,33.866666 Z"
       inkscape:label="o" /><path
       id="path340"
       style="fill:url(#linearGradient5544);fill-opacity:1;stroke-width:2.44121;stroke-linecap:round;stroke-opacity:0.5;paint-order:stroke fill markers;stop-color:#000000"
       d="M 95.789397,-95.789397 A 135.46666,135.46666 0 0 0 66.42415,-51.840735 135.46666,135.46666 0 0 0 95.789397,95.789397 135.46666,135.46666 0 0 0 243.41953,125.15464 135.46666,135.46666 0 0 0 327.01162,0.93069304 16.933332,16.933332 0 0 0 327.03355,0.32777057 135.46666,135.46666 0 0 0 327.04561,0 h -0.0117 a 16.933332,16.933332 0 0 0 -4.94835,-11.973675 16.933332,16.933332 0 0 0 -23.94735,0 A 16.933332,16.933332 0 0 0 293.1906,0 h -0.0117 a 101.6,101.6 0 0 1 -29.75806,71.842048 101.6,101.6 0 0 1 -143.68409,0 101.6,101.6 0 0 1 0,-143.684096 101.6,101.6 0 0 1 71.84204,-29.747102 v -0.0226 a 16.933332,16.933332 0 0 0 11.97368,-4.94762 16.933332,16.933332 0 0 0 0,-23.94735 16.933332,16.933332 0 0 0 -11.97368,-4.95858 v -10e-4 a 135.46666,135.46666 0 0 0 -0.0409,10e-4 16.933332,16.933332 0 0 0 -1.13934,0.0409 135.46666,135.46666 0 0 0 -94.609133,39.635023 z"
       transform="rotate(45)"
       inkscape:label="c" /><path
       d="M 132.23271,135.10732 86.95737,124.50714 Q 73.302901,121.09353 73.302901,111.212 q 0,-6.4679 4.85093,-11.318832 4.311938,-4.491602 9.522195,-4.491602 5.569586,0 11.678164,6.288244 l 33.59718,31.26154 1.07798,-0.35932 -12.21715,-45.275346 q -1.07799,-4.491602 -1.07799,-7.366227 0,-12.217156 14.37313,-12.217156 14.01379,0 14.01379,12.576484 0,4.311938 -0.71865,7.006899 l -12.21716,45.275346 1.07799,0.35932 33.59718,-31.26154 q 6.64757,-6.288244 12.03749,-6.288244 5.92891,0 10.60018,5.569584 4.13227,4.67127 4.13227,9.88153 0,10.24085 -13.29514,13.29514 l -45.994,10.9595 v 0.71866 l 44.55669,12.21716 q 13.65447,3.41361 13.65447,13.83413 0,6.10858 -4.67127,10.60018 -4.31194,4.13227 -9.34253,4.13227 -6.28824,0 -12.75615,-6.4679 l -32.51919,-32.15987 -1.07799,0.35933 11.85783,44.55668 q 1.07798,3.95261 1.07798,7.0069 0,13.29514 -14.01379,13.29514 -14.0138,0 -14.0138,-12.93581 0,-2.87462 1.07799,-7.36623 l 11.85782,-44.55668 -1.07798,-0.35933 -31.9802,32.15987 q -7.545894,6.82723 -13.654472,6.82723 -5.928914,0 -10.240851,-5.38992 -3.772946,-4.4916 -3.772946,-9.70186 0,-10.24085 14.013797,-13.83413 l 44.916012,-12.21716 z"
       style="font-size:367.952px;line-height:1.25;font-family:'游明朝';-inkscape-font-specification:'游明朝';fill:url(#linearGradient5558);fill-opacity:1;stroke-width:0.359304"
       id="path5442"
       inkscape:label="asterisk" /></g></svg>
