<?xml version="1.0" encoding="UTF-8" standalone="no"?><svg xmlns="http://www.w3.org/2000/svg" xmlns:xlink="http://www.w3.org/1999/xlink" contentStyleType="text/css" height="241px" preserveAspectRatio="none" style="width:113px;height:241px;background:#FFFFFF;" version="1.1" viewBox="0 0 113 241" width="113px" zoomAndPan="magnify"><defs/><g><!--MD5=[873cbab333b4ce9b2d428cf3656ef90a]
class テーブル1--><g id="elem_テーブル1"><rect codeLine="3" fill="#F1F1F1" height="75.2188" id="テーブル1" rx="2.5" ry="2.5" style="stroke:#181818;stroke-width:0.5;" width="97" x="9" y="7"/><ellipse cx="24.45" cy="23" fill="#ADD1B2" rx="11" ry="11" style="stroke:#181818;stroke-width:1.0;"/><path d="M22.9813,21.8594 L27.4969,21.8594 L27.4969,23.125 L22.9813,23.125 L22.9813,28.1094 L28.2156,28.1094 L28.2156,29.3594 L20.45,29.3594 L20.45,16.4219 L27.8875,16.4219 L27.8875,17.6719 L22.9813,17.6719 L22.9813,21.8594 Z " fill="#000000"/><text fill="#000000" font-family="sans-serif" font-size="14" lengthAdjust="spacing" textLength="64" x="38.55" y="28.7285">テーブル1</text><line style="stroke:#181818;stroke-width:0.5;" x1="10" x2="105" y1="39" y2="39"/><ellipse cx="20" cy="53.3047" fill="none" rx="3" ry="3" style="stroke:#038048;stroke-width:1.0;"/><text fill="#000000" font-family="sans-serif" font-size="14" lengthAdjust="spacing" textLength="71" x="29" y="57.5332">商品ID [PK]</text><text fill="#000000" font-family="sans-serif" font-size="14" lengthAdjust="spacing" textLength="70" x="29" y="75.1426">商品コード</text></g><!--MD5=[9c7ea77ebcad14041c429da185d8279c]
class テーブル2--><g id="elem_テーブル2"><rect codeLine="8" fill="#F1F1F1" height="92.8281" id="テーブル2" rx="2.5" ry="2.5" style="stroke:#181818;stroke-width:0.5;" width="97" x="9" y="142"/><ellipse cx="24.45" cy="158" fill="#ADD1B2" rx="11" ry="11" style="stroke:#181818;stroke-width:1.0;"/><path d="M22.9813,156.8594 L27.4969,156.8594 L27.4969,158.125 L22.9813,158.125 L22.9813,163.1094 L28.2156,163.1094 L28.2156,164.3594 L20.45,164.3594 L20.45,151.4219 L27.8875,151.4219 L27.8875,152.6719 L22.9813,152.6719 L22.9813,156.8594 Z " fill="#000000"/><text fill="#000000" font-family="sans-serif" font-size="14" lengthAdjust="spacing" textLength="64" x="38.55" y="163.7285">テーブル2</text><line style="stroke:#181818;stroke-width:0.5;" x1="10" x2="105" y1="174" y2="174"/><ellipse cx="20" cy="188.3047" fill="none" rx="3" ry="3" style="stroke:#038048;stroke-width:1.0;"/><text fill="#000000" font-family="sans-serif" font-size="14" lengthAdjust="spacing" textLength="71" x="29" y="192.5332">入庫ID [PK]</text><polygon fill="none" points="20,200.9141,24,204.9141,20,208.9141,16,204.9141" style="stroke:#B38D22;stroke-width:1.0;"/><text fill="#000000" font-family="sans-serif" font-size="14" lengthAdjust="spacing" textLength="71" x="29" y="210.1426">商品ID [FK]</text><text fill="#000000" font-family="sans-serif" font-size="14" lengthAdjust="spacing" textLength="28" x="29" y="227.752">日時</text></g><!--MD5=[9c114b9a1e0634fb995c630e69e6328c]
link テーブル1 to テーブル2--><g id="link_テーブル1_テーブル2"><path codeLine="14" d="M57.5,90.43 C57.5,104.16 57.5,119.39 57.5,133.64 " fill="none" id="テーブル1-テーブル2" style="stroke:#181818;stroke-width:1.0;"/><line style="stroke:#181818;stroke-width:1.0;" x1="57.5" x2="63.5" y1="133.9" y2="141.9"/><line style="stroke:#181818;stroke-width:1.0;" x1="57.5" x2="51.5" y1="133.9" y2="141.9"/><line style="stroke:#181818;stroke-width:1.0;" x1="57.5" x2="57.5" y1="133.9" y2="141.9"/><ellipse cx="57.5" cy="127.9" fill="none" rx="4" ry="4" style="stroke:#181818;stroke-width:1.0;"/><line style="stroke:#181818;stroke-width:1.0;" x1="53.5" x2="61.5" y1="86.07" y2="86.07"/><line style="stroke:#181818;stroke-width:1.0;" x1="53.5" x2="61.5" y1="89.07" y2="89.07"/><line style="stroke:#181818;stroke-width:1.0;" x1="57.5" x2="57.5" y1="90.07" y2="82.07"/></g><!--MD5=[022e2b2bd2d89a17287a8159c024a7f0]
@startuml er
hide empty members

entity テーブル1 {
    + 商品ID [PK]
	商品コード
}

entity テーブル2 {
    + 入庫ID [PK]
    # 商品ID [FK]
	日時
}

テーブル1 ||- -o{ テーブル2

@enduml

PlantUML version 1.2022.7(Tue Aug 23 02:01:30 JST 2022)
(GPL source distribution)
Java Runtime: Java(TM) SE Runtime Environment
JVM: Java HotSpot(TM) 64-Bit Server VM
Default Encoding: MS932
Language: ja
Country: JP
--></g></svg>