<?xml version="1.0" encoding="UTF-8" standalone="no"?><svg xmlns="http://www.w3.org/2000/svg" xmlns:xlink="http://www.w3.org/1999/xlink" contentStyleType="text/css" height="209px" preserveAspectRatio="none" style="width:288px;height:209px;background:#FFFFFF;" version="1.1" viewBox="0 0 288 209" width="288px" zoomAndPan="magnify"><defs/><g><rect fill="none" height="27.6094" id="_title" style="stroke:none;stroke-width:1.0;" width="144" x="65" y="5"/><text fill="#000000" font-family="sans-serif" font-size="14" font-weight="bold" lengthAdjust="spacing" textLength="134" x="70" y="24.5332">状態遷移図 (サーバ)</text><rect fill="#F1F1F1" height="40" rx="12.5" ry="12.5" style="stroke:#181818;stroke-width:0.5;" width="52" x="114" y="45.6094"/><text fill="#000000" font-family="sans-serif" font-size="14" lengthAdjust="spacing" textLength="42" x="119" y="71.3379">停止中</text><rect fill="#F1F1F1" height="40" rx="12.5" ry="12.5" style="stroke:#181818;stroke-width:0.5;" width="52" x="201" y="163.6094"/><text fill="#000000" font-family="sans-serif" font-size="14" lengthAdjust="spacing" textLength="42" x="206" y="189.3379">準備中</text><rect fill="#F1F1F1" height="40" rx="12.5" ry="12.5" style="stroke:#181818;stroke-width:0.5;" width="66" x="7" y="163.6094"/><text fill="#000000" font-family="sans-serif" font-size="14" lengthAdjust="spacing" textLength="56" x="12" y="189.3379">ライブ中</text><ellipse cx="69" cy="65.6094" fill="#222222" rx="10" ry="10" style="stroke:none;stroke-width:1.0;"/><!--MD5=[eca7e40507c48773eec7b4679b9d76a1]
link *start to 停止中--><g id="link_*start_停止中"><path d="M79.26,65.6094 C89.09,65.6094 98.93,65.6094 108.76,65.6094 " fill="none" id="*start-to-停止中" style="stroke:#181818;stroke-width:1.0;"/><polygon fill="#181818" points="113.9,65.6094,104.9,61.6094,108.9,65.6094,104.9,69.6094,113.9,65.6094" style="stroke:#181818;stroke-width:1.0;"/></g><!--MD5=[7f107f1438e26b4d5b1acf9f8c64daf6]
link 停止中 to 準備中--><g id="link_停止中_準備中"><path d="M154.37,85.7694 C169.48,105.9094 193.27,137.6394 209.48,159.2494 " fill="none" id="停止中-to-準備中" style="stroke:#181818;stroke-width:1.0;"/><polygon fill="#181818" points="212.61,163.4294,210.41,153.8294,209.61,159.4294,204.01,158.6294,212.61,163.4294" style="stroke:#181818;stroke-width:1.0;"/><text fill="#000000" font-family="sans-serif" font-size="13" lengthAdjust="spacing" textLength="91" x="189" y="130.1045">ライブ準備命令</text></g><!--MD5=[adcfc5ca52586fc58062e9d1da41d4cb]
reverse link ライブ中 to 準備中--><g id="link_ライブ中_準備中"><path d="M78.27,183.6094 C114.88,183.6094 169.09,183.6094 200.95,183.6094 " fill="none" id="ライブ中-backto-準備中" style="stroke:#181818;stroke-width:1.0;"/><polygon fill="#181818" points="73,183.6094,82,187.6094,78,183.6094,82,179.6094,73,183.6094" style="stroke:#181818;stroke-width:1.0;"/><text fill="#000000" font-family="sans-serif" font-size="13" lengthAdjust="spacing" textLength="91" x="91.5" y="177.1045">ライブ開始命令</text></g><!--MD5=[773260974132175fd584b9b20378caf5]
reverse link 停止中 to ライブ中--><g id="link_停止中_ライブ中"><path d="M109.42,86.4994 C98.35,94.6494 86.3,104.7294 77,115.6094 C64.66,130.0594 54.56,149.2694 48.05,163.4194 " fill="none" id="停止中-backto-ライブ中" style="stroke:#181818;stroke-width:1.0;"/><polygon fill="#181818" points="113.76,83.3594,104.1214,85.3836,109.7059,86.2858,108.8037,91.8702,113.76,83.3594" style="stroke:#181818;stroke-width:1.0;"/><text fill="#000000" font-family="sans-serif" font-size="13" lengthAdjust="spacing" textLength="91" x="78" y="130.1045">ライブ終了命令</text></g><!--MD5=[c6ed8c1e4dcde08343deb8ecf2da231a]
@startuml stateTransition
title 状態遷移図 (サーバ)
hide empty description

' 各サブシステムに対応する状態がある
state 停止中
state 準備中
state ライブ中

[*] -r-> 停止中
停止中 -d-> 準備中 : ライブ準備命令
準備中 -l-> ライブ中 : ライブ開始命令
ライブ中 -u-> 停止中 : ライブ終了命令

@enduml

@startuml stateTransition
title 状態遷移図 (サーバ)
hide empty description

state 停止中
state 準備中
state ライブ中

[*] -r-> 停止中
停止中 -d-> 準備中 : ライブ準備命令
準備中 -l-> ライブ中 : ライブ開始命令
ライブ中 -u-> 停止中 : ライブ終了命令

@enduml

PlantUML version 1.2022.7(Tue Aug 23 02:01:30 JST 2022)
(GPL source distribution)
Java Runtime: Java(TM) SE Runtime Environment
JVM: Java HotSpot(TM) 64-Bit Server VM
Default Encoding: MS932
Language: ja
Country: JP
--></g></svg>