<?xml version="1.0" encoding="UTF-8" standalone="no"?>
<!-- Created with Inkscape (http://www.inkscape.org/) -->

<svg
   width="1574"
   height="512"
   viewBox="0 0 416.45415 135.46667"
   version="1.1"
   id="svg5"
   inkscape:version="1.2 (dc2aedaf03, 2022-05-15)"
   sodipodi:docname="draw.svg"
   inkscape:export-filename="draw.png"
   inkscape:export-xdpi="96"
   inkscape:export-ydpi="96"
   xmlns:inkscape="http://www.inkscape.org/namespaces/inkscape"
   xmlns:sodipodi="http://sodipodi.sourceforge.net/DTD/sodipodi-0.dtd"
   xmlns:xlink="http://www.w3.org/1999/xlink"
   xmlns="http://www.w3.org/2000/svg"
   xmlns:svg="http://www.w3.org/2000/svg">
  <sodipodi:namedview
     id="namedview7"
     pagecolor="#eeeeee"
     bordercolor="#eeeeee"
     borderopacity="1"
     inkscape:showpageshadow="0"
     inkscape:pageopacity="1"
     inkscape:pagecheckerboard="true"
     inkscape:deskcolor="#505050"
     inkscape:document-units="px"
     showgrid="false"
     inkscape:zoom="0.35134368"
     inkscape:cx="641.82171"
     inkscape:cy="281.77538"
     inkscape:window-width="1920"
     inkscape:window-height="1017"
     inkscape:window-x="-8"
     inkscape:window-y="-8"
     inkscape:window-maximized="1"
     inkscape:current-layer="layer1" />
  <defs
     id="defs2">
    <linearGradient
       inkscape:collect="always"
       id="linearGradient17001">
      <stop
         style="stop-color:#ffd500;stop-opacity:1;"
         offset="0"
         id="stop16997" />
      <stop
         style="stop-color:#ff8000;stop-opacity:1;"
         offset="1"
         id="stop16999" />
    </linearGradient>
    <linearGradient
       inkscape:collect="always"
       xlink:href="#linearGradient17001"
       id="linearGradient17003"
       x1="70.233742"
       y1="33.240776"
       x2="70.233742"
       y2="66.020172"
       gradientUnits="userSpaceOnUse" />
  </defs>
  <g
     inkscape:label="Layer 1"
     inkscape:groupmode="layer"
     id="layer1">
    <g
       id="g22957"
       transform="matrix(3.4772429,0,0,3.4772429,-234.78181,-106.00837)"
       style="stroke-width:0.287584">
      <path
         id="text22944"
         style="font-size:38.1px;font-family:けいふぉんと;-inkscape-font-specification:けいふぉんと;fill:#ffffff;fill-opacity:1;stroke:none;stroke-width:0.608721;stroke-dasharray:none;paint-order:stroke fill markers"
         d="m 84.710938,30.507812 c -3.599694,0.156174 -7.199222,0.316371 -10.798829,0.47461 0.136378,1.106975 0.276164,2.213526 0.414063,3.320312 -2.268872,0.108905 -4.53782,0.21622 -6.806641,0.326172 0.097,3.544306 0.195763,7.088566 0.294922,10.632813 2.183594,-0.117829 4.367188,-0.235679 6.550781,-0.353516 -3.717254,2.391809 -6.413442,6.559132 -6.436087,11.052502 -0.155064,4.521195 1.926601,8.788029 4.60616,12.30776 0.291719,0.484533 0.704658,1.169273 1.284136,1.17593 5.163049,-3.454123 10.326101,-6.908242 15.489151,-10.362364 -1.026456,1.819396 -2.598928,3.237106 -3.972656,4.785157 4.252015,1.749472 8.504061,3.498903 12.757812,5.24414 3.64408,-4.387666 5.61061,-10.402048 4.35396,-16.058717 -0.87746,-4.00676 -3.689889,-7.440163 -7.242632,-9.415892 1.723959,-0.108714 3.447912,-0.217525 5.171872,-0.326172 0,-3.48112 0,-6.96224 0,-10.443359 -4.971501,0.269998 -9.942681,0.546027 -14.914059,0.818359 -0.08079,-1.066402 -0.160792,-2.132863 -0.242188,-3.199219 -0.169922,0.0072 -0.339844,0.01432 -0.509765,0.02148 z m 99.769532,1.533204 c -3.33737,0.08229 -6.67578,0.01919 -10.01367,0.04492 0.15304,7.776322 0.83747,15.525635 1.40625,23.279296 -2.68211,2.659038 -2.59516,7.574222 0.31381,10.039697 2.46802,2.265595 6.70315,2.237745 9.03465,-0.219338 2.5277,-2.439037 2.76402,-6.860079 0.37722,-9.476147 -0.52351,-0.285674 -0.2316,-0.726434 -0.19443,-1.170384 0.18919,-3.55141 0.5525,-7.097659 0.77874,-10.649798 0.22813,-3.368502 0.44947,-6.746819 0.54352,-10.115826 -0.16879,-1.039057 -1.20043,-1.828885 -2.24609,-1.732422 z m -23.37891,1.398437 c -6.08652,0.132789 -12.13864,0.88239 -18.14453,1.839844 0.39012,3.977199 0.77917,7.954503 1.16992,11.931641 2.44527,-0.536817 4.879,-1.085622 7.36914,-1.435547 0.55446,0.875924 1.44813,1.462027 2.0854,2.276035 1.6101,1.699758 3.2211,3.398656 4.83062,5.098965 4.30059,-3.54776 8.60106,-7.095659 12.90234,-10.642579 -0.54276,-2.829063 -1.08849,-5.657561 -1.63281,-8.486328 -2.85057,-0.304693 -5.70814,-0.636105 -8.58008,-0.582031 z m -23.48437,2.689453 c -3.44078,0.741295 -6.89771,1.404012 -10.34766,2.101563 1.43078,7.004325 2.41401,14.111336 3.09612,21.223367 0.19675,1.191287 1.57664,1.800432 2.65922,1.423745 3.2212,-0.384249 6.43675,-0.66581 9.66068,-1.018206 -0.66719,-7.507105 -2.01975,-14.932414 -3.59249,-22.29495 -0.0377,-0.764592 -0.63955,-1.569684 -1.47587,-1.435519 z m -31.25586,0.802735 c -0.54963,7.502828 -1.27746,15.145777 0.24878,22.582942 0.18908,0.7139 0.41983,1.415622 0.62817,2.124089 2.47522,1.073653 4.94981,2.14878 7.42578,3.220703 4.17155,-4.726699 8.34688,-9.450059 12.51953,-14.175781 -3.18648,-1.713576 -6.37375,-3.425675 -9.56054,-5.138672 0.2585,-2.51813 0.75358,-4.947907 1.25586,-7.431641 -4.15794,-0.577321 -8.31523,-1.159284 -12.47266,-1.740234 -0.015,0.186198 -0.0299,0.372396 -0.0449,0.558594 z m 65.37109,17.107421 c -6.65193,1.270537 -13.43633,1.940954 -20.24673,1.376435 -2.53437,-0.195274 -5.03379,-0.635256 -7.57749,-0.987763 -0.25116,3.847623 -0.4985,7.695499 -0.75195,11.542969 9.72315,2.230517 19.86284,1.88044 29.63867,0.181641 -0.15521,-4.071629 -0.31053,-8.143255 -0.4668,-12.214844 -0.19856,0.03385 -0.39713,0.06771 -0.5957,0.101562 z m -93.445311,0.3125 c 0.20723,0.374368 -0.291259,0.363215 0,0 z" />
      <text
         xml:space="preserve"
         style="font-size:38.1px;font-family:けいふぉんと;-inkscape-font-specification:けいふぉんと;fill:url(#linearGradient17003);fill-opacity:1;stroke:#000000;stroke-width:1.82616;stroke-dasharray:none;paint-order:stroke fill markers"
         x="66.02935"
         y="63.899368"
         id="text14068"><tspan
           sodipodi:role="line"
           id="tspan14066"
           x="66.02935"
           y="63.899368"
           style="fill:url(#linearGradient17003);fill-opacity:1;stroke:#000000;stroke-width:1.82616;stroke-dasharray:none">あいこ!</tspan></text>
    </g>
  </g>
</svg>
