<?xml version="1.0" encoding="UTF-8" standalone="no"?>
<!-- Created with Inkscape (http://www.inkscape.org/) -->

<svg
   width="1425"
   height="512"
   viewBox="0 0 377.03123 135.46667"
   version="1.1"
   id="svg5"
   inkscape:version="1.2 (dc2aedaf03, 2022-05-15)"
   sodipodi:docname="lose.svg"
   inkscape:export-filename="lose.png"
   inkscape:export-xdpi="96"
   inkscape:export-ydpi="96"
   xmlns:inkscape="http://www.inkscape.org/namespaces/inkscape"
   xmlns:sodipodi="http://sodipodi.sourceforge.net/DTD/sodipodi-0.dtd"
   xmlns:xlink="http://www.w3.org/1999/xlink"
   xmlns="http://www.w3.org/2000/svg"
   xmlns:svg="http://www.w3.org/2000/svg">
  <sodipodi:namedview
     id="namedview7"
     pagecolor="#eeeeee"
     bordercolor="#eeeeee"
     borderopacity="1"
     inkscape:showpageshadow="0"
     inkscape:pageopacity="1"
     inkscape:pagecheckerboard="true"
     inkscape:deskcolor="#505050"
     inkscape:document-units="px"
     showgrid="false"
     inkscape:zoom="0.496875"
     inkscape:cx="284.77987"
     inkscape:cy="380.37736"
     inkscape:window-width="1920"
     inkscape:window-height="1017"
     inkscape:window-x="-8"
     inkscape:window-y="-8"
     inkscape:window-maximized="1"
     inkscape:current-layer="g3426" />
  <defs
     id="defs2">
    <linearGradient
       inkscape:collect="always"
       id="linearGradient1104">
      <stop
         style="stop-color:#00bbff;stop-opacity:1"
         offset="0"
         id="stop1100" />
      <stop
         style="stop-color:#0054ff;stop-opacity:1"
         offset="1"
         id="stop1102" />
    </linearGradient>
    <linearGradient
       inkscape:collect="always"
       xlink:href="#linearGradient1104"
       id="linearGradient1106"
       x1="59.046516"
       y1="62.656643"
       x2="59.046516"
       y2="99.789261"
       gradientUnits="userSpaceOnUse" />
  </defs>
  <g
     inkscape:label="Layer 1"
     inkscape:groupmode="layer"
     id="layer1">
    <g
       id="g3426"
       transform="matrix(3.1617297,0,0,3.1617297,-167.10246,-188.74649)">
      <path
         id="text1960"
         style="font-size:38.1px;font-family:けいふぉんと;-inkscape-font-specification:けいふぉんと;fill:#ffffff;fill-opacity:1;stroke:none;stroke-width:2.11667;stroke-dasharray:none;paint-order:stroke fill markers"
         d="m 67.460938,60.021484 c -2.365095,4.522373 -6.098201,8.318706 -10.624391,10.686911 -0.882352,0.351161 -1.454566,1.343544 -1.113891,2.270121 0.254389,1.048795 1.414491,1.257331 2.115496,1.899303 1.467232,1.114494 2.706217,2.507036 3.761457,4.010853 0.0033,4.238932 0.0065,8.477864 0.0098,12.716797 -2.899957,0.663368 -5.837152,1.145517 -8.757813,1.707031 3.661841,2.49729 7.145908,5.315761 9.960938,8.76172 4.911486,-1.44668 9.79333,-3.207357 14.130859,-5.974611 3.854904,1.613832 7.68395,3.387672 11.171875,5.744141 4.279623,-1.82889 8.560248,-3.655426 12.839842,-5.484375 -2.533049,-1.289139 -5.042654,-2.626575 -7.621092,-3.824219 -0.03916,-7.901908 -0.0033,-15.804743 -0.01563,-23.707031 -2.089848,5.84e-4 -4.179699,0.0049 -6.269531,-0.0059 0.504795,-0.789372 0.985656,-1.593694 1.478516,-2.390625 -2.373176,-1.503327 -4.743948,-3.010449 -7.117188,-4.513672 -1.250822,0.535829 -2.644813,0.567787 -3.976562,0.429687 -0.929059,-1.346687 -2.755976,-1.155545 -4.160633,-1.538033 -1.873589,-0.370532 -3.746763,-0.743175 -5.620617,-1.112357 -0.0638,0.108073 -0.127604,0.216145 -0.191406,0.324218 z m 52.167972,0.634766 c -0.29727,2.662211 -0.5965,5.324203 -0.89453,7.986328 -3.11913,0.157207 -6.23838,0.31189 -9.35743,0.470703 0.14926,3.294973 0.30097,6.589836 0.45117,9.884766 -0.47663,0.234618 -1.23048,1.160845 -1.1966,0.121767 -0.73942,-3.544374 -1.02753,-7.106627 -1.16277,-10.703798 -3.78257,0.116598 -7.56516,0.232624 -11.347656,0.351562 0.300533,8.447463 1.362231,17.093438 5.112326,24.773835 0.6537,1.315242 1.35361,2.606129 2.03416,3.907806 4.38305,-3.030838 8.7684,-6.058345 13.15234,-9.087891 -0.5239,4.550152 -1.04932,9.100129 -1.57226,13.650392 4.04942,0.17833 8.09895,0.35416 12.14843,0.53125 0.836,-7.451312 1.67469,-14.902322 2.51172,-22.353517 1.67942,-0.06329 3.43317,-0.192524 5.06641,-0.214844 -0.43398,2.6345 1.19069,5.379395 3.66211,6.353516 2.06702,0.930407 4.63807,0.602954 6.33008,-0.935547 2.48977,-2.123642 2.87567,-6.389149 0.49023,-8.738281 -1.99336,-2.210486 -5.70581,-2.666527 -8.05078,-0.751953 -0.65742,0.5095 -1.21373,1.148282 -1.63086,1.867187 -0.0728,-3.276694 -0.14641,-6.553372 -0.21875,-9.830078 -1.4362,0.05725 -2.8724,0.114589 -4.30859,0.171875 0.27534,-2.472011 0.55112,-4.943972 0.82617,-7.416016 -3.99672,-0.1777 -7.99346,-0.354862 -11.99024,-0.53125 -0.0182,0.164063 -0.0365,0.328126 -0.0547,0.492188 z m 33.3125,14.046875 c -3.84645,0.08353 -6.82582,4.52644 -5.37835,8.108478 1.14651,3.555645 5.99692,5.251541 9.05981,3.051382 2.99956,-1.882143 3.70677,-6.612547 1.16408,-9.161134 -1.21762,-1.332891 -3.03781,-2.103264 -4.84554,-1.998726 z m 12.68359,0.002 c -3.8454,0.08291 -6.82106,4.526403 -5.37444,8.106525 1.14793,3.559341 6.00257,5.249921 9.0674,3.051031 2.99533,-1.890522 3.69967,-6.634074 1.1412,-9.172677 -1.21086,-1.330432 -3.03474,-2.090514 -4.83416,-1.984879 z m -48.70703,9.34375 c -0.63086,-1.108724 -1.26172,-2.217448 -1.89258,-3.326172 0.76172,-0.028 1.52344,-0.05599 2.28516,-0.08398 -0.13086,1.136719 -0.26172,2.273437 -0.39258,3.410156 z" />
      <text
         xml:space="preserve"
         style="font-size:38.1px;font-family:けいふぉんと;-inkscape-font-specification:けいふぉんと;fill:url(#linearGradient1106);fill-opacity:1;stroke:#000000;stroke-width:2.0083943;stroke-dasharray:none;paint-order:stroke fill markers"
         x="58.041927"
         y="95.25"
         id="text470"><tspan
           sodipodi:role="line"
           id="tspan468"
           x="58.041927"
           y="95.25"
           style="fill:url(#linearGradient1106);fill-opacity:1;stroke:#000000;stroke-width:2.0083943;stroke-dasharray:none">負け…</tspan></text>
    </g>
  </g>
</svg>
