<?xml version="1.0" encoding="UTF-8" standalone="no"?>
<!-- Created with Inkscape (http://www.inkscape.org/) -->

<svg
   width="1055"
   height="512"
   viewBox="0 0 279.1354 135.46667"
   version="1.1"
   id="svg5"
   inkscape:version="1.2 (dc2aedaf03, 2022-05-15)"
   sodipodi:docname="win.svg"
   inkscape:export-filename="win.png"
   inkscape:export-xdpi="96"
   inkscape:export-ydpi="96"
   xmlns:inkscape="http://www.inkscape.org/namespaces/inkscape"
   xmlns:sodipodi="http://sodipodi.sourceforge.net/DTD/sodipodi-0.dtd"
   xmlns:xlink="http://www.w3.org/1999/xlink"
   xmlns="http://www.w3.org/2000/svg"
   xmlns:svg="http://www.w3.org/2000/svg">
  <sodipodi:namedview
     id="namedview7"
     pagecolor="#eeeeee"
     bordercolor="#eeeeee"
     borderopacity="1"
     inkscape:showpageshadow="0"
     inkscape:pageopacity="1"
     inkscape:pagecheckerboard="true"
     inkscape:deskcolor="#505050"
     inkscape:document-units="px"
     showgrid="false"
     inkscape:zoom="0.496875"
     inkscape:cx="127.79874"
     inkscape:cy="199.24528"
     inkscape:window-width="1920"
     inkscape:window-height="1017"
     inkscape:window-x="-8"
     inkscape:window-y="-8"
     inkscape:window-maximized="1"
     inkscape:current-layer="layer1" />
  <defs
     id="defs2">
    <linearGradient
       inkscape:collect="always"
       id="linearGradient6327">
      <stop
         style="stop-color:#ff009e;stop-opacity:1"
         offset="0"
         id="stop6323" />
      <stop
         style="stop-color:#f0275f;stop-opacity:1"
         offset="1"
         id="stop6325" />
    </linearGradient>
    <linearGradient
       inkscape:collect="always"
       xlink:href="#linearGradient6327"
       id="linearGradient6329"
       x1="105.08256"
       y1="64.023888"
       x2="105.08256"
       y2="103.19875"
       gradientUnits="userSpaceOnUse"
       gradientTransform="matrix(3.0363554,0,0,3.0363554,-311.9796,-188.35486)" />
  </defs>
  <g
     inkscape:label="Layer 1"
     inkscape:groupmode="layer"
     id="layer1">
    <g
       id="g14052"
       transform="scale(1.0296703)"
       style="stroke-width:0.971185">
      <path
         id="text9371"
         style="font-size:38.1px;font-family:けいふぉんと;-inkscape-font-specification:けいふぉんと;fill:#ffffff;fill-opacity:1;stroke:none;stroke-width:6.24177;stroke-dasharray:none;paint-order:stroke fill markers"
         d="M 94.091428,1.85027 C 94.314904,3.9942618 91.513866,2.4491911 90.181513,2.6573484 83.073587,1.9135264 75.965327,1.1729471 68.857644,0.42697839 69.53378,2.337857 68.007677,2.4014687 66.615964,2.7101749 63.09027,3.7356645 59.734398,5.2725887 56.16662,5.9303725 52.778989,4.5480414 49.057783,5.6514529 45.520399,5.2898928 c -12.374332,0 -24.748665,0 -37.1229973,0 C 7.9434362,33.495649 9.4513814,61.843464 6.7254326,89.899406 5.6903694,99.178335 3.5084748,108.33915 -3.54303e-6,117.0005 9.3004138,119.17739 17.846692,124.33892 25.162608,130.61072 c 1.463675,2.23868 2.268673,0.0273 2.910316,-1.49079 0.05435,-1.93233 1.257233,-2.28731 3.005688,-1.98107 7.747261,0.0355 16.501195,-0.40116 22.329084,-6.22832 1.624845,2.55221 2.801372,6.00494 4.099202,8.96481 6.71162,-2.76333 13.426915,-5.68943 19.386431,-9.88595 0.161837,2.26296 0.258393,4.59892 0.403258,6.92668 9.678018,-0.53719 20.044409,1.54329 29.037823,-3.08402 7.05731,-3.18948 10.04381,-11.16087 10.90534,-18.36606 1.09986,-5.20027 0.84144,-10.63487 2.04092,-15.783229 3.31922,-6.369988 8.69682,-11.216995 14.04521,-15.856009 0.54602,-1.097497 4.23277,-2.46744 2.45295,-3.36168 -2.75465,-1.734244 -5.56194,-3.38778 -8.25786,-5.2131 0.9328,-3.295663 0.15243,-6.76616 0.34399,-10.135023 5.65895,0.287512 11.37495,0.165906 17.05576,0.29653 -0.91969,15.70979 -0.6397,31.45445 -0.61083,47.182121 14.54521,-5.025126 28.48089,-12.447202 43.93819,-14.321875 0.0708,3.666083 -3.87372,5.466059 -6.58859,7.057747 -7.53705,4.297348 -15.98641,6.535638 -24.10705,9.434638 10.05732,8.90218 20.11519,17.80376 30.17378,26.7045 13.66819,-6.68187 27.16491,-15.79652 34.32995,-29.66144 8.13816,-14.516109 1.58418,-35.324723 -13.82046,-41.990383 -8.76332,-4.22493 -18.83558,-3.773376 -28.23085,-2.537236 -0.23896,-1.946962 0.32231,-2.955986 2.49042,-2.539234 10.78052,-0.594105 21.54522,-1.474779 32.30312,-2.400776 0,-11.166908 0,-22.333815 0,-33.500726 -11.00594,0.87972 -22.00714,1.836789 -33.03221,2.449249 0.3452,-5.30168 0.67838,-10.604153 1.03187,-15.9052829 -11.59975,-0.2809236 -23.1996,-0.5596762 -34.79948,-0.8361849 -0.40897,5.8109978 -0.82082,11.6217598 -1.19198,17.4353238 -6.93443,0.07582 -13.86901,0.127527 -20.80381,0.154186 0.82519,-2.537488 -1.90586,-1.518743 -3.42892,-1.70795 -2.50366,0.331099 0.83712,-2.647993 1.13945,-3.906159 1.3816,-2.301818 2.75817,-4.606673 4.14569,-6.9049272 C 116.68337,6.4156672 105.50937,3.2064156 94.334579,1.7412558e-8 94.253508,0.61675971 94.172438,1.2335194 94.091367,1.8502791 Z m 168.428762,9.755479 c -10.13147,0.249831 -20.2661,0.0583 -30.39914,0.136393 0.45566,23.610366 2.53818,47.137975 4.27582,70.678286 -8.19542,8.095097 -7.88669,23.131642 1.05905,30.573382 7.33101,6.64668 19.68916,6.69872 26.83434,-0.26972 8.62899,-7.62386 8.88699,-22.561636 0.56649,-30.511218 0.88012,-3.273971 0.43721,-6.72185 0.96824,-10.060126 1.42966,-18.407856 2.95401,-36.848899 3.51512,-55.286748 -0.5125,-3.154947 -3.6449,-5.553145 -6.81992,-5.260249 z M 58.1711,96.350902 c -1.009132,-0.04831 -0.225297,0.03103 0,0 z m 33.393989,3.522646 c -2.665374,2.892332 -1.300319,-1.149816 -0.289365,-0.572909 0.09656,0.190956 0.193113,0.38194 0.289365,0.572909 z" />
      <text
         xml:space="preserve"
         style="font-size:115.685px;font-family:けいふぉんと;-inkscape-font-specification:けいふぉんと;fill:url(#linearGradient6329);fill-opacity:1;stroke:#000000;stroke-width:6.16702;stroke-dasharray:none;paint-order:stroke fill markers"
         x="8.1553736"
         y="108.33588"
         id="text183"><tspan
           sodipodi:role="line"
           id="tspan181"
           x="8.1553736"
           y="108.33588"
           style="font-size:115.685px;fill:url(#linearGradient6329);fill-opacity:1;stroke-width:6.16702;stroke-dasharray:none">勝ち!</tspan></text>
    </g>
  </g>
</svg>
